font.ufo
<glyph name="numbersign.S" format="2">
	<unicode hex="0023"/>
	<advance width="513"/>
	<outline>
		<contour>
			<point x="90" y="-7" type="line"/>
			<point x="160" y="-7" type="line"/>
			<point x="182" y="150" type="line"/>
			<point x="299" y="150" type="line"/>
			<point x="278" y="-7" type="line"/>
			<point x="348" y="-7" type="line"/>
			<point x="369" y="150" type="line"/>
			<point x="463" y="150" type="line"/>
			<point x="463" y="226" type="line"/>
			<point x="378" y="226" type="line"/>
			<point x="394" y="355" type="line"/>
			<point x="483" y="355" type="line"/>
			<point x="483" y="431" type="line"/>
			<point x="403" y="431" type="line"/>
			<point x="421" y="568" type="line"/>
			<point x="352" y="568" type="line"/>
			<point x="333" y="431" type="line"/>
			<point x="216" y="431" type="line"/>
			<point x="233" y="568" type="line"/>
			<point x="164" y="568" type="line"/>
			<point x="146" y="431" type="line"/>
			<point x="55" y="431" type="line"/>
			<point x="55" y="355" type="line"/>
			<point x="136" y="355" type="line"/>
			<point x="120" y="226" type="line"/>
			<point x="35" y="226" type="line"/>
			<point x="35" y="150" type="line"/>
			<point x="112" y="150" type="line"/>
		</contour>
		<contour>
			<point x="190" y="226" type="line"/>
			<point x="206" y="355" type="line"/>
			<point x="324" y="355" type="line"/>
			<point x="308" y="226" type="line"/>
		</contour>
	</outline>
</glyph>
<glyph name="dollar.S" format="2">
	<unicode hex="0024"/>
	<advance width="513"/>
	<outline>
		<contour>
			<point x="255" y="-12" type="curve" smooth="yes"/>
			<point x="373" y="-12"/>
			<point x="449" y="55"/>
			<point x="449" y="154" type="curve" smooth="yes"/>
			<point x="449" y="336"/>
			<point x="180" y="319"/>
			<point x="180" y="416" type="curve" smooth="yes"/>
			<point x="180" y="454"/>
			<point x="211" y="478"/>
			<point x="259" y="478" type="curve" smooth="yes"/>
			<point x="307" y="478"/>
			<point x="339" y="469"/>
			<point x="386" y="439" type="curve"/>
			<point x="435" y="511" type="line"/>
			<point x="383" y="554"/>
			<point x="326" y="571"/>
			<point x="256" y="571" type="curve" smooth="yes"/>
			<point x="147" y="571"/>
			<point x="72" y="510"/>
			<point x="72" y="414" type="curve" smooth="yes"/>
			<point x="72" y="238"/>
			<point x="340" y="254"/>
			<point x="340" y="147" type="curve" smooth="yes"/>
			<point x="340" y="107"/>
			<point x="310" y="81"/>
			<point x="245" y="81" type="curve" smooth="yes"/>
			<point x="192" y="81"/>
			<point x="150" y="90"/>
			<point x="94" y="133" type="curve"/>
			<point x="45" y="60" type="line"/>
			<point x="106" y="8"/>
			<point x="180" y="-12"/>
		</contour>
		<contour>
			<point x="218" y="-110" type="line"/>
			<point x="297" y="-110" type="line"/>
			<point x="297" y="33" type="line"/>
			<point x="218" y="33" type="line"/>
		</contour>
		<contour>
			<point x="215" y="533" type="line"/>
			<point x="293" y="533" type="line"/>
			<point x="293" y="669" type="line"/>
			<point x="215" y="669" type="line"/>
		</contour>
	</outline>
</glyph>
<glyph name="gampersand" format="2">
	<unicode hex="0026"/>
	<advance width="587"/>
	<outline>
		<contour>
			<point x="23" y="-112" type="curve"/>
			<point x="131" y="-100" type="line"/>
			<point x="138" y="142"/>
			<point x="282" y="231"/>
			<point x="370" y="231" type="curve" smooth="yes"/>
			<point x="430" y="231"/>
			<point x="461" y="206"/>
			<point x="461" y="162" type="curve" smooth="yes"/>
			<point x="461" y="112"/>
			<point x="414" y="85"/>
			<point x="360" y="85" type="curve" smooth="yes"/>
			<point x="299" y="85"/>
			<point x="203" y="116"/>
			<point x="203" y="253" type="curve" smooth="yes"/>
			<point x="203" y="367"/>
			<point x="295" y="426"/>
			<point x="429" y="426" type="curve" smooth="yes"/>
			<point x="472" y="426" type="line"/>
			<point x="490" y="509" type="line"/>
			<point x="390" y="558"/>
			<point x="333" y="595"/>
			<point x="300" y="678" type="curve"/>
			<point x="185" y="661" type="line"/>
			<point x="222" y="571"/>
			<point x="290" y="536"/>
			<point x="381" y="495" type="curve"/>
			<point x="421" y="523" type="line"/>
			<point x="255" y="523"/>
			<point x="116" y="428"/>
			<point x="116" y="253" type="curve" smooth="yes"/>
			<point x="116" y="58"/>
			<point x="252" y="-12"/>
			<point x="362" y="-12" type="curve" smooth="yes"/>
			<point x="468" y="-12"/>
			<point x="548" y="52"/>
			<point x="548" y="160" type="curve" smooth="yes"/>
			<point x="548" y="266"/>
			<point x="479" y="315"/>
			<point x="377" y="315" type="curve" smooth="yes"/>
			<point x="228" y="315"/>
			<point x="30" y="174"/>
		</contour>
	</outline>
</glyph>
<glyph name="zero.S" format="2">
	<unicode hex="0030"/>
	<advance width="513"/>
	<outline>
		<contour>
			<point x="256" y="-12" type="curve" smooth="yes"/>
			<point x="385" y="-12"/>
			<point x="467" y="92"/>
			<point x="467" y="283" type="curve" smooth="yes"/>
			<point x="467" y="472"/>
			<point x="385" y="571"/>
			<point x="256" y="571" type="curve" smooth="yes"/>
			<point x="128" y="571"/>
			<point x="46" y="473"/>
			<point x="46" y="283" type="curve" smooth="yes"/>
			<point x="46" y="92"/>
			<point x="128" y="-12"/>
		</contour>
		<contour>
			<point x="256" y="90" type="curve" smooth="yes"/>
			<point x="191" y="90"/>
			<point x="143" y="148"/>
			<point x="143" y="283" type="curve" smooth="yes"/>
			<point x="143" y="419"/>
			<point x="191" y="469"/>
			<point x="256" y="469" type="curve" smooth="yes"/>
			<point x="322" y="469"/>
			<point x="370" y="419"/>
			<point x="370" y="283" type="curve" smooth="yes"/>
			<point x="370" y="148"/>
			<point x="322" y="90"/>
		</contour>
	</outline>
</glyph>
<glyph name="one.S" format="2">
	<unicode hex="0031"/>
	<advance width="513"/>
	<outline>
		<contour>
			<point x="74" y="0" type="line"/>
			<point x="457" y="0" type="line"/>
			<point x="457" y="98" type="line"/>
			<point x="332" y="98" type="line"/>
			<point x="332" y="559" type="line"/>
			<point x="246" y="559" type="line"/>
			<point x="206" y="535"/>
			<point x="162" y="518"/>
			<point x="99" y="507" type="curve"/>
			<point x="99" y="431" type="line"/>
			<point x="216" y="431" type="line"/>
			<point x="216" y="98" type="line"/>
			<point x="74" y="98" type="line"/>
		</contour>
	</outline>
</glyph>
<glyph name="two.S" format="2">
	<unicode hex="0032"/>
	<advance width="513"/>
	<outline>
		<contour>
			<point x="50" y="0" type="line"/>
			<point x="460" y="0" type="line"/>
			<point x="460" y="98" type="line"/>
			<point x="314" y="98" type="line" smooth="yes"/>
			<point x="283" y="98"/>
			<point x="239" y="94"/>
			<point x="205" y="91" type="curve"/>
			<point x="321" y="200"/>
			<point x="424" y="299"/>
			<point x="424" y="406" type="curve" smooth="yes"/>
			<point x="424" y="506"/>
			<point x="350" y="571"/>
			<point x="234" y="571" type="curve" smooth="yes"/>
			<point x="157" y="571"/>
			<point x="102" y="552"/>
			<point x="42" y="507" type="curve"/>
			<point x="84" y="420" type="line"/>
			<point x="137" y="456"/>
			<point x="174" y="469"/>
			<point x="227" y="469" type="curve" smooth="yes"/>
			<point x="289" y="469"/>
			<point x="325" y="437"/>
			<point x="325" y="386" type="curve" smooth="yes"/>
			<point x="325" y="317"/>
			<point x="238" y="226"/>
			<point x="50" y="73" type="curve"/>
		</contour>
	</outline>
</glyph>
<glyph name="three.S" format="2">
	<unicode hex="0033"/>
	<advance width="513"/>
	<outline>
		<contour>
			<point x="232" y="-52" type="curve" smooth="yes"/>
			<point x="358" y="-52"/>
			<point x="457" y="8"/>
			<point x="457" y="125" type="curve" smooth="yes"/>
			<point x="457" y="213"/>
			<point x="403" y="251"/>
			<point x="329" y="268" type="curve"/>
			<point x="329" y="272" type="line"/>
			<point x="395" y="297"/>
			<point x="436" y="344"/>
			<point x="436" y="418" type="curve" smooth="yes"/>
			<point x="436" y="521"/>
			<point x="351" y="571"/>
			<point x="234" y="571" type="curve" smooth="yes"/>
			<point x="162" y="571"/>
			<point x="114" y="559"/>
			<point x="52" y="524" type="curve"/>
			<point x="79" y="442" type="line"/>
			<point x="137" y="472"/>
			<point x="173" y="480"/>
			<point x="224" y="480" type="curve" smooth="yes"/>
			<point x="286" y="480"/>
			<point x="324" y="453"/>
			<point x="324" y="403" type="curve" smooth="yes"/>
			<point x="324" y="345"/>
			<point x="284" y="306"/>
			<point x="159" y="306" type="curve"/>
			<point x="159" y="223" type="line"/>
			<point x="303" y="223"/>
			<point x="346" y="188"/>
			<point x="346" y="132" type="curve" smooth="yes"/>
			<point x="346" y="74"/>
			<point x="300" y="40"/>
			<point x="223" y="40" type="curve" smooth="yes"/>
			<point x="164" y="40"/>
			<point x="126" y="44"/>
			<point x="64" y="77" type="curve"/>
			<point x="36" y="-4" type="line"/>
			<point x="102" y="-42"/>
			<point x="153" y="-52"/>
		</contour>
	</outline>
</glyph>
<glyph name="four.S" format="2">
	<unicode hex="0034"/>
	<advance width="513"/>
	<outline>
		<contour>
			<point x="307" y="-40" type="line"/>
			<point x="407" y="-40" type="line"/>
			<point x="407" y="559" type="line"/>
			<point x="270" y="559" type="line"/>
			<point x="20" y="176" type="line"/>
			<point x="20" y="105" type="line"/>
			<point x="487" y="105" type="line"/>
			<point x="487" y="202" type="line"/>
			<point x="138" y="202" type="line"/>
			<point x="248" y="364" type="line"/>
			<point x="268" y="396"/>
			<point x="291" y="437"/>
			<point x="308" y="468" type="curve"/>
			<point x="312" y="468" type="line"/>
			<point x="310" y="430"/>
			<point x="307" y="373"/>
			<point x="307" y="336" type="curve" smooth="yes"/>
		</contour>
	</outline>
</glyph>
<glyph name="five.S" format="2">
	<unicode hex="0035"/>
	<advance width="513"/>
	<outline>
		<contour>
			<point x="238" y="-52" type="curve" smooth="yes"/>
			<point x="358" y="-52"/>
			<point x="457" y="22"/>
			<point x="457" y="154" type="curve" smooth="yes"/>
			<point x="457" y="285"/>
			<point x="368" y="342"/>
			<point x="253" y="342" type="curve" smooth="yes"/>
			<point x="228" y="342"/>
			<point x="204" y="336"/>
			<point x="182" y="324" type="curve"/>
			<point x="194" y="462" type="line"/>
			<point x="432" y="462" type="line"/>
			<point x="432" y="559" type="line"/>
			<point x="98" y="559" type="line"/>
			<point x="78" y="264" type="line"/>
			<point x="132" y="228" type="line"/>
			<point x="169" y="248"/>
			<point x="195" y="257"/>
			<point x="232" y="257" type="curve" smooth="yes"/>
			<point x="303" y="257"/>
			<point x="345" y="218"/>
			<point x="345" y="149" type="curve" smooth="yes"/>
			<point x="345" y="77"/>
			<point x="293" y="40"/>
			<point x="230" y="40" type="curve" smooth="yes"/>
			<point x="170" y="40"/>
			<point x="132" y="44"/>
			<point x="70" y="77" type="curve"/>
			<point x="42" y="-4" type="line"/>
			<point x="108" y="-42"/>
			<point x="160" y="-52"/>
		</contour>
	</outline>
</glyph>
<glyph name="six.S" format="2">
	<unicode hex="0036"/>
	<advance width="513"/>
	<outline>
		<contour>
			<point x="274" y="-12" type="curve" smooth="yes"/>
			<point x="382" y="-12"/>
			<point x="468" y="63"/>
			<point x="468" y="194" type="curve" smooth="yes"/>
			<point x="468" y="322"/>
			<point x="394" y="384"/>
			<point x="290" y="384" type="curve" smooth="yes"/>
			<point x="228" y="384"/>
			<point x="170" y="359"/>
			<point x="134" y="308" type="curve"/>
			<point x="139" y="215" type="line"/>
			<point x="179" y="275"/>
			<point x="226" y="295"/>
			<point x="273" y="295" type="curve" smooth="yes"/>
			<point x="340" y="295"/>
			<point x="370" y="254"/>
			<point x="370" y="192" type="curve" smooth="yes"/>
			<point x="370" y="128"/>
			<point x="329" y="88"/>
			<point x="272" y="88" type="curve" smooth="yes"/>
			<point x="199" y="88"/>
			<point x="146" y="145"/>
			<point x="146" y="289" type="curve" smooth="yes"/>
			<point x="146" y="456"/>
			<point x="214" y="512"/>
			<point x="302" y="512" type="curve" smooth="yes"/>
			<point x="347" y="512"/>
			<point x="376" y="504"/>
			<point x="416" y="480" type="curve"/>
			<point x="458" y="564" type="line"/>
			<point x="410" y="597"/>
			<point x="364" y="611"/>
			<point x="296" y="611" type="curve" smooth="yes"/>
			<point x="161" y="611"/>
			<point x="48" y="522"/>
			<point x="48" y="289" type="curve" smooth="yes"/>
			<point x="48" y="79"/>
			<point x="149" y="-12"/>
		</contour>
	</outline>
</glyph>
<glyph name="seven.S" format="2">
	<unicode hex="0037"/>
	<advance width="513"/>
	<outline>
		<contour>
			<point x="169" y="-40" type="curve"/>
			<point x="284" y="-40" type="line"/>
			<point x="294" y="188"/>
			<point x="330" y="313"/>
			<point x="471" y="488" type="curve"/>
			<point x="471" y="559" type="line"/>
			<point x="44" y="559" type="line"/>
			<point x="44" y="462" type="line"/>
			<point x="346" y="462" type="line"/>
			<point x="231" y="302"/>
			<point x="180" y="166"/>
		</contour>
	</outline>
</glyph>
<glyph name="eight.S" format="2">
	<unicode hex="0038"/>
	<advance width="513"/>
	<outline>
		<contour>
			<point x="260" y="-12" type="curve" smooth="yes"/>
			<point x="388" y="-12"/>
			<point x="467" y="58"/>
			<point x="467" y="152" type="curve" smooth="yes"/>
			<point x="467" y="231"/>
			<point x="424" y="269"/>
			<point x="361" y="301" type="curve"/>
			<point x="361" y="305" type="line"/>
			<point x="407" y="332"/>
			<point x="452" y="384"/>
			<point x="452" y="452" type="curve" smooth="yes"/>
			<point x="452" y="553"/>
			<point x="375" y="612"/>
			<point x="258" y="612" type="curve" smooth="yes"/>
			<point x="148" y="612"/>
			<point x="68" y="556"/>
			<point x="68" y="454" type="curve" smooth="yes"/>
			<point x="68" y="387"/>
			<point x="103" y="347"/>
			<point x="156" y="311" type="curve"/>
			<point x="156" y="307" type="line"/>
			<point x="99" y="278"/>
			<point x="44" y="234"/>
			<point x="44" y="150" type="curve" smooth="yes"/>
			<point x="44" y="47"/>
			<point x="134" y="-12"/>
		</contour>
		<contour>
			<point x="299" y="337" type="curve"/>
			<point x="222" y="367"/>
			<point x="166" y="392"/>
			<point x="166" y="450" type="curve" smooth="yes"/>
			<point x="166" y="490"/>
			<point x="202" y="516"/>
			<point x="256" y="516" type="curve" smooth="yes"/>
			<point x="317" y="516"/>
			<point x="354" y="484"/>
			<point x="354" y="438" type="curve" smooth="yes"/>
			<point x="354" y="399"/>
			<point x="334" y="369"/>
		</contour>
		<contour>
			<point x="263" y="84" type="curve" smooth="yes"/>
			<point x="194" y="84"/>
			<point x="142" y="114"/>
			<point x="142" y="170" type="curve" smooth="yes"/>
			<point x="142" y="220"/>
			<point x="173" y="245"/>
			<point x="212" y="270" type="curve"/>
			<point x="300" y="232"/>
			<point x="368" y="218"/>
			<point x="368" y="156" type="curve" smooth="yes"/>
			<point x="368" y="116"/>
			<point x="334" y="84"/>
		</contour>
	</outline>
</glyph>
<glyph name="eight" format="2">
	<unicode hex="0038"/>
	<advance width="513"/>
	<outline>
		<contour>
			<point x="257" y="-12" type="curve" smooth="yes"/>
			<point x="386" y="-12"/>
			<point x="472" y="63"/>
			<point x="472" y="161" type="curve" smooth="yes"/>
			<point x="472" y="246"/>
			<point x="421" y="293"/>
			<point x="362" y="326" type="curve"/>
			<point x="362" y="330" type="line"/>
			<point x="404" y="360"/>
			<point x="450" y="413"/>
			<point x="450" y="478" type="curve" smooth="yes"/>
			<point x="450" y="579"/>
			<point x="376" y="648"/>
			<point x="260" y="648" type="curve" smooth="yes"/>
			<point x="148" y="648"/>
			<point x="66" y="581"/>
			<point x="66" y="479" type="curve" smooth="yes"/>
			<point x="66" y="412"/>
			<point x="105" y="365"/>
			<point x="156" y="330" type="curve"/>
			<point x="156" y="326" type="line"/>
			<point x="96" y="294"/>
			<point x="41" y="242"/>
			<point x="41" y="163" type="curve" smooth="yes"/>
			<point x="41" y="60"/>
			<point x="133" y="-12"/>
		</contour>
		<contour>
			<point x="299" y="359" type="curve"/>
			<point x="228" y="387"/>
			<point x="171" y="415"/>
			<point x="171" y="479" type="curve" smooth="yes"/>
			<point x="171" y="534"/>
			<point x="209" y="566"/>
			<point x="258" y="566" type="curve" smooth="yes"/>
			<point x="317" y="566"/>
			<point x="352" y="525"/>
			<point x="352" y="469" type="curve" smooth="yes"/>
			<point x="352" y="429"/>
			<point x="333" y="393"/>
		</contour>
		<contour>
			<point x="259" y="70" type="curve" smooth="yes"/>
			<point x="194" y="70"/>
			<point x="143" y="112"/>
			<point x="143" y="175" type="curve" smooth="yes"/>
			<point x="143" y="224"/>
			<point x="171" y="265"/>
			<point x="211" y="294" type="curve"/>
			<point x="296" y="259"/>
			<point x="363" y="234"/>
			<point x="363" y="165" type="curve" smooth="yes"/>
			<point x="363" y="106"/>
			<point x="320" y="70"/>
		</contour>
	</outline>
</glyph>
<glyph name="nine.S" format="2">
	<unicode hex="0039"/>
	<advance width="513"/>
	<outline>
		<contour>
			<point x="211" y="-52" type="curve" smooth="yes"/>
			<point x="349" y="-52"/>
			<point x="464" y="41"/>
			<point x="464" y="270" type="curve" smooth="yes"/>
			<point x="464" y="480"/>
			<point x="364" y="571"/>
			<point x="239" y="571" type="curve" smooth="yes"/>
			<point x="131" y="571"/>
			<point x="44" y="496"/>
			<point x="44" y="365" type="curve" smooth="yes"/>
			<point x="44" y="239"/>
			<point x="119" y="178"/>
			<point x="222" y="178" type="curve" smooth="yes"/>
			<point x="285" y="178"/>
			<point x="342" y="203"/>
			<point x="379" y="254" type="curve"/>
			<point x="374" y="344" type="line"/>
			<point x="333" y="284"/>
			<point x="286" y="263"/>
			<point x="240" y="263" type="curve" smooth="yes"/>
			<point x="175" y="263"/>
			<point x="145" y="304"/>
			<point x="145" y="367" type="curve" smooth="yes"/>
			<point x="145" y="438"/>
			<point x="185" y="483"/>
			<point x="241" y="483" type="curve" smooth="yes"/>
			<point x="312" y="483"/>
			<point x="358" y="424"/>
			<point x="358" y="270" type="curve" smooth="yes"/>
			<point x="358" y="103"/>
			<point x="291" y="42"/>
			<point x="205" y="42" type="curve" smooth="yes"/>
			<point x="164" y="42"/>
			<point x="137" y="47"/>
			<point x="92" y="67" type="curve"/>
			<point x="64" y="-17" type="line"/>
			<point x="115" y="-44"/>
			<point x="152" y="-52"/>
		</contour>
	</outline>
</glyph>
<glyph name="question.S" format="2">
	<unicode hex="003F"/>
	<advance width="444"/>
	<outline>
		<contour>
			<point x="155" y="225" type="curve"/>
			<point x="157" y="221" type="line"/>
			<point x="258" y="221" type="line"/>
			<point x="325" y="303"/>
			<point x="383" y="371"/>
			<point x="383" y="464" type="curve" smooth="yes"/>
			<point x="383" y="553"/>
			<point x="310" y="601"/>
			<point x="211" y="601" type="curve" smooth="yes"/>
			<point x="142" y="601"/>
			<point x="90" y="577"/>
			<point x="44" y="534" type="curve"/>
			<point x="97" y="458" type="line"/>
			<point x="133" y="487"/>
			<point x="161" y="502"/>
			<point x="203" y="502" type="curve" smooth="yes"/>
			<point x="258" y="502"/>
			<point x="285" y="471"/>
			<point x="285" y="433" type="curve" smooth="yes"/>
			<point x="285" y="375"/>
			<point x="240" y="318"/>
		</contour>
		<contour>
			<point x="208" y="-12" type="curve" smooth="yes"/>
			<point x="250" y="-12"/>
			<point x="283" y="21"/>
			<point x="283" y="66" type="curve" smooth="yes"/>
			<point x="283" y="111"/>
			<point x="250" y="144"/>
			<point x="208" y="144" type="curve" smooth="yes"/>
			<point x="166" y="144"/>
			<point x="134" y="111"/>
			<point x="134" y="66" type="curve" smooth="yes"/>
			<point x="134" y="21"/>
			<point x="166" y="-12"/>
		</contour>
	</outline>
</glyph>
<glyph name="at.S" format="2">
	<unicode hex="0040"/>
	<advance width="774"/>
	<outline>
		<contour>
			<point x="359" y="-74" type="curve" smooth="yes"/>
			<point x="424" y="-74"/>
			<point x="481" y="-62"/>
			<point x="536" y="-34" type="curve"/>
			<point x="506" y="32" type="line"/>
			<point x="470" y="12"/>
			<point x="414" y="3"/>
			<point x="368" y="3" type="curve" smooth="yes"/>
			<point x="229" y="3"/>
			<point x="121" y="73"/>
			<point x="121" y="244" type="curve" smooth="yes"/>
			<point x="121" y="433"/>
			<point x="267" y="555"/>
			<point x="420" y="555" type="curve" smooth="yes"/>
			<point x="585" y="555"/>
			<point x="656" y="461"/>
			<point x="656" y="345" type="curve" smooth="yes"/>
			<point x="656" y="224"/>
			<point x="597" y="162"/>
			<point x="547" y="162" type="curve" smooth="yes"/>
			<point x="505" y="162"/>
			<point x="492" y="192"/>
			<point x="507" y="259" type="curve" smooth="yes"/>
			<point x="550" y="445" type="line"/>
			<point x="490" y="445" type="line"/>
			<point x="476" y="404" type="line"/>
			<point x="474" y="404" type="line"/>
			<point x="459" y="439"/>
			<point x="433" y="453"/>
			<point x="401" y="453" type="curve" smooth="yes"/>
			<point x="308" y="453"/>
			<point x="228" y="351"/>
			<point x="228" y="225" type="curve" smooth="yes"/>
			<point x="228" y="142"/>
			<point x="273" y="98"/>
			<point x="330" y="98" type="curve" smooth="yes"/>
			<point x="372" y="98"/>
			<point x="414" y="128"/>
			<point x="441" y="166" type="curve"/>
			<point x="443" y="166" type="line"/>
			<point x="451" y="119"/>
			<point x="485" y="89"/>
			<point x="536" y="89" type="curve" smooth="yes"/>
			<point x="633" y="89"/>
			<point x="725" y="180"/>
			<point x="725" y="349" type="curve" smooth="yes"/>
			<point x="725" y="514"/>
			<point x="610" y="631"/>
			<point x="430" y="631" type="curve" smooth="yes"/>
			<point x="223" y="631"/>
			<point x="50" y="478"/>
			<point x="50" y="241" type="curve" smooth="yes"/>
			<point x="50" y="24"/>
			<point x="189" y="-74"/>
		</contour>
		<contour>
			<point x="357" y="180" type="curve" smooth="yes"/>
			<point x="326" y="180"/>
			<point x="304" y="204"/>
			<point x="304" y="250" type="curve" smooth="yes"/>
			<point x="304" y="312"/>
			<point x="342" y="372"/>
			<point x="399" y="372" type="curve" smooth="yes"/>
			<point x="425" y="372"/>
			<point x="437" y="364"/>
			<point x="452" y="346" type="curve"/>
			<point x="427" y="222" type="line"/>
			<point x="401" y="194"/>
			<point x="378" y="180"/>
		</contour>
	</outline>
</glyph>
<glyph name="E" format="2">
	<unicode hex="0045"/>
	<advance width="538"/>
	<outline>
		<contour>
			<point x="83" y="0" type="line"/>
			<point x="487" y="0" type="line"/>
			<point x="487" y="98" type="line"/>
			<point x="199" y="98" type="line"/>
			<point x="199" y="291" type="line"/>
			<point x="434" y="291" type="line"/>
			<point x="434" y="389" type="line"/>
			<point x="199" y="389" type="line"/>
			<point x="199" y="556" type="line"/>
			<point x="477" y="556" type="line"/>
			<point x="477" y="654" type="line"/>
			<point x="83" y="654" type="line"/>
		</contour>
	</outline>
	<anchor name="aboveUC" x="287" y="674"/>
	<anchor name="belowLC" x="290" y="-20"/>
	<anchor name="ogonekUC" x="391" y="0"/>
	<anchor name="baseLC" x="288" y="0"/>
</glyph>
<glyph name="I" format="2">
	<unicode hex="0049"/>
	<advance width="282"/>
	<outline>
		<contour>
			<point x="83" y="0" type="line"/>
			<point x="199" y="0" type="line"/>
			<point x="199" y="654" type="line"/>
			<point x="83" y="654" type="line"/>
		</contour>
	</outline>
	<anchor name="aboveUC" x="141" y="674"/>
	<anchor name="belowLC" x="141" y="-20"/>
	<anchor name="ogonekUC" x="120" y="0"/>
	<anchor name="baseLC" x="142" y="0"/>
</glyph>
<glyph name="L" format="2">
	<unicode hex="004C"/>
	<advance width="502"/>
	<outline>
		<contour>
			<point x="83" y="0" type="line"/>
			<point x="471" y="0" type="line"/>
			<point x="471" y="98" type="line"/>
			<point x="199" y="98" type="line"/>
			<point x="199" y="654" type="line"/>
			<point x="83" y="654" type="line"/>
		</contour>
	</outline>
	<anchor name="aboveUC" x="144" y="674"/>
	<anchor name="belowLC" x="290" y="-20"/>
	<anchor name="center" x="186" y="210"/>
	<anchor name="baseLC" x="266" y="0"/>
</glyph>
<glyph name="T" format="2">
	<unicode hex="0054"/>
	<advance width="546"/>
	<outline>
		<contour>
			<point x="215" y="0" type="line"/>
			<point x="331" y="0" type="line"/>
			<point x="331" y="556" type="line"/>
			<point x="520" y="556" type="line"/>
			<point x="520" y="654" type="line"/>
			<point x="26" y="654" type="line"/>
			<point x="26" y="556" type="line"/>
			<point x="215" y="556" type="line"/>
		</contour>
	</outline>
	<anchor name="aboveUC" x="272" y="674"/>
	<anchor name="belowLC" x="273" y="-20"/>
	<anchor name="baseLC" x="273" y="0"/>
</glyph>
<glyph name="V" format="2">
	<unicode hex="0056"/>
	<advance width="536"/>
	<outline>
		<contour>
			<point x="200" y="0" type="line"/>
			<point x="337" y="0" type="line"/>
			<point x="540" y="654" type="line"/>
			<point x="421" y="654" type="line"/>
			<point x="330" y="325" type="line" smooth="yes"/>
			<point x="310" y="251"/>
			<point x="295" y="187"/>
			<point x="273" y="112" type="curve"/>
			<point x="269" y="112" type="line"/>
			<point x="247" y="187"/>
			<point x="232" y="251"/>
			<point x="211" y="325" type="curve" smooth="yes"/>
			<point x="119" y="654" type="line"/>
			<point x="-4" y="654" type="line"/>
		</contour>
	</outline>
	<anchor name="aboveUC" x="268" y="674"/>
	<anchor name="belowLC" x="267" y="-20"/>
</glyph>
<glyph name="i" format="2">
	<unicode hex="0069"/>
	<advance width="262"/>
	<outline>
		<contour>
			<point x="73" y="0" type="line"/>
			<point x="188" y="0" type="line"/>
			<point x="188" y="491" type="line"/>
			<point x="73" y="491" type="line"/>
		</contour>
		<contour>
			<point x="131" y="577" type="curve" smooth="yes"/>
			<point x="171" y="577"/>
			<point x="199" y="604"/>
			<point x="199" y="643" type="curve" smooth="yes"/>
			<point x="199" y="681"/>
			<point x="171" y="708"/>
			<point x="131" y="708" type="curve" smooth="yes"/>
			<point x="92" y="708"/>
			<point x="63" y="681"/>
			<point x="63" y="643" type="curve" smooth="yes"/>
			<point x="63" y="604"/>
			<point x="92" y="577"/>
		</contour>
	</outline>
	<anchor name="belowLC" x="130" y="-20"/>
	<anchor name="ogonekLC" x="166" y="0"/>
	<anchor name="aboveUC" x="131" y="638"/>
	<anchor name="baseLC" x="131" y="0"/>
</glyph>
<glyph name="cent.S" format="2">
	<unicode hex="00A2"/>
	<advance width="513"/>
	<outline>
		<contour>
			<point x="318" y="31" type="curve" smooth="yes"/>
			<point x="381" y="31"/>
			<point x="436" y="54"/>
			<point x="482" y="91" type="curve"/>
			<point x="435" y="173" type="line"/>
			<point x="400" y="148"/>
			<point x="362" y="133"/>
			<point x="322" y="133" type="curve" smooth="yes"/>
			<point x="230" y="133"/>
			<point x="163" y="182"/>
			<point x="163" y="282" type="curve" smooth="yes"/>
			<point x="163" y="378"/>
			<point x="231" y="425"/>
			<point x="314" y="425" type="curve" smooth="yes"/>
			<point x="354" y="425"/>
			<point x="385" y="415"/>
			<point x="422" y="390" type="curve"/>
			<point x="470" y="472" type="line"/>
			<point x="424" y="508"/>
			<point x="372" y="527"/>
			<point x="311" y="527" type="curve" smooth="yes"/>
			<point x="173" y="527"/>
			<point x="66" y="443"/>
			<point x="66" y="279" type="curve" smooth="yes"/>
			<point x="66" y="115"/>
			<point x="172" y="31"/>
		</contour>
		<contour>
			<point x="270" y="-66" type="line"/>
			<point x="337" y="-66" type="line"/>
			<point x="337" y="626" type="line"/>
			<point x="270" y="626" type="line"/>
		</contour>
	</outline>
</glyph>
<glyph name="cent" format="2">
	<unicode hex="00A2"/>
	<advance width="513"/>
	<outline>
		<contour>
			<point x="304" y="60" type="curve" smooth="yes"/>
			<point x="372" y="60"/>
			<point x="428" y="87"/>
			<point x="471" y="126" type="curve"/>
			<point x="424" y="196" type="line"/>
			<point x="393" y="170"/>
			<point x="355" y="154"/>
			<point x="312" y="154" type="curve" smooth="yes"/>
			<point x="230" y="154"/>
			<point x="173" y="215"/>
			<point x="173" y="308" type="curve" smooth="yes"/>
			<point x="173" y="402"/>
			<point x="232" y="463"/>
			<point x="314" y="463" type="curve" smooth="yes"/>
			<point x="354" y="463"/>
			<point x="384" y="450"/>
			<point x="410" y="429" type="curve"/>
			<point x="463" y="497" type="line"/>
			<point x="426" y="533"/>
			<point x="376" y="557"/>
			<point x="308" y="557" type="curve" smooth="yes"/>
			<point x="178" y="557"/>
			<point x="62" y="467"/>
			<point x="62" y="308" type="curve" smooth="yes"/>
			<point x="62" y="150"/>
			<point x="167" y="60"/>
		</contour>
		<contour>
			<point x="269" y="-37" type="line"/>
			<point x="335" y="-37" type="line"/>
			<point x="335" y="654" type="line"/>
			<point x="269" y="654" type="line"/>
		</contour>
	</outline>
</glyph>
<glyph name="sterling.S" format="2">
	<unicode hex="00A3"/>
	<advance width="513"/>
	<outline>
		<contour>
			<point x="51" y="0" type="line"/>
			<point x="476" y="0" type="line"/>
			<point x="476" y="97" type="line"/>
			<point x="206" y="97" type="line"/>
			<point x="206" y="101" type="line"/>
			<point x="236" y="136"/>
			<point x="252" y="175"/>
			<point x="252" y="227" type="curve" smooth="yes"/>
			<point x="252" y="286"/>
			<point x="211" y="327"/>
			<point x="211" y="383" type="curve" smooth="yes"/>
			<point x="211" y="440"/>
			<point x="252" y="469"/>
			<point x="307" y="469" type="curve" smooth="yes"/>
			<point x="346" y="469"/>
			<point x="375" y="458"/>
			<point x="417" y="432" type="curve"/>
			<point x="464" y="514" type="line"/>
			<point x="415" y="555"/>
			<point x="361" y="571"/>
			<point x="297" y="571" type="curve" smooth="yes"/>
			<point x="188" y="571"/>
			<point x="108" y="514"/>
			<point x="108" y="406" type="curve" smooth="yes"/>
			<point x="108" y="342"/>
			<point x="158" y="290"/>
			<point x="158" y="229" type="curve" smooth="yes"/>
			<point x="158" y="161"/>
			<point x="115" y="109"/>
			<point x="51" y="77" type="curve"/>
		</contour>
		<contour>
			<point x="53" y="242" type="line"/>
			<point x="393" y="242" type="line"/>
			<point x="393" y="316" type="line"/>
			<point x="120" y="316" type="line"/>
			<point x="53" y="312" type="line"/>
		</contour>
	</outline>
</glyph>
<glyph name="yen.S" format="2">
	<unicode hex="00A5"/>
	<advance width="513"/>
	<outline>
		<contour>
			<point x="198" y="0" type="line"/>
			<point x="314" y="0" type="line"/>
			<point x="314" y="137" type="line"/>
			<point x="472" y="137" type="line"/>
			<point x="472" y="198" type="line"/>
			<point x="314" y="198" type="line"/>
			<point x="314" y="257" type="line"/>
			<point x="472" y="257" type="line"/>
			<point x="472" y="318" type="line"/>
			<point x="340" y="318" type="line"/>
			<point x="495" y="559" type="line"/>
			<point x="378" y="559" type="line"/>
			<point x="318" y="454" type="line" smooth="yes"/>
			<point x="298" y="413"/>
			<point x="280" y="378"/>
			<point x="260" y="334" type="curve"/>
			<point x="256" y="334" type="line"/>
			<point x="235" y="378"/>
			<point x="217" y="413"/>
			<point x="197" y="454" type="curve" smooth="yes"/>
			<point x="138" y="559" type="line"/>
			<point x="18" y="559" type="line"/>
			<point x="172" y="318" type="line"/>
			<point x="41" y="318" type="line"/>
			<point x="41" y="257" type="line"/>
			<point x="198" y="257" type="line"/>
			<point x="198" y="198" type="line"/>
			<point x="41" y="198" type="line"/>
			<point x="41" y="137" type="line"/>
			<point x="198" y="137" type="line"/>
		</contour>
	</outline>
</glyph>
<glyph name="copyright.S" format="2">
	<unicode hex="00A9"/>
	<advance width="747"/>
	<outline>
		<contour>
			<point x="374" y="-52" type="curve" smooth="yes"/>
			<point x="553" y="-52"/>
			<point x="699" y="75"/>
			<point x="699" y="280" type="curve" smooth="yes"/>
			<point x="699" y="485"/>
			<point x="553" y="611"/>
			<point x="374" y="611" type="curve" smooth="yes"/>
			<point x="194" y="611"/>
			<point x="48" y="486"/>
			<point x="48" y="280" type="curve" smooth="yes"/>
			<point x="48" y="75"/>
			<point x="194" y="-52"/>
		</contour>
		<contour>
			<point x="374" y="4" type="curve" smooth="yes"/>
			<point x="219" y="4"/>
			<point x="100" y="114"/>
			<point x="100" y="280" type="curve" smooth="yes"/>
			<point x="100" y="447"/>
			<point x="219" y="555"/>
			<point x="374" y="555" type="curve" smooth="yes"/>
			<point x="528" y="555"/>
			<point x="647" y="447"/>
			<point x="647" y="280" type="curve" smooth="yes"/>
			<point x="647" y="114"/>
			<point x="528" y="4"/>
		</contour>
		<contour>
			<point x="384" y="86" type="curve" smooth="yes"/>
			<point x="437" y="86"/>
			<point x="473" y="101"/>
			<point x="510" y="135" type="curve"/>
			<point x="473" y="198" type="line"/>
			<point x="444" y="176"/>
			<point x="424" y="166"/>
			<point x="388" y="166" type="curve" smooth="yes"/>
			<point x="322" y="166"/>
			<point x="277" y="209"/>
			<point x="277" y="280" type="curve" smooth="yes"/>
			<point x="277" y="351"/>
			<point x="322" y="394"/>
			<point x="386" y="394" type="curve" smooth="yes"/>
			<point x="416" y="394"/>
			<point x="436" y="386"/>
			<point x="462" y="366" type="curve"/>
			<point x="500" y="428" type="line"/>
			<point x="468" y="457"/>
			<point x="430" y="474"/>
			<point x="383" y="474" type="curve" smooth="yes"/>
			<point x="280" y="474"/>
			<point x="201" y="402"/>
			<point x="201" y="278" type="curve" smooth="yes"/>
			<point x="201" y="157"/>
			<point x="280" y="86"/>
		</contour>
	</outline>
</glyph>
<glyph name="paragraph.S" format="2">
	<unicode hex="00B6"/>
	<advance width="599"/>
	<outline>
		<contour>
			<point x="387" y="-120" type="line"/>
			<point x="503" y="-120" type="line"/>
			<point x="503" y="559" type="line"/>
			<point x="387" y="559" type="line"/>
		</contour>
		<contour>
			<point x="295" y="117" type="curve" smooth="yes"/>
			<point x="332" y="117" type="line"/>
			<point x="332" y="559" type="line"/>
			<point x="288" y="559" type="line" smooth="yes"/>
			<point x="149" y="559"/>
			<point x="40" y="504"/>
			<point x="40" y="341" type="curve" smooth="yes"/>
			<point x="40" y="189"/>
			<point x="152" y="117"/>
		</contour>
	</outline>
</glyph>
<glyph name="Eth" format="2">
	<unicode hex="00D0"/>
	<advance width="649"/>
	<outline>
		<contour>
			<point x="30" y="311" type="line"/>
			<point x="360" y="311" type="line"/>
			<point x="360" y="370" type="line"/>
			<point x="109" y="370" type="line"/>
			<point x="30" y="366" type="line"/>
		</contour>
		<component base="D" xOffset="24"/>
	</outline>
	<anchor name="aboveUC" x="324" y="674"/>
	<anchor name="belowLC" x="324" y="-20"/>
</glyph>
<glyph name="Hbar" format="2">
	<unicode hex="0126"/>
	<advance width="703"/>
	<outline>
		<contour>
			<point x="22" y="480" type="line"/>
			<point x="679" y="480" type="line"/>
			<point x="679" y="559" type="line"/>
			<point x="108" y="559" type="line"/>
			<point x="22" y="554" type="line"/>
		</contour>
		<component base="H" xOffset="20"/>
	</outline>
</glyph>
<glyph name="hbar" format="2">
	<unicode hex="0127"/>
	<advance width="566"/>
	<outline>
		<contour>
			<point x="81" y="0" type="line"/>
			<point x="196" y="0" type="line"/>
			<point x="196" y="300" type="line"/>
			<point x="237" y="340"/>
			<point x="265" y="362"/>
			<point x="308" y="362" type="curve" smooth="yes"/>
			<point x="362" y="362"/>
			<point x="385" y="331"/>
			<point x="385" y="250" type="curve" smooth="yes"/>
			<point x="385" y="0" type="line"/>
			<point x="500" y="0" type="line"/>
			<point x="500" y="265" type="line" smooth="yes"/>
			<point x="500" y="389"/>
			<point x="454" y="460"/>
			<point x="349" y="460" type="curve" smooth="yes"/>
			<point x="282" y="460"/>
			<point x="233" y="425"/>
			<point x="192" y="386" type="curve"/>
			<point x="196" y="481" type="line"/>
			<point x="196" y="706" type="line"/>
			<point x="81" y="706" type="line"/>
		</contour>
		<contour>
			<point x="4" y="544" type="line"/>
			<point x="372" y="544" type="line"/>
			<point x="372" y="623" type="line"/>
			<point x="87" y="623" type="line"/>
			<point x="4" y="618" type="line"/>
		</contour>
	</outline>
</glyph>
<glyph name="dotlessi" format="2">
	<unicode hex="0131"/>
	<advance width="262"/>
	<outline>
		<contour>
			<point x="73" y="0" type="line"/>
			<point x="188" y="0" type="line"/>
			<point x="188" y="491" type="line"/>
			<point x="73" y="491" type="line"/>
		</contour>
	</outline>
	<anchor name="aboveLC" x="131" y="512"/>
	<anchor name="belowLC" x="130" y="-20"/>
	<anchor name="ogonekLC" x="166" y="0"/>
	<anchor name="baseLC" x="131" y="0"/>
</glyph>
<glyph name="primemod" format="2">
	<unicode hex="02B9"/>
	<advance width="275"/>
	<outline>
		<contour>
			<point x="150" y="446" type="line"/>
			<point x="199" y="604" type="line"/>
			<point x="223" y="710" type="line"/>
			<point x="110" y="720" type="line"/>
			<point x="75" y="451" type="line"/>
		</contour>
	</outline>
</glyph>
<glyph name="acutecmb" format="2">
	<unicode hex="0301"/>
	<outline>
		<contour>
			<point x="-2" y="573" type="line"/>
			<point x="168" y="728" type="line"/>
			<point x="88" y="804" type="line"/>
			<point x="-59" y="630" type="line"/>
		</contour>
	</outline>
	<anchor name="_aboveLC" x="0" y="512"/>
	<anchor name="aboveLC" x="0" y="512"/>
</glyph>
<glyph name="heSheva" format="2">
	<unicode hex="05B0"/>
	<outline>
		<contour>
			<point x="0" y="-159" type="curve" smooth="yes"/>
			<point x="22" y="-159"/>
			<point x="40" y="-143"/>
			<point x="40" y="-118" type="curve" smooth="yes"/>
			<point x="40" y="-95"/>
			<point x="22" y="-78"/>
			<point x="0" y="-78" type="curve" smooth="yes"/>
			<point x="-22" y="-78"/>
			<point x="-40" y="-95"/>
			<point x="-40" y="-118" type="curve" smooth="yes"/>
			<point x="-40" y="-142"/>
			<point x="-22" y="-159"/>
		</contour>
		<contour>
			<point x="0" y="-283" type="curve" smooth="yes"/>
			<point x="22" y="-283"/>
			<point x="40" y="-267"/>
			<point x="40" y="-242" type="curve" smooth="yes"/>
			<point x="40" y="-219"/>
			<point x="22" y="-202"/>
			<point x="0" y="-202" type="curve" smooth="yes"/>
			<point x="-22" y="-202"/>
			<point x="-40" y="-219"/>
			<point x="-40" y="-242" type="curve" smooth="yes"/>
			<point x="-40" y="-266"/>
			<point x="-22" y="-283"/>
		</contour>
	</outline>
	<anchor name="_belowPrimaryHE" x="0" y="-30"/>
	<anchor name="_belowLeftHE" x="-31" y="-30"/>
	<anchor name="_belowRightHE" x="31" y="-30"/>
	<anchor name="belowPrimaryHE" x="-106" y="-30"/>
	<anchor name="_belowSecondaryHE" x="0" y="-30"/>
</glyph>
<glyph name="heHatafSegol" format="2">
	<unicode hex="05B1"/>
	<outline>
		<contour>
			<point x="126" y="-276" type="curve" smooth="yes"/>
			<point x="148" y="-276"/>
			<point x="163" y="-259"/>
			<point x="163" y="-239" type="curve" smooth="yes"/>
			<point x="163" y="-217"/>
			<point x="148" y="-202"/>
			<point x="126" y="-202" type="curve" smooth="yes"/>
			<point x="105" y="-202"/>
			<point x="90" y="-217"/>
			<point x="90" y="-239" type="curve" smooth="yes"/>
			<point x="90" y="-259"/>
			<point x="105" y="-276"/>
		</contour>
		<contour>
			<point x="126" y="-151" type="curve" smooth="yes"/>
			<point x="148" y="-151"/>
			<point x="163" y="-136"/>
			<point x="163" y="-115" type="curve" smooth="yes"/>
			<point x="163" y="-94"/>
			<point x="148" y="-78"/>
			<point x="126" y="-78" type="curve" smooth="yes"/>
			<point x="105" y="-78"/>
			<point x="90" y="-94"/>
			<point x="90" y="-115" type="curve" smooth="yes"/>
			<point x="90" y="-136"/>
			<point x="105" y="-151"/>
		</contour>
		<contour>
			<point x="1" y="-151" type="curve" smooth="yes"/>
			<point x="23" y="-151"/>
			<point x="37" y="-136"/>
			<point x="37" y="-115" type="curve" smooth="yes"/>
			<point x="37" y="-94"/>
			<point x="23" y="-78"/>
			<point x="1" y="-78" type="curve" smooth="yes"/>
			<point x="-19" y="-78"/>
			<point x="-36" y="-94"/>
			<point x="-36" y="-115" type="curve" smooth="yes"/>
			<point x="-36" y="-136"/>
			<point x="-19" y="-151"/>
		</contour>
		<contour>
			<point x="-61" y="-276" type="curve" smooth="yes"/>
			<point x="-42" y="-276"/>
			<point x="-27" y="-259"/>
			<point x="-27" y="-239" type="curve" smooth="yes"/>
			<point x="-27" y="-217"/>
			<point x="-42" y="-202"/>
			<point x="-61" y="-202" type="curve" smooth="yes"/>
			<point x="-83" y="-202"/>
			<point x="-99" y="-217"/>
			<point x="-99" y="-239" type="curve" smooth="yes"/>
			<point x="-99" y="-259"/>
			<point x="-83" y="-276"/>
		</contour>
		<contour>
			<point x="-126" y="-151" type="curve" smooth="yes"/>
			<point x="-105" y="-151"/>
			<point x="-92" y="-136"/>
			<point x="-92" y="-115" type="curve" smooth="yes"/>
			<point x="-92" y="-94"/>
			<point x="-105" y="-78"/>
			<point x="-126" y="-78" type="curve" smooth="yes"/>
			<point x="-147" y="-78"/>
			<point x="-162" y="-94"/>
			<point x="-162" y="-115" type="curve" smooth="yes"/>
			<point x="-162" y="-136"/>
			<point x="-147" y="-151"/>
		</contour>
	</outline>
	<anchor name="_belowPrimaryHE" x="0" y="-30"/>
	<anchor name="_belowLeftHE" x="-144" y="-30"/>
	<anchor name="belowPrimaryHE" x="-235" y="-30"/>
	<anchor name="_belowSecondaryHE" x="70" y="-30"/>
</glyph>
<glyph name="heHiriq" format="2">
	<unicode hex="05B4"/>
	<outline>
		<contour>
			<point x="0" y="-159" type="curve" smooth="yes"/>
			<point x="22" y="-159"/>
			<point x="40" y="-143"/>
			<point x="40" y="-118" type="curve" smooth="yes"/>
			<point x="40" y="-95"/>
			<point x="22" y="-78"/>
			<point x="0" y="-78" type="curve" smooth="yes"/>
			<point x="-22" y="-78"/>
			<point x="-40" y="-95"/>
			<point x="-40" y="-118" type="curve" smooth="yes"/>
			<point x="-40" y="-142"/>
			<point x="-22" y="-159"/>
		</contour>
	</outline>
	<anchor name="_belowPrimaryHE" x="0" y="-30"/>
	<anchor name="_belowLeftHE" x="-31" y="-30"/>
	<anchor name="_belowRightHE" x="31" y="-30"/>
	<anchor name="belowPrimaryHE" x="-106" y="-30"/>
	<anchor name="_belowSecondaryHE" x="0" y="-30"/>
	<guideline y="-133" identifier="4QcKMXi29o"/>
</glyph>
<glyph name="heTsere" format="2">
	<unicode hex="05B5"/>
	<outline>
		<contour>
			<point x="-65" y="-159" type="curve" smooth="yes"/>
			<point x="-43" y="-159"/>
			<point x="-25" y="-143"/>
			<point x="-25" y="-118" type="curve" smooth="yes"/>
			<point x="-25" y="-95"/>
			<point x="-43" y="-78"/>
			<point x="-65" y="-78" type="curve" smooth="yes"/>
			<point x="-87" y="-78"/>
			<point x="-106" y="-95"/>
			<point x="-106" y="-118" type="curve" smooth="yes"/>
			<point x="-106" y="-142"/>
			<point x="-87" y="-159"/>
		</contour>
		<contour>
			<point x="64" y="-159" type="curve" smooth="yes"/>
			<point x="86" y="-159"/>
			<point x="104" y="-143"/>
			<point x="104" y="-118" type="curve" smooth="yes"/>
			<point x="104" y="-95"/>
			<point x="86" y="-78"/>
			<point x="64" y="-78" type="curve" smooth="yes"/>
			<point x="42" y="-78"/>
			<point x="24" y="-95"/>
			<point x="24" y="-118" type="curve" smooth="yes"/>
			<point x="24" y="-142"/>
			<point x="42" y="-159"/>
		</contour>
	</outline>
	<anchor name="_belowPrimaryHE" x="0" y="-30"/>
	<anchor name="_belowLeftHE" x="-94" y="-30"/>
	<anchor name="_belowRightHE" x="94" y="-30"/>
	<anchor name="belowPrimaryHE" x="-172" y="-30"/>
	<anchor name="_belowSecondaryHE" x="0" y="-30"/>
</glyph>
<glyph name="heQamats" format="2">
	<unicode hex="05B8"/>
	<outline>
		<contour>
			<point x="-26" y="-241" type="line"/>
			<point x="26" y="-241" type="line"/>
			<point x="26" y="-141" type="line"/>
			<point x="100" y="-141" type="line"/>
			<point x="100" y="-89" type="line"/>
			<point x="-100" y="-89" type="line"/>
			<point x="-100" y="-141" type="line"/>
			<point x="-26" y="-141" type="line"/>
		</contour>
	</outline>
	<anchor name="_belowPrimaryHE" x="0" y="-25"/>
	<anchor name="_belowLeftHE" x="-104" y="-25"/>
	<anchor name="_belowRightHE" x="104" y="-25"/>
	<anchor name="belowPrimaryHE" x="-172" y="-25"/>
	<anchor name="_belowSecondaryHE" x="0" y="-25"/>
	<guideline y="46" identifier="Ota23jXeoc"/>
	<guideline x="-87" identifier="sFmUGK18RC"/>
	<guideline x="-172" identifier="prZ02GHauW"/>
</glyph>
<glyph name="heQubuts" format="2">
	<unicode hex="05BB"/>
	<outline>
		<contour>
			<point x="-77" y="-150" type="curve" smooth="yes"/>
			<point x="-56" y="-150"/>
			<point x="-39" y="-134"/>
			<point x="-39" y="-111" type="curve" smooth="yes"/>
			<point x="-39" y="-90"/>
			<point x="-56" y="-73"/>
			<point x="-77" y="-73" type="curve" smooth="yes"/>
			<point x="-100" y="-73"/>
			<point x="-116" y="-90"/>
			<point x="-116" y="-111" type="curve" smooth="yes"/>
			<point x="-116" y="-135"/>
			<point x="-100" y="-150"/>
		</contour>
		<contour>
			<point x="0" y="-239" type="curve" smooth="yes"/>
			<point x="22" y="-239"/>
			<point x="39" y="-221"/>
			<point x="39" y="-201" type="curve" smooth="yes"/>
			<point x="39" y="-178"/>
			<point x="22" y="-162"/>
			<point x="0" y="-162" type="curve" smooth="yes"/>
			<point x="-22" y="-162"/>
			<point x="-39" y="-178"/>
			<point x="-39" y="-201" type="curve" smooth="yes"/>
			<point x="-39" y="-221"/>
			<point x="-22" y="-239"/>
		</contour>
		<contour>
			<point x="77" y="-330" type="curve" smooth="yes"/>
			<point x="97" y="-330"/>
			<point x="114" y="-316"/>
			<point x="114" y="-292" type="curve" smooth="yes"/>
			<point x="114" y="-271"/>
			<point x="97" y="-254"/>
			<point x="77" y="-254" type="curve" smooth="yes"/>
			<point x="55" y="-254"/>
			<point x="38" y="-271"/>
			<point x="38" y="-292" type="curve" smooth="yes"/>
			<point x="38" y="-316"/>
			<point x="55" y="-330"/>
		</contour>
	</outline>
	<anchor name="_belowPrimaryHE" x="0" y="-30"/>
	<anchor name="_belowLeftHE" x="-112" y="-30"/>
	<anchor name="_belowRightHE" x="65" y="-30"/>
	<anchor name="belowPrimaryHE" x="-182" y="-30"/>
	<anchor name="_belowSecondaryHE" x="0" y="-30"/>
	<guideline x="-188" identifier="q1OXs8zNLH"/>
</glyph>
<glyph name="heDagesh" format="2">
	<unicode hex="05BC"/>
	<outline>
		<contour>
			<point x="0" y="224" type="curve" smooth="yes"/>
			<point x="22" y="224"/>
			<point x="40" y="239"/>
			<point x="40" y="264" type="curve" smooth="yes"/>
			<point x="40" y="288"/>
			<point x="22" y="304"/>
			<point x="0" y="304" type="curve" smooth="yes"/>
			<point x="-22" y="304"/>
			<point x="-40" y="288"/>
			<point x="-40" y="264" type="curve" smooth="yes"/>
			<point x="-40" y="240"/>
			<point x="-22" y="224"/>
		</contour>
	</outline>
	<anchor name="_centerHE" x="0" y="264"/>
	<anchor name="centerSecondaryHE" x="0" y="208"/>
	<anchor name="_centerSecondaryHE" x="0" y="351"/>
	<guideline y="285" identifier="znpAucETLd"/>
</glyph>
<glyph name="heMeteg" format="2">
	<unicode hex="05BD"/>
	<outline>
		<contour>
			<point x="-18" y="-269" type="line"/>
			<point x="18" y="-269" type="line"/>
			<point x="18" y="-86" type="line"/>
			<point x="-18" y="-86" type="line"/>
		</contour>
	</outline>
	<anchor name="_belowPrimaryHE" x="0" y="-30"/>
	<anchor name="_belowLeftHE" x="-23" y="-30"/>
	<anchor name="_belowRightHE" x="23" y="-30"/>
	<anchor name="_belowSecondaryHE" x="0" y="-30"/>
</glyph>
<glyph name="heMaqaf" format="2">
	<unicode hex="05BE"/>
	<advance width="327"/>
	<outline>
		<contour>
			<point x="34" y="412" type="line"/>
			<point x="293" y="412" type="line"/>
			<point x="293" y="523" type="line"/>
			<point x="34" y="523" type="line"/>
		</contour>
	</outline>
</glyph>
<glyph name="heRafe" format="2">
	<unicode hex="05BF"/>
	<outline>
		<contour>
			<point x="-107" y="606" type="line"/>
			<point x="107" y="606" type="line"/>
			<point x="107" y="653" type="line"/>
			<point x="-107" y="653" type="line"/>
		</contour>
	</outline>
	<anchor name="_aboveHE" x="0" y="551"/>
</glyph>
<glyph name="hePaseq" format="2">
	<unicode hex="05C0"/>
	<advance width="297"/>
	<outline>
		<contour>
			<point x="100" y="-106" type="line"/>
			<point x="184" y="-106" type="line"/>
			<point x="184" y="636" type="line"/>
			<point x="100" y="636" type="line"/>
		</contour>
	</outline>
</glyph>
<glyph name="heQamatsQatan" format="2">
	<unicode hex="05C7"/>
	<outline>
		<contour>
			<point x="-26" y="-305" type="line"/>
			<point x="26" y="-305" type="line"/>
			<point x="26" y="-141" type="line"/>
			<point x="104" y="-141" type="line"/>
			<point x="104" y="-89" type="line"/>
			<point x="-104" y="-89" type="line"/>
			<point x="-104" y="-141" type="line"/>
			<point x="-26" y="-141" type="line"/>
		</contour>
	</outline>
	<anchor name="_belowPrimaryHE" x="0" y="-25"/>
	<anchor name="_belowLeftHE" x="-104" y="-25"/>
	<anchor name="_belowRightHE" x="104" y="-25"/>
	<anchor name="belowPrimaryHE" x="-158" y="-25"/>
	<anchor name="_belowSecondaryHE" x="0" y="-25"/>
	<guideline y="46" identifier="0QQY0Nsl6b"/>
</glyph>
<glyph name="heAlef" format="2">
	<unicode hex="05D0"/>
	<advance width="618"/>
	<outline>
		<contour>
			<point x="444" y="181" type="line"/>
			<point x="536" y="272"/>
			<point x="582" y="350"/>
			<point x="582" y="434" type="curve" smooth="yes"/>
			<point x="582" y="523"/>
			<point x="537" y="559"/>
			<point x="435" y="559" type="curve" smooth="yes"/>
			<point x="358" y="559" type="line"/>
			<point x="358" y="459" type="line"/>
			<point x="387" y="459" type="line" smooth="yes"/>
			<point x="442" y="459"/>
			<point x="462" y="441"/>
			<point x="462" y="396" type="curve" smooth="yes"/>
			<point x="462" y="354"/>
			<point x="434" y="297"/>
			<point x="382" y="240" type="curve"/>
		</contour>
		<contour>
			<point x="74" y="0" type="curve"/>
			<point x="198" y="0" type="line"/>
			<point x="194" y="32"/>
			<point x="190" y="63"/>
			<point x="190" y="92" type="curve" smooth="yes"/>
			<point x="190" y="194"/>
			<point x="202" y="274"/>
			<point x="240" y="362" type="curve"/>
			<point x="169" y="386" type="line"/>
			<point x="112" y="303"/>
			<point x="72" y="190"/>
			<point x="72" y="52" type="curve" smooth="yes"/>
			<point x="72" y="34"/>
			<point x="72" y="18"/>
		</contour>
		<contour>
			<point x="488" y="-9" type="curve"/>
			<point x="606" y="20" type="line"/>
			<point x="447" y="175"/>
			<point x="260" y="381"/>
			<point x="165" y="566" type="curve"/>
			<point x="48" y="542" type="line"/>
			<point x="161" y="352"/>
			<point x="343" y="127"/>
		</contour>
	</outline>
	<anchor name="aboveHE" x="322" y="590"/>
	<anchor name="belowPrimaryHE" x="314" y="-25"/>
	<anchor name="aboveLeftHE" x="28" y="590"/>
	<anchor name="centerHE" x="266" y="102"/>
</glyph>
<glyph name="heBet" format="2">
	<unicode hex="05D1"/>
	<advance width="541"/>
	<outline>
		<contour>
			<point x="48" y="0" type="line"/>
			<point x="503" y="0" type="line"/>
			<point x="503" y="111" type="line"/>
			<point x="48" y="111" type="line"/>
		</contour>
		<contour>
			<point x="441" y="0" type="line"/>
			<point x="450" y="104"/>
			<point x="456" y="190"/>
			<point x="456" y="301" type="curve" smooth="yes"/>
			<point x="456" y="484"/>
			<point x="380" y="559"/>
			<point x="231" y="559" type="curve" smooth="yes"/>
			<point x="67" y="559" type="line"/>
			<point x="67" y="444" type="line"/>
			<point x="180" y="444" type="line" smooth="yes"/>
			<point x="308" y="444"/>
			<point x="356" y="392"/>
			<point x="356" y="238" type="curve" smooth="yes"/>
			<point x="356" y="191"/>
			<point x="354" y="156"/>
			<point x="351" y="111" type="curve"/>
		</contour>
	</outline>
	<anchor name="aboveHE" x="222" y="554"/>
	<anchor name="belowPrimaryHE" x="207" y="-30"/>
	<anchor name="centerHE" x="192" y="264"/>
	<anchor name="aboveLeftHE" x="-3" y="554"/>
</glyph>
<glyph name="heGimel" format="2">
	<unicode hex="05D2"/>
	<advance width="406"/>
	<outline>
		<contour>
			<point x="234" y="0" type="line"/>
			<point x="350" y="0" type="line"/>
			<point x="315" y="401" type="line" smooth="yes"/>
			<point x="306" y="504"/>
			<point x="260" y="559"/>
			<point x="152" y="559" type="curve" smooth="yes"/>
			<point x="68" y="559" type="line"/>
			<point x="68" y="459" type="line"/>
			<point x="114" y="459" type="line" smooth="yes"/>
			<point x="171" y="459"/>
			<point x="202" y="431"/>
			<point x="207" y="363" type="curve" smooth="yes"/>
		</contour>
		<contour>
			<point x="48" y="-8" type="line"/>
			<point x="158" y="-3"/>
			<point x="247" y="82"/>
			<point x="253" y="158" type="curve"/>
			<point x="237" y="228" type="line"/>
			<point x="224" y="152"/>
			<point x="143" y="105"/>
			<point x="48" y="99" type="curve"/>
		</contour>
	</outline>
	<anchor name="aboveHE" x="196" y="590"/>
	<anchor name="belowPrimaryHE" x="194" y="-25"/>
	<anchor name="centerHE" x="137" y="294"/>
	<anchor name="aboveLeftHE" x="49" y="590"/>
	<anchor name="belowPrimaryHECXT" x="218" y="-25"/>
</glyph>
<glyph name="heDalet" format="2">
	<unicode hex="05D3"/>
	<advance width="511"/>
	<outline>
		<contour>
			<point x="10" y="444" type="line"/>
			<point x="473" y="444" type="line"/>
			<point x="473" y="559" type="line"/>
			<point x="10" y="559" type="line"/>
		</contour>
		<contour>
			<point x="280" y="0" type="line"/>
			<point x="380" y="0" type="line"/>
			<point x="380" y="444" type="line"/>
			<point x="297" y="444" type="line"/>
			<point x="286" y="407"/>
			<point x="280" y="368"/>
			<point x="280" y="318" type="curve" smooth="yes"/>
		</contour>
	</outline>
	<anchor name="aboveHE" x="232" y="554"/>
	<anchor name="belowSecondaryHE" x="310" y="-30"/>
	<anchor name="centerHE" x="145" y="216"/>
	<anchor name="aboveLeftHE" x="-6" y="554"/>
</glyph>
<glyph name="heHe" format="2">
	<unicode hex="05D4"/>
	<advance width="652"/>
	<outline>
		<contour>
			<point x="468" y="0" type="line"/>
			<point x="568" y="0" type="line"/>
			<point x="568" y="351" type="line" smooth="yes"/>
			<point x="568" y="502"/>
			<point x="490" y="559"/>
			<point x="374" y="559" type="curve" smooth="yes"/>
			<point x="76" y="559" type="line"/>
			<point x="76" y="444" type="line"/>
			<point x="328" y="444" type="line" smooth="yes"/>
			<point x="414" y="444"/>
			<point x="468" y="411"/>
			<point x="468" y="300" type="curve" smooth="yes"/>
		</contour>
		<contour>
			<point x="102" y="0" type="line"/>
			<point x="202" y="0" type="line"/>
			<point x="202" y="324" type="line"/>
			<point x="119" y="324" type="line"/>
			<point x="108" y="287"/>
			<point x="102" y="248"/>
			<point x="102" y="198" type="curve" smooth="yes"/>
		</contour>
	</outline>
	<anchor name="aboveHE" x="274" y="554"/>
	<anchor name="belowPrimaryHE" x="284" y="-30"/>
	<anchor name="centerHE" x="284" y="216"/>
	<anchor name="aboveLeftHE" x="-6" y="554"/>
</glyph>
<glyph name="heVav" format="2">
	<unicode hex="05D5"/>
	<advance width="341"/>
	<outline>
		<contour>
			<point x="143" y="0" type="line"/>
			<point x="258" y="0" type="line"/>
			<point x="258" y="379" type="line" smooth="yes"/>
			<point x="258" y="514"/>
			<point x="195" y="559"/>
			<point x="92" y="559" type="curve" smooth="yes"/>
			<point x="16" y="559" type="line"/>
			<point x="16" y="459" type="line"/>
			<point x="31" y="459" type="line" smooth="yes"/>
			<point x="103" y="459"/>
			<point x="143" y="436"/>
			<point x="143" y="343" type="curve" smooth="yes"/>
		</contour>
	</outline>
	<anchor name="aboveHE" x="138" y="590"/>
	<anchor name="belowSecondaryHE" x="196" y="-25"/>
	<anchor name="centerHE" x="46" y="236"/>
	<anchor name="holamHE" x="0" y="590"/>
	<anchor name="aboveLeftHE" x="138" y="590"/>
</glyph>
<glyph name="heZayin" format="2">
	<unicode hex="05D6"/>
	<advance width="380"/>
	<outline>
		<contour>
			<point x="10" y="444" type="line"/>
			<point x="338" y="444" type="line"/>
			<point x="338" y="560" type="line"/>
			<point x="10" y="560" type="line"/>
		</contour>
		<contour>
			<point x="145" y="0" type="line"/>
			<point x="245" y="0" type="line"/>
			<point x="245" y="444" type="line"/>
			<point x="162" y="444" type="line"/>
			<point x="151" y="407"/>
			<point x="145" y="368"/>
			<point x="145" y="318" type="curve" smooth="yes"/>
		</contour>
	</outline>
</glyph>
<glyph name="heHet" format="2">
	<unicode hex="05D7"/>
	<advance width="690"/>
	<outline>
		<contour>
			<point x="506" y="0" type="line"/>
			<point x="606" y="0" type="line"/>
			<point x="606" y="351" type="line" smooth="yes"/>
			<point x="606" y="502"/>
			<point x="528" y="559"/>
			<point x="412" y="559" type="curve" smooth="yes"/>
			<point x="46" y="559" type="line"/>
			<point x="46" y="444" type="line"/>
			<point x="366" y="444" type="line" smooth="yes"/>
			<point x="452" y="444"/>
			<point x="506" y="411"/>
			<point x="506" y="300" type="curve" smooth="yes"/>
		</contour>
		<contour>
			<point x="108" y="0" type="line"/>
			<point x="208" y="0" type="line"/>
			<point x="208" y="444" type="line"/>
			<point x="125" y="444" type="line"/>
			<point x="114" y="407"/>
			<point x="108" y="368"/>
			<point x="108" y="318" type="curve" smooth="yes"/>
		</contour>
	</outline>
</glyph>
<glyph name="heTet" format="2">
	<unicode hex="05D8"/>
	<advance width="609"/>
	<outline>
		<contour>
			<point x="318" y="-12" type="curve" smooth="yes"/>
			<point x="462" y="-12"/>
			<point x="569" y="151"/>
			<point x="569" y="374" type="curve" smooth="yes"/>
			<point x="569" y="506"/>
			<point x="528" y="559"/>
			<point x="418" y="559" type="curve" smooth="yes"/>
			<point x="299" y="559" type="line"/>
			<point x="299" y="444" type="line"/>
			<point x="390" y="444" type="line" smooth="yes"/>
			<point x="447" y="444"/>
			<point x="470" y="418"/>
			<point x="470" y="350" type="curve" smooth="yes"/>
			<point x="470" y="206"/>
			<point x="408" y="103"/>
			<point x="328" y="103" type="curve" smooth="yes"/>
			<point x="236" y="103"/>
			<point x="170" y="182"/>
			<point x="162" y="564" type="curve"/>
			<point x="40" y="532" type="line"/>
			<point x="59" y="118"/>
			<point x="168" y="-12"/>
		</contour>
	</outline>
	<anchor name="aboveHE" x="306" y="554"/>
	<anchor name="belowPrimaryHE" x="316" y="-30"/>
	<anchor name="centerHE" x="306" y="276"/>
	<anchor name="aboveLeftHE" x="3" y="554"/>
</glyph>
<glyph name="heYod" format="2">
	<unicode hex="05D9"/>
	<advance width="292"/>
	<outline>
		<contour>
			<point x="160" y="198" type="line"/>
			<point x="206" y="274"/>
			<point x="240" y="358"/>
			<point x="240" y="416" type="curve" smooth="yes"/>
			<point x="240" y="516"/>
			<point x="202" y="559"/>
			<point x="88" y="559" type="curve" smooth="yes"/>
			<point x="10" y="559" type="line"/>
			<point x="10" y="444" type="line"/>
			<point x="50" y="444" type="line" smooth="yes"/>
			<point x="120" y="444"/>
			<point x="140" y="424"/>
			<point x="140" y="382" type="curve" smooth="yes"/>
			<point x="140" y="343"/>
			<point x="111" y="288"/>
			<point x="74" y="238" type="curve"/>
		</contour>
	</outline>
</glyph>
<glyph name="heKafFin" format="2">
	<unicode hex="05DA"/>
	<advance width="494"/>
	<outline>
		<contour>
			<point x="296" y="-174" type="line"/>
			<point x="411" y="-174" type="line"/>
			<point x="411" y="351" type="line" smooth="yes"/>
			<point x="411" y="502"/>
			<point x="333" y="559"/>
			<point x="217" y="559" type="curve" smooth="yes"/>
			<point x="16" y="559" type="line"/>
			<point x="16" y="459" type="line"/>
			<point x="156" y="459" type="line" smooth="yes"/>
			<point x="242" y="459"/>
			<point x="296" y="426"/>
			<point x="296" y="315" type="curve" smooth="yes"/>
		</contour>
	</outline>
	<anchor name="aboveHE" x="200" y="590"/>
	<anchor name="centerSecondaryHE" x="156" y="336"/>
	<anchor name="aboveLeftHE" x="0" y="590"/>
	<anchor name="belowPrimaryHE" x="156" y="-25"/>
	<anchor name="centerHE" x="156" y="236"/>
</glyph>
<glyph name="heKaf" format="2">
	<unicode hex="05DB"/>
	<advance width="587"/>
	<outline>
		<contour>
			<point x="54" y="0" type="line"/>
			<point x="490" y="0" type="line"/>
			<point x="502" y="100"/>
			<point x="510" y="190"/>
			<point x="510" y="301" type="curve" smooth="yes"/>
			<point x="510" y="484"/>
			<point x="417" y="559"/>
			<point x="266" y="559" type="curve" smooth="yes"/>
			<point x="75" y="559" type="line"/>
			<point x="75" y="444" type="line"/>
			<point x="215" y="444" type="line" smooth="yes"/>
			<point x="346" y="444"/>
			<point x="410" y="392"/>
			<point x="410" y="238" type="curve" smooth="yes"/>
			<point x="410" y="192"/>
			<point x="407" y="156"/>
			<point x="402" y="115" type="curve"/>
			<point x="54" y="115" type="line"/>
		</contour>
	</outline>
</glyph>
<glyph name="heLamed" format="2">
	<unicode hex="05DC"/>
	<advance width="487"/>
	<outline>
		<contour>
			<point x="118" y="-12" type="line"/>
			<point x="373" y="97"/>
			<point x="447" y="263"/>
			<point x="447" y="415" type="curve" smooth="yes"/>
			<point x="447" y="516"/>
			<point x="400" y="559"/>
			<point x="255" y="559" type="curve" smooth="yes"/>
			<point x="140" y="559" type="line"/>
			<point x="140" y="733" type="line"/>
			<point x="40" y="733" type="line"/>
			<point x="40" y="444" type="line"/>
			<point x="231" y="444" type="line" smooth="yes"/>
			<point x="306" y="444"/>
			<point x="335" y="428"/>
			<point x="335" y="367" type="curve" smooth="yes"/>
			<point x="335" y="277"/>
			<point x="270" y="173"/>
			<point x="78" y="104" type="curve"/>
		</contour>
	</outline>
	<anchor name="aboveHE" x="239" y="554"/>
	<anchor name="belowLeftHE" x="122" y="-30"/>
	<anchor name="centerHE" x="175" y="291"/>
	<anchor name="aboveLeftHE" x="-71" y="554"/>
</glyph>
<glyph name="heMemFin" format="2">
	<unicode hex="05DD"/>
	<advance width="670"/>
	<outline>
		<contour>
			<point x="148" y="0" type="line"/>
			<point x="587" y="0" type="line"/>
			<point x="587" y="351" type="line" smooth="yes"/>
			<point x="587" y="502"/>
			<point x="509" y="559"/>
			<point x="393" y="559" type="curve" smooth="yes"/>
			<point x="52" y="559" type="line"/>
			<point x="52" y="459" type="line"/>
			<point x="332" y="459" type="line" smooth="yes"/>
			<point x="418" y="459"/>
			<point x="472" y="426"/>
			<point x="472" y="315" type="curve" smooth="yes"/>
			<point x="472" y="100" type="line"/>
			<point x="148" y="100" type="line"/>
		</contour>
		<contour>
			<point x="102" y="0" type="line"/>
			<point x="217" y="0" type="line"/>
			<point x="217" y="459" type="line"/>
			<point x="131" y="459" type="line"/>
			<point x="113" y="424"/>
			<point x="102" y="370"/>
			<point x="102" y="321" type="curve" smooth="yes"/>
		</contour>
	</outline>
	<anchor name="aboveHE" x="332" y="590"/>
	<anchor name="belowPrimaryHE" x="336" y="-25"/>
	<anchor name="centerHE" x="336" y="280"/>
	<anchor name="aboveLeftHE" x="24" y="590"/>
</glyph>
<glyph name="heMem" format="2">
	<unicode hex="05DE"/>
	<advance width="686"/>
	<outline>
		<contour>
			<point x="131" y="278" type="curve"/>
			<point x="176" y="271" type="line"/>
			<point x="192" y="326"/>
			<point x="208" y="401"/>
			<point x="208" y="432" type="curve" smooth="yes"/>
			<point x="208" y="516"/>
			<point x="170" y="559"/>
			<point x="79" y="559" type="curve" smooth="yes"/>
			<point x="32" y="559" type="line"/>
			<point x="32" y="459" type="line"/>
			<point x="64" y="459" type="line" smooth="yes"/>
			<point x="124" y="459"/>
			<point x="146" y="437"/>
			<point x="146" y="397" type="curve" smooth="yes"/>
			<point x="146" y="365"/>
			<point x="141" y="314"/>
		</contour>
		<contour>
			<point x="330" y="0" type="line"/>
			<point x="580" y="0" type="line"/>
			<point x="614" y="110"/>
			<point x="625" y="201"/>
			<point x="625" y="293" type="curve" smooth="yes"/>
			<point x="625" y="492"/>
			<point x="553" y="571"/>
			<point x="412" y="571" type="curve" smooth="yes"/>
			<point x="220" y="571"/>
			<point x="92" y="292"/>
			<point x="92" y="0" type="curve"/>
			<point x="209" y="0" type="line"/>
			<point x="209" y="247"/>
			<point x="285" y="471"/>
			<point x="398" y="471" type="curve" smooth="yes"/>
			<point x="472" y="471"/>
			<point x="505" y="416"/>
			<point x="505" y="279" type="curve" smooth="yes"/>
			<point x="505" y="216"/>
			<point x="501" y="165"/>
			<point x="487" y="99" type="curve"/>
			<point x="330" y="100" type="line"/>
		</contour>
	</outline>
	<anchor name="aboveHE" x="370" y="586"/>
	<anchor name="belowPrimaryHE" x="364" y="-25"/>
	<anchor name="centerHE" x="375" y="280"/>
	<anchor name="aboveLeftHE" x="10" y="590"/>
</glyph>
<glyph name="heNunFin" format="2">
	<unicode hex="05DF"/>
	<advance width="341"/>
	<outline>
		<contour>
			<point x="143" y="-174" type="line"/>
			<point x="258" y="-174" type="line"/>
			<point x="258" y="375" type="line" smooth="yes"/>
			<point x="258" y="513"/>
			<point x="192" y="559"/>
			<point x="82" y="559" type="curve" smooth="yes"/>
			<point x="16" y="559" type="line"/>
			<point x="16" y="459" type="line"/>
			<point x="27" y="459" type="line" smooth="yes"/>
			<point x="102" y="459"/>
			<point x="143" y="436"/>
			<point x="143" y="339" type="curve" smooth="yes"/>
		</contour>
	</outline>
	<anchor name="aboveHE" x="140" y="590"/>
	<anchor name="belowRightHE" x="96" y="-25"/>
	<anchor name="aboveLeftHE" x="0" y="590"/>
</glyph>
<glyph name="heNun" format="2">
	<unicode hex="05E0"/>
	<advance width="440"/>
	<outline>
		<contour>
			<point x="54" y="0" type="line"/>
			<point x="350" y="0" type="line"/>
			<point x="350" y="379" type="line" smooth="yes"/>
			<point x="350" y="514"/>
			<point x="287" y="559"/>
			<point x="184" y="559" type="curve" smooth="yes"/>
			<point x="86" y="559" type="line"/>
			<point x="86" y="444" type="line"/>
			<point x="138" y="444" type="line" smooth="yes"/>
			<point x="210" y="444"/>
			<point x="250" y="421"/>
			<point x="250" y="328" type="curve" smooth="yes"/>
			<point x="250" y="115" type="line"/>
			<point x="54" y="115" type="line"/>
		</contour>
	</outline>
</glyph>
<glyph name="heSamekh" format="2">
	<unicode hex="05E1"/>
	<advance width="605"/>
	<outline>
		<contour>
			<point x="317" y="-12" type="curve" smooth="yes"/>
			<point x="460" y="-12"/>
			<point x="565" y="150"/>
			<point x="565" y="374" type="curve" smooth="yes"/>
			<point x="565" y="506"/>
			<point x="524" y="559"/>
			<point x="414" y="559" type="curve" smooth="yes"/>
			<point x="4" y="559" type="line"/>
			<point x="4" y="444" type="line"/>
			<point x="386" y="444" type="line" smooth="yes"/>
			<point x="443" y="444"/>
			<point x="466" y="418"/>
			<point x="466" y="350" type="curve" smooth="yes"/>
			<point x="466" y="206"/>
			<point x="406" y="103"/>
			<point x="328" y="103" type="curve" smooth="yes"/>
			<point x="245" y="103"/>
			<point x="176" y="202"/>
			<point x="173" y="496" type="curve"/>
			<point x="74" y="464" type="line"/>
			<point x="76" y="138"/>
			<point x="179" y="-12"/>
		</contour>
	</outline>
	<anchor name="aboveHE" x="302" y="554"/>
	<anchor name="belowPrimaryHE" x="312" y="-30"/>
	<anchor name="centerHE" x="302" y="276"/>
	<anchor name="aboveLeftHE" x="-1" y="554"/>
</glyph>
<glyph name="heAyin" format="2">
	<unicode hex="05E2"/>
	<advance width="582"/>
	<outline>
		<contour>
			<point x="195" y="16" type="curve"/>
			<point x="292" y="34" type="line"/>
			<point x="268" y="221"/>
			<point x="200" y="435"/>
			<point x="140" y="565" type="curve"/>
			<point x="38" y="541" type="line"/>
			<point x="99" y="407"/>
			<point x="172" y="199"/>
		</contour>
		<contour>
			<point x="48" y="0" type="line"/>
			<point x="112" y="0" type="line" smooth="yes"/>
			<point x="400" y="0"/>
			<point x="542" y="197"/>
			<point x="542" y="370" type="curve" smooth="yes"/>
			<point x="542" y="506"/>
			<point x="494" y="559"/>
			<point x="367" y="559" type="curve" smooth="yes"/>
			<point x="300" y="559" type="line"/>
			<point x="300" y="443" type="line"/>
			<point x="339" y="443" type="line" smooth="yes"/>
			<point x="413" y="443"/>
			<point x="442" y="417"/>
			<point x="442" y="346" type="curve" smooth="yes"/>
			<point x="442" y="236"/>
			<point x="342" y="110"/>
			<point x="144" y="110" type="curve" smooth="yes"/>
			<point x="48" y="110" type="line"/>
		</contour>
	</outline>
	<anchor name="aboveHE" x="250" y="554"/>
	<anchor name="belowPrimaryHE" x="296" y="-30"/>
	<anchor name="aboveLeftHE" x="-16" y="554"/>
</glyph>
<glyph name="hePeFin" format="2">
	<unicode hex="05E3"/>
	<advance width="589"/>
	<outline>
		<contour>
			<point x="508" y="-200" type="line"/>
			<point x="508" y="351" type="line" smooth="yes"/>
			<point x="508" y="502"/>
			<point x="430" y="559"/>
			<point x="314" y="559" type="curve" smooth="yes"/>
			<point x="66" y="559" type="line"/>
			<point x="66" y="444" type="line"/>
			<point x="268" y="444" type="line" smooth="yes"/>
			<point x="354" y="444"/>
			<point x="408" y="411"/>
			<point x="408" y="300" type="curve" smooth="yes"/>
			<point x="408" y="-200" type="line"/>
		</contour>
		<contour>
			<point x="230" y="191" type="curve" smooth="yes"/>
			<point x="278" y="191" type="line"/>
			<point x="278" y="307" type="line"/>
			<point x="246" y="307" type="line" smooth="yes"/>
			<point x="197" y="307"/>
			<point x="172" y="321"/>
			<point x="172" y="364" type="curve" smooth="yes"/>
			<point x="172" y="410"/>
			<point x="206" y="444"/>
			<point x="256" y="444" type="curve"/>
			<point x="256" y="495" type="line"/>
			<point x="156" y="495"/>
			<point x="72" y="425"/>
			<point x="72" y="329" type="curve" smooth="yes"/>
			<point x="72" y="238"/>
			<point x="125" y="191"/>
		</contour>
	</outline>
</glyph>
<glyph name="hePe" format="2">
	<unicode hex="05E4"/>
	<advance width="611"/>
	<outline>
		<contour>
			<point x="230" y="215" type="curve" smooth="yes"/>
			<point x="278" y="215" type="line"/>
			<point x="278" y="319" type="line"/>
			<point x="246" y="319" type="line" smooth="yes"/>
			<point x="197" y="319"/>
			<point x="172" y="332"/>
			<point x="172" y="374" type="curve" smooth="yes"/>
			<point x="172" y="415"/>
			<point x="201" y="444"/>
			<point x="242" y="444" type="curve"/>
			<point x="242" y="495" type="line"/>
			<point x="149" y="495"/>
			<point x="72" y="430"/>
			<point x="72" y="344" type="curve" smooth="yes"/>
			<point x="72" y="258"/>
			<point x="125" y="215"/>
		</contour>
		<contour>
			<point x="54" y="0" type="line"/>
			<point x="514" y="0" type="line"/>
			<point x="526" y="100"/>
			<point x="534" y="190"/>
			<point x="534" y="301" type="curve" smooth="yes"/>
			<point x="534" y="484"/>
			<point x="441" y="559"/>
			<point x="290" y="559" type="curve" smooth="yes"/>
			<point x="66" y="559" type="line"/>
			<point x="66" y="444" type="line"/>
			<point x="239" y="444" type="line" smooth="yes"/>
			<point x="370" y="444"/>
			<point x="434" y="392"/>
			<point x="434" y="238" type="curve" smooth="yes"/>
			<point x="434" y="192"/>
			<point x="431" y="156"/>
			<point x="426" y="115" type="curve"/>
			<point x="54" y="115" type="line"/>
		</contour>
	</outline>
</glyph>
<glyph name="heTsadiFin" format="2">
	<unicode hex="05E5"/>
	<advance width="546"/>
	<outline>
		<contour>
			<point x="210" y="78" type="line"/>
			<point x="408" y="185"/>
			<point x="506" y="311"/>
			<point x="506" y="428" type="curve" smooth="yes"/>
			<point x="506" y="520"/>
			<point x="464" y="559"/>
			<point x="360" y="559" type="curve" smooth="yes"/>
			<point x="296" y="559" type="line"/>
			<point x="296" y="444" type="line"/>
			<point x="328" y="444" type="line" smooth="yes"/>
			<point x="389" y="444"/>
			<point x="406" y="425"/>
			<point x="406" y="386" type="curve" smooth="yes"/>
			<point x="406" y="317"/>
			<point x="338" y="242"/>
			<point x="140" y="155" type="curve"/>
		</contour>
		<contour>
			<point x="113" y="-200" type="line"/>
			<point x="213" y="-200" type="line"/>
			<point x="213" y="399" type="line" smooth="yes"/>
			<point x="213" y="519"/>
			<point x="152" y="559"/>
			<point x="55" y="559" type="curve" smooth="yes"/>
			<point x="10" y="559" type="line"/>
			<point x="10" y="444" type="line"/>
			<point x="33" y="444" type="line" smooth="yes"/>
			<point x="85" y="444"/>
			<point x="113" y="425"/>
			<point x="113" y="348" type="curve" smooth="yes"/>
		</contour>
	</outline>
	<anchor name="aboveHE" x="230" y="554"/>
	<anchor name="belowLeftHE" x="321" y="-30"/>
	<anchor name="aboveLeftHE" x="1" y="554"/>
</glyph>
<glyph name="heTsadi" format="2">
	<unicode hex="05E6"/>
	<advance width="552"/>
	<outline>
		<contour>
			<point x="48" y="0" type="line"/>
			<point x="499" y="0" type="line"/>
			<point x="519" y="110" type="line"/>
			<point x="48" y="110" type="line"/>
		</contour>
		<contour>
			<point x="444" y="63" type="curve"/>
			<point x="519" y="110" type="line"/>
			<point x="329" y="217"/>
			<point x="203" y="369"/>
			<point x="131" y="566" type="curve"/>
			<point x="10" y="526" type="line"/>
			<point x="94" y="310"/>
			<point x="237" y="170"/>
		</contour>
		<contour>
			<point x="356" y="196" type="line"/>
			<point x="463" y="281"/>
			<point x="512" y="363"/>
			<point x="512" y="434" type="curve" smooth="yes"/>
			<point x="512" y="521"/>
			<point x="470" y="559"/>
			<point x="366" y="559" type="curve" smooth="yes"/>
			<point x="298" y="559" type="line"/>
			<point x="298" y="444" type="line"/>
			<point x="322" y="444" type="line" smooth="yes"/>
			<point x="393" y="444"/>
			<point x="412" y="426"/>
			<point x="412" y="389" type="curve" smooth="yes"/>
			<point x="412" y="352"/>
			<point x="377" y="306"/>
			<point x="306" y="253" type="curve"/>
		</contour>
	</outline>
	<anchor name="aboveHE" x="233" y="554"/>
	<anchor name="belowPrimaryHE" x="243" y="-30"/>
	<anchor name="centerHE" x="99" y="209"/>
	<anchor name="aboveLeftHE" x="-11" y="554"/>
</glyph>
<glyph name="heQof" format="2">
	<unicode hex="05E7"/>
	<advance width="600"/>
	<outline>
		<contour>
			<point x="327" y="-12" type="line"/>
			<point x="480" y="130"/>
			<point x="554" y="266"/>
			<point x="554" y="403" type="curve" smooth="yes"/>
			<point x="554" y="508"/>
			<point x="506" y="559"/>
			<point x="362" y="559" type="curve" smooth="yes"/>
			<point x="76" y="559" type="line"/>
			<point x="76" y="459" type="line"/>
			<point x="331" y="459" type="line" smooth="yes"/>
			<point x="406" y="459"/>
			<point x="435" y="440"/>
			<point x="435" y="368" type="curve" smooth="yes"/>
			<point x="435" y="267"/>
			<point x="382" y="159"/>
			<point x="257" y="55" type="curve"/>
		</contour>
		<contour>
			<point x="102" y="-174" type="line"/>
			<point x="217" y="-174" type="line"/>
			<point x="217" y="338" type="line"/>
			<point x="131" y="338" type="line"/>
			<point x="113" y="303"/>
			<point x="102" y="249"/>
			<point x="102" y="200" type="curve" smooth="yes"/>
		</contour>
	</outline>
	<anchor name="aboveHE" x="304" y="590"/>
	<anchor name="belowLeftHE" x="249" y="-25"/>
	<anchor name="centerHE" x="308" y="308"/>
	<anchor name="aboveLeftHE" x="24" y="590"/>
	<anchor name="belowLeftHECXT" x="326" y="-25"/>
</glyph>
<glyph name="heResh" format="2">
	<unicode hex="05E8"/>
	<advance width="489"/>
	<outline>
		<contour>
			<point x="305" y="0" type="line"/>
			<point x="405" y="0" type="line"/>
			<point x="405" y="351" type="line" smooth="yes"/>
			<point x="405" y="502"/>
			<point x="327" y="559"/>
			<point x="211" y="559" type="curve" smooth="yes"/>
			<point x="10" y="559" type="line"/>
			<point x="10" y="444" type="line"/>
			<point x="165" y="444" type="line" smooth="yes"/>
			<point x="251" y="444"/>
			<point x="305" y="411"/>
			<point x="305" y="300" type="curve" smooth="yes"/>
		</contour>
	</outline>
	<anchor name="aboveHE" x="176" y="554"/>
	<anchor name="belowSecondaryHE" x="332" y="-30"/>
	<anchor name="centerHE" x="150" y="216"/>
	<anchor name="aboveLeftHE" x="-18" y="554"/>
</glyph>
<glyph name="heShin" format="2">
	<unicode hex="05E9"/>
	<advance width="756"/>
	<outline>
		<contour>
			<point x="368" y="-12" type="curve" smooth="yes"/>
			<point x="556" y="-12"/>
			<point x="704" y="148"/>
			<point x="704" y="362" type="curve" smooth="yes"/>
			<point x="704" y="504"/>
			<point x="659" y="559"/>
			<point x="539" y="559" type="curve" smooth="yes"/>
			<point x="510" y="559" type="line"/>
			<point x="510" y="443" type="line"/>
			<point x="535" y="443" type="line" smooth="yes"/>
			<point x="584" y="443"/>
			<point x="604" y="415"/>
			<point x="604" y="338" type="curve" smooth="yes"/>
			<point x="604" y="210"/>
			<point x="495" y="106"/>
			<point x="379" y="106" type="curve" smooth="yes"/>
			<point x="257" y="106"/>
			<point x="188" y="172"/>
			<point x="188" y="335" type="curve" smooth="yes"/>
			<point x="188" y="385" type="line"/>
			<point x="88" y="341" type="line"/>
			<point x="88" y="297" type="line" smooth="yes"/>
			<point x="88" y="85"/>
			<point x="201" y="-12"/>
		</contour>
		<contour>
			<point x="299" y="106" type="line"/>
			<point x="393" y="204"/>
			<point x="452" y="310"/>
			<point x="452" y="420" type="curve" smooth="yes"/>
			<point x="452" y="517"/>
			<point x="420" y="559"/>
			<point x="321" y="559" type="curve" smooth="yes"/>
			<point x="279" y="559" type="line"/>
			<point x="279" y="444" type="line"/>
			<point x="295" y="444" type="line" smooth="yes"/>
			<point x="350" y="444"/>
			<point x="364" y="421"/>
			<point x="364" y="372" type="curve" smooth="yes"/>
			<point x="364" y="304"/>
			<point x="314" y="214"/>
			<point x="228" y="144" type="curve"/>
		</contour>
		<contour>
			<point x="88" y="314" type="line"/>
			<point x="188" y="356" type="line"/>
			<point x="188" y="413" type="line" smooth="yes"/>
			<point x="188" y="527"/>
			<point x="136" y="559"/>
			<point x="44" y="559" type="curve" smooth="yes"/>
			<point x="12" y="559" type="line"/>
			<point x="12" y="444" type="line"/>
			<point x="22" y="444" type="line" smooth="yes"/>
			<point x="69" y="444"/>
			<point x="88" y="433"/>
			<point x="88" y="362" type="curve" smooth="yes"/>
		</contour>
	</outline>
</glyph>
<glyph name="heTav" format="2">
	<unicode hex="05EA"/>
	<advance width="690"/>
	<outline>
		<contour>
			<point x="492" y="0" type="line"/>
			<point x="607" y="0" type="line"/>
			<point x="607" y="351" type="line" smooth="yes"/>
			<point x="607" y="502"/>
			<point x="529" y="559"/>
			<point x="413" y="559" type="curve" smooth="yes"/>
			<point x="80" y="559" type="line"/>
			<point x="80" y="459" type="line"/>
			<point x="352" y="459" type="line" smooth="yes"/>
			<point x="438" y="459"/>
			<point x="492" y="426"/>
			<point x="492" y="315" type="curve" smooth="yes"/>
		</contour>
		<contour>
			<point x="48" y="0" type="line"/>
			<point x="252" y="0" type="line"/>
			<point x="265" y="74" type="line"/>
			<point x="250" y="186"/>
			<point x="249" y="280"/>
			<point x="249" y="377" type="curve" smooth="yes"/>
			<point x="249" y="459" type="line"/>
			<point x="162" y="459" type="line"/>
			<point x="144" y="423"/>
			<point x="134" y="372"/>
			<point x="134" y="324" type="curve" smooth="yes"/>
			<point x="134" y="265"/>
			<point x="138" y="192"/>
			<point x="146" y="100" type="curve"/>
			<point x="48" y="100" type="line"/>
		</contour>
	</outline>
	<anchor name="aboveHE" x="342" y="590"/>
	<anchor name="belowPrimaryHE" x="356" y="-25"/>
	<anchor name="centerHE" x="356" y="236"/>
	<anchor name="aboveLeftHE" x="44" y="590"/>
</glyph>
<glyph name="heGeresh" format="2">
	<unicode hex="05F3"/>
	<advance width="275"/>
	<outline>
		<contour>
			<point x="121" y="345" type="line"/>
			<point x="171" y="413"/>
			<point x="204" y="508"/>
			<point x="204" y="608" type="curve" smooth="yes"/>
			<point x="204" y="622"/>
			<point x="203" y="636"/>
			<point x="202" y="648" type="curve"/>
			<point x="85" y="648" type="line"/>
			<point x="90" y="619"/>
			<point x="92" y="593"/>
			<point x="92" y="568" type="curve" smooth="yes"/>
			<point x="92" y="490"/>
			<point x="82" y="432"/>
			<point x="58" y="366" type="curve"/>
		</contour>
	</outline>
</glyph>
<glyph name="heGershayim" format="2">
	<unicode hex="05F4"/>
	<advance width="448"/>
	<outline>
		<contour>
			<point x="235" y="352" type="line"/>
			<point x="315" y="356" type="line"/>
			<point x="419" y="603" type="line"/>
			<point x="309" y="597" type="line"/>
		</contour>
		<contour>
			<point x="39" y="352" type="line"/>
			<point x="119" y="356" type="line"/>
			<point x="224" y="603" type="line"/>
			<point x="113" y="597" type="line"/>
		</contour>
	</outline>
</glyph>
<glyph name="LTRE" format="2">
	<unicode hex="202A"/>
	<outline>
		<contour>
			<point x="40" y="648" type="line"/>
			<point x="144" y="754" type="line"/>
			<point x="144" y="758" type="line"/>
			<point x="40" y="864" type="line"/>
			<point x="20" y="844" type="line"/>
			<point x="98" y="770" type="line"/>
			<point x="0" y="770" type="line"/>
			<point x="0" y="742" type="line"/>
			<point x="98" y="742" type="line"/>
			<point x="20" y="668" type="line"/>
		</contour>
		<contour>
			<point x="-124" y="742" type="line"/>
			<point x="-42" y="742" type="line"/>
			<point x="-42" y="770" type="line"/>
			<point x="-124" y="770" type="line"/>
		</contour>
	</outline>
</glyph>
<glyph name="fraction.S" format="2">
	<unicode hex="2044"/>
	<advance width="91"/>
	<outline>
		<contour>
			<point x="-158" y="-12" type="line"/>
			<point x="-88" y="-12" type="line"/>
			<point x="249" y="571" type="line"/>
			<point x="179" y="571" type="line"/>
		</contour>
	</outline>
</glyph>
<glyph name="fraction" format="2">
	<unicode hex="2044"/>
	<advance width="91"/>
	<outline>
		<contour>
			<point x="-168" y="-12" type="line"/>
			<point x="-98" y="-12" type="line"/>
			<point x="259" y="666" type="line"/>
			<point x="189" y="666" type="line"/>
		</contour>
	</outline>
</glyph>
<glyph name="newsheqel" format="2">
	<unicode hex="20AA"/>
	<advance width="513"/>
	<outline>
		<contour>
			<point x="19" y="0" type="line"/>
			<point x="109" y="0" type="line"/>
			<point x="109" y="554" type="line"/>
			<point x="181" y="554" type="line" smooth="yes"/>
			<point x="245" y="554"/>
			<point x="284" y="530"/>
			<point x="284" y="450" type="curve" smooth="yes"/>
			<point x="284" y="182" type="line"/>
			<point x="347" y="182" type="line"/>
			<point x="347" y="477" type="line" smooth="yes"/>
			<point x="347" y="594"/>
			<point x="284" y="636"/>
			<point x="186" y="636" type="curve" smooth="yes"/>
			<point x="19" y="636" type="line"/>
		</contour>
		<contour>
			<point x="166" y="0" type="line"/>
			<point x="328" y="0" type="line" smooth="yes"/>
			<point x="429" y="0"/>
			<point x="494" y="43"/>
			<point x="494" y="159" type="curve" smooth="yes"/>
			<point x="494" y="636" type="line"/>
			<point x="404" y="636" type="line"/>
			<point x="404" y="186" type="line" smooth="yes"/>
			<point x="404" y="107"/>
			<point x="362" y="82"/>
			<point x="295" y="82" type="curve" smooth="yes"/>
			<point x="228" y="82" type="line"/>
			<point x="228" y="455" type="line"/>
			<point x="166" y="455" type="line"/>
		</contour>
	</outline>
	<guideline x="256" y="279" angle="90" identifier="51LWLohGsJ"/>
</glyph>
<glyph name="Euro.S" format="2">
	<unicode hex="20AC"/>
	<advance width="513"/>
	<outline>
		<contour>
			<point x="332" y="-12" type="curve" smooth="yes"/>
			<point x="392" y="-12"/>
			<point x="445" y="10"/>
			<point x="490" y="48" type="curve"/>
			<point x="443" y="124" type="line"/>
			<point x="410" y="100"/>
			<point x="374" y="84"/>
			<point x="336" y="84" type="curve" smooth="yes"/>
			<point x="248" y="84"/>
			<point x="183" y="150"/>
			<point x="183" y="281" type="curve" smooth="yes"/>
			<point x="183" y="410"/>
			<point x="249" y="475"/>
			<point x="328" y="475" type="curve" smooth="yes"/>
			<point x="366" y="475"/>
			<point x="394" y="464"/>
			<point x="430" y="440" type="curve"/>
			<point x="478" y="516" type="line"/>
			<point x="433" y="554"/>
			<point x="384" y="571"/>
			<point x="325" y="571" type="curve" smooth="yes"/>
			<point x="191" y="571"/>
			<point x="86" y="472"/>
			<point x="86" y="277" type="curve" smooth="yes"/>
			<point x="86" y="86"/>
			<point x="190" y="-12"/>
		</contour>
		<contour>
			<point x="22" y="188" type="line"/>
			<point x="395" y="188" type="line"/>
			<point x="395" y="250" type="line"/>
			<point x="94" y="250" type="line"/>
			<point x="22" y="245" type="line"/>
		</contour>
		<contour>
			<point x="22" y="309" type="line"/>
			<point x="435" y="309" type="line"/>
			<point x="435" y="371" type="line"/>
			<point x="94" y="371" type="line"/>
			<point x="22" y="366" type="line"/>
		</contour>
	</outline>
</glyph>
<glyph name="ruble" format="2">
	<unicode hex="20BD"/>
	<advance width="513"/>
	<outline>
		<contour>
			<point x="119" y="0" type="line"/>
			<point x="234" y="0" type="line"/>
			<point x="234" y="270" type="line"/>
			<point x="268" y="270" type="line" smooth="yes"/>
			<point x="385" y="270"/>
			<point x="483" y="327"/>
			<point x="483" y="461" type="curve" smooth="yes"/>
			<point x="483" y="585"/>
			<point x="389" y="636"/>
			<point x="268" y="636" type="curve" smooth="yes"/>
			<point x="119" y="636" type="line"/>
		</contour>
		<contour>
			<point x="234" y="332" type="line"/>
			<point x="234" y="546" type="line"/>
			<point x="261" y="546" type="line" smooth="yes"/>
			<point x="333" y="546"/>
			<point x="375" y="518"/>
			<point x="375" y="446" type="curve" smooth="yes"/>
			<point x="375" y="374"/>
			<point x="333" y="332"/>
			<point x="261" y="332" type="curve" smooth="yes"/>
		</contour>
		<contour>
			<point x="39" y="150" type="line"/>
			<point x="420" y="150" type="line"/>
			<point x="420" y="212" type="line"/>
			<point x="119" y="212" type="line"/>
			<point x="39" y="206" type="line"/>
		</contour>
		<contour>
			<point x="39" y="270" type="line"/>
			<point x="164" y="270" type="line"/>
			<point x="164" y="332" type="line"/>
			<point x="119" y="332" type="line"/>
			<point x="39" y="326" type="line"/>
		</contour>
	</outline>
</glyph>
<glyph name="arrowleft.S" format="2">
	<unicode hex="2190"/>
	<advance width="618"/>
	<outline>
		<contour>
			<point x="299" y="11" type="line"/>
			<point x="355" y="74" type="line"/>
			<point x="180" y="233" type="line"/>
			<point x="578" y="233" type="line"/>
			<point x="578" y="326" type="line"/>
			<point x="180" y="326" type="line"/>
			<point x="355" y="484" type="line"/>
			<point x="299" y="548" type="line"/>
			<point x="24" y="281" type="line"/>
			<point x="24" y="277" type="line"/>
		</contour>
	</outline>
</glyph>
<glyph name="arrowup.S" format="2">
	<unicode hex="2191"/>
	<advance width="618"/>
	<outline>
		<contour>
			<point x="262" y="2" type="line"/>
			<point x="355" y="2" type="line"/>
			<point x="355" y="399" type="line"/>
			<point x="514" y="224" type="line"/>
			<point x="577" y="280" type="line"/>
			<point x="311" y="556" type="line"/>
			<point x="307" y="556" type="line"/>
			<point x="40" y="280" type="line"/>
			<point x="104" y="224" type="line"/>
			<point x="262" y="399" type="line"/>
		</contour>
	</outline>
</glyph>
<glyph name="arrowright.S" format="2">
	<unicode hex="2192"/>
	<advance width="618"/>
	<outline>
		<contour>
			<point x="318" y="11" type="line"/>
			<point x="593" y="277" type="line"/>
			<point x="593" y="281" type="line"/>
			<point x="318" y="548" type="line"/>
			<point x="262" y="484" type="line"/>
			<point x="436" y="326" type="line"/>
			<point x="39" y="326" type="line"/>
			<point x="39" y="233" type="line"/>
			<point x="436" y="233" type="line"/>
			<point x="262" y="74" type="line"/>
		</contour>
	</outline>
</glyph>
<glyph name="arrowdown.S" format="2">
	<unicode hex="2193"/>
	<advance width="618"/>
	<outline>
		<contour>
			<point x="307" y="2" type="line"/>
			<point x="311" y="2" type="line"/>
			<point x="577" y="277" type="line"/>
			<point x="514" y="333" type="line"/>
			<point x="355" y="158" type="line"/>
			<point x="355" y="556" type="line"/>
			<point x="262" y="556" type="line"/>
			<point x="262" y="158" type="line"/>
			<point x="104" y="333" type="line"/>
			<point x="40" y="277" type="line"/>
		</contour>
	</outline>
</glyph>
<glyph name="arrowupleft.S" format="2">
	<unicode hex="2196"/>
	<advance width="618"/>
	<outline>
		<contour>
			<point x="464" y="51" type="line"/>
			<point x="529" y="116" type="line"/>
			<point x="248" y="397" type="line"/>
			<point x="484" y="386" type="line"/>
			<point x="489" y="470" type="line"/>
			<point x="107" y="476" type="line"/>
			<point x="104" y="473" type="line"/>
			<point x="110" y="91" type="line"/>
			<point x="194" y="96" type="line"/>
			<point x="183" y="332" type="line"/>
		</contour>
	</outline>
</glyph>
<glyph name="arrowupright.S" format="2">
	<unicode hex="2197"/>
	<advance width="618"/>
	<outline>
		<contour>
			<point x="146" y="50" type="line"/>
			<point x="427" y="331" type="line"/>
			<point x="416" y="95" type="line"/>
			<point x="500" y="90" type="line"/>
			<point x="506" y="473" type="line"/>
			<point x="503" y="476" type="line"/>
			<point x="120" y="470" type="line"/>
			<point x="125" y="386" type="line"/>
			<point x="361" y="397" type="line"/>
			<point x="80" y="116" type="line"/>
		</contour>
	</outline>
</glyph>
<glyph name="arrowdownright.S" format="2">
	<unicode hex="2198"/>
	<advance width="618"/>
	<outline>
		<contour>
			<point x="510" y="82" type="line"/>
			<point x="513" y="85" type="line"/>
			<point x="507" y="468" type="line"/>
			<point x="423" y="463" type="line"/>
			<point x="434" y="227" type="line"/>
			<point x="153" y="508" type="line"/>
			<point x="87" y="442" type="line"/>
			<point x="368" y="161" type="line"/>
			<point x="132" y="172" type="line"/>
			<point x="128" y="88" type="line"/>
		</contour>
	</outline>
</glyph>
<glyph name="arrowdownleft.S" format="2">
	<unicode hex="2199"/>
	<advance width="618"/>
	<outline>
		<contour>
			<point x="115" y="82" type="line"/>
			<point x="497" y="88" type="line"/>
			<point x="492" y="172" type="line"/>
			<point x="256" y="161" type="line"/>
			<point x="537" y="442" type="line"/>
			<point x="472" y="507" type="line"/>
			<point x="191" y="226" type="line"/>
			<point x="202" y="462" type="line"/>
			<point x="118" y="467" type="line"/>
			<point x="112" y="85" type="line"/>
		</contour>
	</outline>
</glyph>
<glyph name="arrowdblleft.S" format="2">
	<unicode hex="21D0"/>
	<advance width="618"/>
	<outline>
		<contour>
			<point x="299" y="11" type="line"/>
			<point x="355" y="74" type="line"/>
			<point x="129" y="277" type="line"/>
			<point x="129" y="281" type="line"/>
			<point x="355" y="484" type="line"/>
			<point x="299" y="548" type="line"/>
			<point x="24" y="281" type="line"/>
			<point x="24" y="277" type="line"/>
		</contour>
		<contour>
			<point x="160" y="329" type="line"/>
			<point x="578" y="329" type="line"/>
			<point x="578" y="399" type="line"/>
			<point x="160" y="399" type="line"/>
		</contour>
		<contour>
			<point x="160" y="159" type="line"/>
			<point x="578" y="159" type="line"/>
			<point x="578" y="229" type="line"/>
			<point x="160" y="229" type="line"/>
		</contour>
	</outline>
</glyph>
<glyph name="arrowdblup.S" format="2">
	<unicode hex="21D1"/>
	<advance width="618"/>
	<outline>
		<contour>
			<point x="104" y="224" type="line"/>
			<point x="307" y="451" type="line"/>
			<point x="311" y="451" type="line"/>
			<point x="514" y="224" type="line"/>
			<point x="577" y="280" type="line"/>
			<point x="311" y="556" type="line"/>
			<point x="307" y="556" type="line"/>
			<point x="40" y="280" type="line"/>
		</contour>
		<contour>
			<point x="359" y="2" type="line"/>
			<point x="429" y="2" type="line"/>
			<point x="429" y="419" type="line"/>
			<point x="359" y="419" type="line"/>
		</contour>
		<contour>
			<point x="189" y="2" type="line"/>
			<point x="259" y="2" type="line"/>
			<point x="259" y="419" type="line"/>
			<point x="189" y="419" type="line"/>
		</contour>
	</outline>
</glyph>
<glyph name="arrowdblright.S" format="2">
	<unicode hex="21D2"/>
	<advance width="618"/>
	<outline>
		<contour>
			<point x="318" y="11" type="line"/>
			<point x="593" y="277" type="line"/>
			<point x="593" y="281" type="line"/>
			<point x="318" y="548" type="line"/>
			<point x="262" y="484" type="line"/>
			<point x="488" y="281" type="line"/>
			<point x="488" y="277" type="line"/>
			<point x="262" y="74" type="line"/>
		</contour>
		<contour>
			<point x="39" y="159" type="line"/>
			<point x="456" y="159" type="line"/>
			<point x="456" y="229" type="line"/>
			<point x="39" y="229" type="line"/>
		</contour>
		<contour>
			<point x="39" y="329" type="line"/>
			<point x="456" y="329" type="line"/>
			<point x="456" y="399" type="line"/>
			<point x="39" y="399" type="line"/>
		</contour>
	</outline>
</glyph>
<glyph name="arrowdbldown.S" format="2">
	<unicode hex="21D3"/>
	<advance width="618"/>
	<outline>
		<contour>
			<point x="307" y="2" type="line"/>
			<point x="311" y="2" type="line"/>
			<point x="577" y="277" type="line"/>
			<point x="514" y="333" type="line"/>
			<point x="311" y="107" type="line"/>
			<point x="307" y="107" type="line"/>
			<point x="104" y="333" type="line"/>
			<point x="40" y="277" type="line"/>
		</contour>
		<contour>
			<point x="189" y="138" type="line"/>
			<point x="259" y="138" type="line"/>
			<point x="259" y="556" type="line"/>
			<point x="189" y="556" type="line"/>
		</contour>
		<contour>
			<point x="359" y="138" type="line"/>
			<point x="429" y="138" type="line"/>
			<point x="429" y="556" type="line"/>
			<point x="359" y="556" type="line"/>
		</contour>
	</outline>
</glyph>
<glyph name="heVarikaJud" format="2">
	<unicode hex="FB1E"/>
	<outline>
		<contour>
			<point x="0" y="596" type="curve" smooth="yes"/>
			<point x="82" y="596"/>
			<point x="130" y="650"/>
			<point x="135" y="725" type="curve"/>
			<point x="68" y="725" type="line"/>
			<point x="63" y="695"/>
			<point x="48" y="663"/>
			<point x="1" y="663" type="curve" smooth="yes"/>
			<point x="-40" y="663"/>
			<point x="-60" y="690"/>
			<point x="-67" y="725" type="curve"/>
			<point x="-135" y="725" type="line"/>
			<point x="-131" y="659"/>
			<point x="-90" y="596"/>
		</contour>
	</outline>
	<anchor name="_aboveHE" x="0" y="551"/>
	<guideline y="629" identifier="004QOttTDm"/>
</glyph>
<glyph name="heAlefWide" format="2">
	<unicode hex="FB21"/>
	<advance width="1418"/>
	<outline>
		<contour>
			<point x="1165" y="83" type="line"/>
			<point x="1329" y="242"/>
			<point x="1382" y="318"/>
			<point x="1382" y="434" type="curve" smooth="yes"/>
			<point x="1382" y="523"/>
			<point x="1337" y="559"/>
			<point x="1235" y="559" type="curve" smooth="yes"/>
			<point x="1158" y="559" type="line"/>
			<point x="1158" y="444" type="line"/>
			<point x="1191" y="444" type="line" smooth="yes"/>
			<point x="1257" y="444"/>
			<point x="1282" y="428"/>
			<point x="1282" y="389" type="curve" smooth="yes"/>
			<point x="1282" y="334"/>
			<point x="1242" y="262"/>
			<point x="1118" y="140" type="curve"/>
		</contour>
		<contour>
			<point x="74" y="0" type="curve"/>
			<point x="192" y="0" type="line"/>
			<point x="188" y="32"/>
			<point x="185" y="63"/>
			<point x="185" y="92" type="curve" smooth="yes"/>
			<point x="185" y="220"/>
			<point x="201" y="313"/>
			<point x="270" y="433" type="curve"/>
			<point x="205" y="456" type="line"/>
			<point x="114" y="352"/>
			<point x="72" y="220"/>
			<point x="72" y="52" type="curve" smooth="yes"/>
			<point x="72" y="34"/>
			<point x="72" y="18"/>
		</contour>
		<contour>
			<point x="1263" y="-9" type="curve"/>
			<point x="1410" y="29" type="line"/>
			<point x="804" y="258"/>
			<point x="608" y="347"/>
			<point x="191" y="566" type="curve"/>
			<point x="46" y="534" type="line"/>
			<point x="521" y="273"/>
			<point x="757" y="160"/>
		</contour>
	</outline>
	<anchor name="aboveHE" x="482" y="590"/>
	<anchor name="belowPrimaryHE" x="474" y="-25"/>
	<anchor name="aboveLeftHE" x="28" y="590"/>
	<anchor name="centerHE" x="346" y="102"/>
</glyph>
<glyph name="heDaletWide" format="2">
	<unicode hex="FB22"/>
	<advance width="1311"/>
	<outline>
		<contour>
			<point x="10" y="444" type="line"/>
			<point x="1273" y="444" type="line"/>
			<point x="1273" y="559" type="line"/>
			<point x="10" y="559" type="line"/>
		</contour>
		<contour>
			<point x="1080" y="0" type="line"/>
			<point x="1180" y="0" type="line"/>
			<point x="1180" y="444" type="line"/>
			<point x="1097" y="444" type="line"/>
			<point x="1086" y="407"/>
			<point x="1080" y="368"/>
			<point x="1080" y="318" type="curve" smooth="yes"/>
		</contour>
	</outline>
	<anchor name="aboveHE" x="622" y="590"/>
	<anchor name="belowSecondaryHE" x="1132" y="-25"/>
	<anchor name="centerHE" x="548" y="236"/>
	<anchor name="aboveLeftHE" x="-6" y="590"/>
</glyph>
<glyph name="heHeWide" format="2">
	<unicode hex="FB23"/>
	<advance width="1451"/>
	<outline>
		<contour>
			<point x="1268" y="0" type="line"/>
			<point x="1368" y="0" type="line"/>
			<point x="1368" y="351" type="line" smooth="yes"/>
			<point x="1368" y="502"/>
			<point x="1290" y="559"/>
			<point x="1174" y="559" type="curve" smooth="yes"/>
			<point x="76" y="559" type="line"/>
			<point x="76" y="444" type="line"/>
			<point x="1128" y="444" type="line" smooth="yes"/>
			<point x="1214" y="444"/>
			<point x="1268" y="411"/>
			<point x="1268" y="300" type="curve" smooth="yes"/>
		</contour>
		<contour>
			<point x="102" y="0" type="line"/>
			<point x="202" y="0" type="line"/>
			<point x="202" y="324" type="line"/>
			<point x="119" y="324" type="line"/>
			<point x="108" y="287"/>
			<point x="102" y="248"/>
			<point x="102" y="198" type="curve" smooth="yes"/>
		</contour>
	</outline>
	<anchor name="aboveHE" x="718" y="590"/>
	<anchor name="belowPrimaryHE" x="728" y="-25"/>
	<anchor name="centerHE" x="728" y="236"/>
	<anchor name="aboveLeftHE" x="32" y="590"/>
</glyph>
<glyph name="heKafWide" format="2">
	<unicode hex="FB24"/>
	<advance width="1344"/>
	<outline>
		<contour>
			<point x="48" y="0" type="line"/>
			<point x="1246" y="0" type="line"/>
			<point x="1258" y="100"/>
			<point x="1267" y="190"/>
			<point x="1267" y="301" type="curve" smooth="yes"/>
			<point x="1267" y="484"/>
			<point x="1191" y="559"/>
			<point x="1042" y="559" type="curve" smooth="yes"/>
			<point x="68" y="559" type="line"/>
			<point x="68" y="444" type="line"/>
			<point x="992" y="444" type="line" smooth="yes"/>
			<point x="1119" y="444"/>
			<point x="1167" y="392"/>
			<point x="1167" y="238" type="curve" smooth="yes"/>
			<point x="1167" y="191"/>
			<point x="1163" y="153"/>
			<point x="1158" y="111" type="curve"/>
			<point x="48" y="111" type="line"/>
		</contour>
	</outline>
	<anchor name="aboveHE" x="644" y="590"/>
	<anchor name="belowPrimaryHE" x="644" y="-25"/>
	<anchor name="centerHE" x="610" y="280"/>
	<anchor name="aboveLeftHE" x="36" y="590"/>
</glyph>
<glyph name="heLamedWide" format="2">
	<unicode hex="FB25"/>
	<advance width="1299"/>
	<outline>
		<contour>
			<point x="560" y="-12" type="line"/>
			<point x="1035" y="122"/>
			<point x="1253" y="226"/>
			<point x="1253" y="403" type="curve" smooth="yes"/>
			<point x="1253" y="508"/>
			<point x="1206" y="559"/>
			<point x="1061" y="559" type="curve" smooth="yes"/>
			<point x="158" y="559" type="line"/>
			<point x="158" y="728" type="line"/>
			<point x="58" y="728" type="line"/>
			<point x="58" y="444" type="line"/>
			<point x="1049" y="444" type="line" smooth="yes"/>
			<point x="1124" y="444"/>
			<point x="1153" y="428"/>
			<point x="1153" y="367" type="curve" smooth="yes"/>
			<point x="1153" y="279"/>
			<point x="962" y="189"/>
			<point x="520" y="88" type="curve"/>
		</contour>
	</outline>
	<anchor name="aboveHE" x="714" y="590"/>
	<anchor name="belowLeftHE" x="564" y="-25"/>
	<anchor name="centerHE" x="588" y="296"/>
	<anchor name="aboveLeftHE" x="-44" y="590"/>
</glyph>
<glyph name="heMemFinWide" format="2">
	<unicode hex="FB26"/>
	<advance width="1458"/>
	<outline>
		<contour>
			<point x="148" y="0" type="line"/>
			<point x="1375" y="0" type="line"/>
			<point x="1375" y="351" type="line" smooth="yes"/>
			<point x="1375" y="502"/>
			<point x="1297" y="559"/>
			<point x="1181" y="559" type="curve" smooth="yes"/>
			<point x="52" y="559" type="line"/>
			<point x="52" y="444" type="line"/>
			<point x="1135" y="444" type="line" smooth="yes"/>
			<point x="1221" y="444"/>
			<point x="1275" y="411"/>
			<point x="1275" y="300" type="curve" smooth="yes"/>
			<point x="1275" y="110" type="line"/>
			<point x="148" y="110" type="line"/>
		</contour>
		<contour>
			<point x="102" y="0" type="line"/>
			<point x="202" y="0" type="line"/>
			<point x="202" y="444" type="line"/>
			<point x="119" y="444" type="line"/>
			<point x="108" y="407"/>
			<point x="102" y="368"/>
			<point x="102" y="318" type="curve" smooth="yes"/>
		</contour>
	</outline>
	<anchor name="aboveHE" x="732" y="590"/>
	<anchor name="belowPrimaryHE" x="736" y="-25"/>
	<anchor name="centerHE" x="736" y="280"/>
	<anchor name="aboveLeftHE" x="24" y="590"/>
</glyph>
<glyph name="heReshWide" format="2">
	<unicode hex="FB27"/>
	<advance width="1288"/>
	<outline>
		<contour>
			<point x="1105" y="0" type="line"/>
			<point x="1205" y="0" type="line"/>
			<point x="1205" y="351" type="line" smooth="yes"/>
			<point x="1205" y="502"/>
			<point x="1127" y="559"/>
			<point x="1011" y="559" type="curve" smooth="yes"/>
			<point x="10" y="559" type="line"/>
			<point x="10" y="444" type="line"/>
			<point x="965" y="444" type="line" smooth="yes"/>
			<point x="1051" y="444"/>
			<point x="1105" y="411"/>
			<point x="1105" y="300" type="curve" smooth="yes"/>
		</contour>
	</outline>
	<anchor name="aboveHE" x="606" y="590"/>
	<anchor name="belowSecondaryHE" x="1158" y="-25"/>
	<anchor name="centerHE" x="550" y="236"/>
	<anchor name="aboveLeftHE" x="-6" y="590"/>
</glyph>
<glyph name="heTavWide" format="2">
	<unicode hex="FB28"/>
	<advance width="1478"/>
	<outline>
		<contour>
			<point x="1295" y="0" type="line"/>
			<point x="1395" y="0" type="line"/>
			<point x="1395" y="351" type="line" smooth="yes"/>
			<point x="1395" y="502"/>
			<point x="1317" y="559"/>
			<point x="1201" y="559" type="curve" smooth="yes"/>
			<point x="80" y="559" type="line"/>
			<point x="80" y="444" type="line"/>
			<point x="1156" y="444" type="line" smooth="yes"/>
			<point x="1241" y="444"/>
			<point x="1295" y="411"/>
			<point x="1295" y="300" type="curve" smooth="yes"/>
		</contour>
		<contour>
			<point x="48" y="0" type="line"/>
			<point x="237" y="0" type="line"/>
			<point x="252" y="82" type="line"/>
			<point x="237" y="194"/>
			<point x="230" y="287"/>
			<point x="230" y="382" type="curve" smooth="yes"/>
			<point x="230" y="444" type="line"/>
			<point x="147" y="444" type="line"/>
			<point x="138" y="417"/>
			<point x="134" y="384"/>
			<point x="134" y="343" type="curve" smooth="yes"/>
			<point x="134" y="277"/>
			<point x="138" y="203"/>
			<point x="146" y="110" type="curve"/>
			<point x="48" y="110" type="line"/>
		</contour>
	</outline>
	<anchor name="aboveHE" x="742" y="590"/>
	<anchor name="belowPrimaryHE" x="756" y="-25"/>
	<anchor name="centerHE" x="756" y="236"/>
	<anchor name="aboveLeftHE" x="44" y="590"/>
</glyph>
<glyph name="ugAlpa" format="2">
	<unicode hex="10380"/>
	<advance width="718"/>
	<outline>
		<contour>
			<point x="39" y="192" type="line"/>
			<point x="118" y="243"/>
			<point x="262" y="253"/>
			<point x="489" y="253" type="curve"/>
			<point x="489" y="307" type="line"/>
			<point x="262" y="307"/>
			<point x="118" y="317"/>
			<point x="39" y="368" type="curve"/>
		</contour>
		<contour>
			<point x="308" y="192" type="line"/>
			<point x="378" y="239"/>
			<point x="499" y="253"/>
			<point x="691" y="253" type="curve"/>
			<point x="691" y="307" type="line"/>
			<point x="499" y="307"/>
			<point x="378" y="321"/>
			<point x="308" y="368" type="curve"/>
		</contour>
	</outline>
</glyph>
<glyph name="ugBeta" format="2">
	<unicode hex="10381"/>
	<advance width="718"/>
	<outline>
		<contour>
			<point x="143" y="223" type="curve"/>
			<point x="200" y="223" type="line"/>
			<point x="200" y="420"/>
			<point x="213" y="544"/>
			<point x="261" y="616" type="curve"/>
			<point x="82" y="616" type="line"/>
			<point x="129" y="544"/>
			<point x="143" y="420"/>
		</contour>
		<contour>
			<point x="412" y="223" type="curve"/>
			<point x="468" y="223" type="line"/>
			<point x="468" y="420"/>
			<point x="482" y="544"/>
			<point x="530" y="616" type="curve"/>
			<point x="351" y="616" type="line"/>
			<point x="398" y="544"/>
			<point x="412" y="420"/>
		</contour>
		<component base="ugAlpa" yOffset="-42"/>
	</outline>
</glyph>
<glyph name="ugGamla" format="2">
	<unicode hex="10382"/>
	<advance width="334"/>
	<outline>
		<contour>
			<point x="138" y="-56" type="curve"/>
			<point x="196" y="-56" type="line"/>
			<point x="196" y="284"/>
			<point x="196" y="512"/>
			<point x="257" y="616" type="curve"/>
			<point x="77" y="616" type="line"/>
			<point x="138" y="512"/>
			<point x="138" y="284"/>
		</contour>
	</outline>
</glyph>
<glyph name="ugKha" format="2">
	<unicode hex="10383"/>
	<advance width="334"/>
	<outline>
		<contour>
			<point x="138" y="-56" type="curve"/>
			<point x="196" y="-56" type="line"/>
			<point x="196" y="36"/>
			<point x="219" y="148"/>
			<point x="257" y="200" type="curve"/>
			<point x="77" y="200" type="line"/>
			<point x="115" y="148"/>
			<point x="138" y="36"/>
		</contour>
		<contour>
			<point x="138" y="364" type="curve"/>
			<point x="196" y="364" type="line"/>
			<point x="196" y="454"/>
			<point x="219" y="564"/>
			<point x="257" y="616" type="curve"/>
			<point x="77" y="616" type="line"/>
			<point x="115" y="564"/>
			<point x="138" y="454"/>
		</contour>
		<contour>
			<point x="138" y="153" type="curve"/>
			<point x="196" y="153" type="line"/>
			<point x="196" y="242"/>
			<point x="219" y="353"/>
			<point x="257" y="404" type="curve"/>
			<point x="77" y="404" type="line"/>
			<point x="115" y="353"/>
			<point x="138" y="242"/>
		</contour>
	</outline>
</glyph>
<glyph name="ugWo" format="2">
	<unicode hex="10386"/>
	<advance width="973"/>
	<outline>
		<contour>
			<point x="39" y="71" type="line"/>
			<point x="104" y="111"/>
			<point x="227" y="132"/>
			<point x="346" y="132" type="curve"/>
			<point x="346" y="186" type="line"/>
			<point x="227" y="186"/>
			<point x="104" y="207"/>
			<point x="39" y="246" type="curve"/>
		</contour>
		<contour>
			<point x="39" y="320" type="line"/>
			<point x="104" y="359"/>
			<point x="227" y="380"/>
			<point x="346" y="380" type="curve"/>
			<point x="346" y="434" type="line"/>
			<point x="227" y="434"/>
			<point x="104" y="455"/>
			<point x="39" y="495" type="curve"/>
		</contour>
		<contour>
			<point x="363" y="192" type="line"/>
			<point x="431" y="233"/>
			<point x="564" y="253"/>
			<point x="691" y="253" type="curve"/>
			<point x="691" y="307" type="line"/>
			<point x="564" y="307"/>
			<point x="431" y="327"/>
			<point x="363" y="368" type="curve"/>
		</contour>
		<contour>
			<point x="618" y="192" type="line"/>
			<point x="685" y="233"/>
			<point x="819" y="253"/>
			<point x="946" y="253" type="curve"/>
			<point x="946" y="307" type="line"/>
			<point x="819" y="307"/>
			<point x="685" y="327"/>
			<point x="618" y="368" type="curve"/>
		</contour>
	</outline>
</glyph>
<glyph name="ugZeta" format="2">
	<unicode hex="10387"/>
	<advance width="334"/>
	<outline>
		<contour>
			<point x="138" y="174" type="curve"/>
			<point x="196" y="174" type="line"/>
			<point x="196" y="397"/>
			<point x="206" y="536"/>
			<point x="258" y="616" type="curve"/>
			<point x="77" y="616" type="line"/>
			<point x="129" y="536"/>
			<point x="138" y="397"/>
		</contour>
		<contour>
			<point x="138" y="-56" type="curve"/>
			<point x="196" y="-56" type="line"/>
			<point x="196" y="152"/>
			<point x="209" y="281"/>
			<point x="258" y="356" type="curve"/>
			<point x="77" y="356" type="line"/>
			<point x="126" y="281"/>
			<point x="138" y="152"/>
		</contour>
	</outline>
</glyph>
<glyph name="ugHota" format="2">
	<unicode hex="10388"/>
	<advance width="706"/>
	<outline>
		<contour>
			<point x="322" y="280" type="curve"/>
			<point x="380" y="280" type="line"/>
			<point x="380" y="449"/>
			<point x="397" y="550"/>
			<point x="441" y="616" type="curve"/>
			<point x="261" y="616" type="line"/>
			<point x="305" y="550"/>
			<point x="322" y="449"/>
		</contour>
		<contour>
			<point x="261" y="-57" type="curve"/>
			<point x="441" y="-57" type="line"/>
			<point x="398" y="9"/>
			<point x="380" y="110"/>
			<point x="380" y="280" type="curve"/>
			<point x="322" y="280" type="line"/>
			<point x="322" y="110"/>
			<point x="305" y="9"/>
		</contour>
		<contour>
			<point x="39" y="192" type="line"/>
			<point x="102" y="234"/>
			<point x="195" y="253"/>
			<point x="351" y="253" type="curve"/>
			<point x="351" y="307" type="line"/>
			<point x="195" y="307"/>
			<point x="102" y="326"/>
			<point x="39" y="367" type="curve"/>
		</contour>
		<contour>
			<point x="667" y="192" type="curve"/>
			<point x="667" y="367" type="line"/>
			<point x="604" y="326"/>
			<point x="509" y="307"/>
			<point x="351" y="307" type="curve"/>
			<point x="351" y="253" type="line"/>
			<point x="509" y="253"/>
			<point x="604" y="234"/>
		</contour>
	</outline>
</glyph>
<glyph name="ugTet" format="2">
	<unicode hex="10389"/>
	<advance width="706"/>
	<outline>
		<contour>
			<point x="322" y="174" type="curve"/>
			<point x="380" y="174" type="line"/>
			<point x="380" y="397"/>
			<point x="387" y="534"/>
			<point x="441" y="616" type="curve"/>
			<point x="261" y="616" type="line"/>
			<point x="316" y="534"/>
			<point x="322" y="397"/>
		</contour>
		<contour>
			<point x="39" y="193" type="line"/>
			<point x="102" y="234"/>
			<point x="195" y="254"/>
			<point x="351" y="254" type="curve"/>
			<point x="351" y="307" type="line"/>
			<point x="195" y="307"/>
			<point x="102" y="326"/>
			<point x="39" y="368" type="curve"/>
		</contour>
		<contour>
			<point x="667" y="193" type="curve"/>
			<point x="667" y="368" type="line"/>
			<point x="605" y="326"/>
			<point x="510" y="307"/>
			<point x="351" y="307" type="curve"/>
			<point x="351" y="254" type="line"/>
			<point x="510" y="254"/>
			<point x="605" y="234"/>
		</contour>
	</outline>
</glyph>
<glyph name="ugKaf" format="2">
	<unicode hex="1038B"/>
	<advance width="718"/>
	<outline>
		<contour>
			<point x="39" y="71" type="line"/>
			<point x="104" y="111"/>
			<point x="227" y="132"/>
			<point x="345" y="132" type="curve"/>
			<point x="345" y="186" type="line"/>
			<point x="227" y="186"/>
			<point x="104" y="207"/>
			<point x="39" y="246" type="curve"/>
		</contour>
		<contour>
			<point x="39" y="320" type="line"/>
			<point x="104" y="359"/>
			<point x="227" y="380"/>
			<point x="345" y="380" type="curve"/>
			<point x="345" y="434" type="line"/>
			<point x="227" y="434"/>
			<point x="104" y="455"/>
			<point x="39" y="495" type="curve"/>
		</contour>
		<contour>
			<point x="363" y="192" type="line"/>
			<point x="431" y="233"/>
			<point x="564" y="253"/>
			<point x="691" y="253" type="curve"/>
			<point x="691" y="307" type="line"/>
			<point x="564" y="307"/>
			<point x="431" y="327"/>
			<point x="363" y="368" type="curve"/>
		</contour>
	</outline>
</glyph>
<glyph name="ugMem" format="2">
	<unicode hex="1038E"/>
	<advance width="638"/>
	<outline>
		<contour>
			<point x="39" y="193" type="line"/>
			<point x="120" y="245"/>
			<point x="263" y="254"/>
			<point x="490" y="254" type="curve"/>
			<point x="490" y="307" type="line"/>
			<point x="263" y="307"/>
			<point x="120" y="317"/>
			<point x="39" y="368" type="curve"/>
		</contour>
		<component base="ugGamla" xOffset="304"/>
	</outline>
</glyph>
<glyph name="ugDhal" format="2">
	<unicode hex="1038F"/>
	<advance width="792"/>
	<outline>
		<contour>
			<point x="373" y="-54" type="curve"/>
			<point x="432" y="-54" type="line"/>
			<point x="606" y="203"/>
			<point x="743" y="395"/>
			<point x="845" y="439" type="curve"/>
			<point x="703" y="549" type="line"/>
			<point x="688" y="437"/>
			<point x="566" y="249"/>
			<point x="402" y="6" type="curve"/>
			<point x="239" y="249"/>
			<point x="117" y="437"/>
			<point x="102" y="549" type="curve"/>
			<point x="-41" y="438" type="line"/>
			<point x="62" y="395"/>
			<point x="199" y="203"/>
		</contour>
	</outline>
</glyph>
<glyph name="ugNun" format="2">
	<unicode hex="10390"/>
	<advance width="740"/>
	<outline>
		<contour>
			<point x="450" y="192" type="line"/>
			<point x="518" y="231"/>
			<point x="632" y="253"/>
			<point x="712" y="253" type="curve"/>
			<point x="712" y="307" type="line"/>
			<point x="632" y="307"/>
			<point x="518" y="329"/>
			<point x="450" y="368" type="curve"/>
		</contour>
		<contour>
			<point x="39" y="192" type="line"/>
			<point x="107" y="231"/>
			<point x="219" y="253"/>
			<point x="298" y="253" type="curve"/>
			<point x="298" y="307" type="line"/>
			<point x="219" y="307"/>
			<point x="107" y="329"/>
			<point x="39" y="368" type="curve"/>
		</contour>
		<contour>
			<point x="248" y="192" type="line"/>
			<point x="316" y="231"/>
			<point x="428" y="253"/>
			<point x="506" y="253" type="curve"/>
			<point x="506" y="307" type="line"/>
			<point x="428" y="307"/>
			<point x="316" y="329"/>
			<point x="248" y="368" type="curve"/>
		</contour>
	</outline>
</glyph>
<glyph name="ugZu" format="2">
	<unicode hex="10391"/>
	<advance width="593"/>
	<outline>
		<contour>
			<point x="39" y="320" type="line"/>
			<point x="123" y="369"/>
			<point x="279" y="381"/>
			<point x="495" y="381" type="curve"/>
			<point x="495" y="434" type="line"/>
			<point x="279" y="434"/>
			<point x="123" y="446"/>
			<point x="39" y="495" type="curve"/>
		</contour>
		<contour>
			<point x="39" y="71" type="line"/>
			<point x="123" y="121"/>
			<point x="279" y="132"/>
			<point x="495" y="132" type="curve"/>
			<point x="495" y="186" type="line"/>
			<point x="279" y="186"/>
			<point x="123" y="197"/>
			<point x="39" y="246" type="curve"/>
		</contour>
		<contour>
			<point x="560" y="54" type="line"/>
			<point x="565" y="57" type="line"/>
			<point x="526" y="118"/>
			<point x="497" y="193"/>
			<point x="497" y="282" type="curve" smooth="yes"/>
			<point x="497" y="370"/>
			<point x="526" y="445"/>
			<point x="565" y="506" type="curve"/>
			<point x="560" y="510" type="line"/>
			<point x="317" y="282" type="line"/>
		</contour>
	</outline>
</glyph>
<glyph name="ugSamka" format="2">
	<unicode hex="10392"/>
	<advance width="547"/>
	<outline>
		<contour>
			<point x="138" y="301" type="curve"/>
			<point x="196" y="301" type="line"/>
			<point x="196" y="460"/>
			<point x="215" y="554"/>
			<point x="258" y="615" type="curve"/>
			<point x="77" y="615" type="line"/>
			<point x="119" y="554"/>
			<point x="138" y="460"/>
		</contour>
		<contour>
			<point x="266" y="-56" type="curve"/>
			<point x="325" y="-56" type="line"/>
			<point x="325" y="115"/>
			<point x="342" y="219"/>
			<point x="386" y="284" type="curve"/>
			<point x="205" y="284" type="line"/>
			<point x="249" y="219"/>
			<point x="266" y="115"/>
		</contour>
		<contour>
			<point x="394" y="301" type="curve"/>
			<point x="453" y="301" type="line"/>
			<point x="453" y="460"/>
			<point x="472" y="554"/>
			<point x="514" y="615" type="curve"/>
			<point x="334" y="615" type="line"/>
			<point x="376" y="554"/>
			<point x="394" y="460"/>
		</contour>
	</outline>
	<guideline x="250" y="279" angle="90" identifier="n037E1FBxO"/>
</glyph>
<glyph name="ugAin" format="2">
	<unicode hex="10393"/>
	<advance width="501"/>
	<outline>
		<contour>
			<point x="22" y="166" type="line"/>
			<point x="26" y="160" type="line"/>
			<point x="101" y="215"/>
			<point x="176" y="243"/>
			<point x="250" y="243" type="curve" smooth="yes"/>
			<point x="325" y="243"/>
			<point x="400" y="215"/>
			<point x="475" y="160" type="curve"/>
			<point x="478" y="166" type="line"/>
			<point x="250" y="422" type="line"/>
		</contour>
	</outline>
</glyph>
<glyph name="ugQopa" format="2">
	<unicode hex="10396"/>
	<advance width="600"/>
	<outline>
		<contour>
			<point x="39" y="192" type="line"/>
			<point x="100" y="235"/>
			<point x="181" y="253"/>
			<point x="300" y="253" type="curve"/>
			<point x="300" y="307" type="line"/>
			<point x="181" y="307"/>
			<point x="100" y="325"/>
			<point x="39" y="368" type="curve"/>
		</contour>
		<contour>
			<point x="561" y="192" type="curve"/>
			<point x="561" y="368" type="line"/>
			<point x="505" y="329"/>
			<point x="419" y="307"/>
			<point x="300" y="307" type="curve"/>
			<point x="300" y="253" type="line"/>
			<point x="419" y="253"/>
			<point x="505" y="231"/>
		</contour>
	</outline>
	<guideline x="260" y="280" angle="90" identifier="VFyrfB9JO7"/>
</glyph>
<glyph name="ugRasha" format="2">
	<unicode hex="10397"/>
	<advance width="978"/>
	<outline>
		<contour>
			<point x="39" y="315" type="line"/>
			<point x="98" y="349"/>
			<point x="185" y="368"/>
			<point x="331" y="368" type="curve"/>
			<point x="331" y="422" type="line"/>
			<point x="185" y="422"/>
			<point x="101" y="439"/>
			<point x="39" y="483" type="curve"/>
		</contour>
		<contour>
			<point x="284" y="315" type="line"/>
			<point x="339" y="346"/>
			<point x="427" y="368"/>
			<point x="571" y="368" type="curve"/>
			<point x="571" y="422" type="line"/>
			<point x="427" y="422"/>
			<point x="342" y="443"/>
			<point x="284" y="483" type="curve"/>
		</contour>
		<contour>
			<point x="39" y="77" type="line"/>
			<point x="101" y="121"/>
			<point x="185" y="138"/>
			<point x="331" y="138" type="curve"/>
			<point x="331" y="192" type="line"/>
			<point x="185" y="192"/>
			<point x="98" y="211"/>
			<point x="39" y="245" type="curve"/>
		</contour>
		<contour>
			<point x="582" y="192" type="line"/>
			<point x="651" y="240"/>
			<point x="765" y="253"/>
			<point x="950" y="253" type="curve"/>
			<point x="950" y="307" type="line"/>
			<point x="765" y="307"/>
			<point x="651" y="320"/>
			<point x="582" y="368" type="curve"/>
		</contour>
		<contour>
			<point x="284" y="77" type="line"/>
			<point x="342" y="117"/>
			<point x="427" y="138"/>
			<point x="571" y="138" type="curve"/>
			<point x="571" y="192" type="line"/>
			<point x="427" y="192"/>
			<point x="339" y="214"/>
			<point x="284" y="245" type="curve"/>
		</contour>
	</outline>
</glyph>
<glyph name="ugThanna" format="2">
	<unicode hex="10398"/>
	<advance width="334"/>
	<outline>
		<contour>
			<point x="138" y="42" type="curve"/>
			<point x="196" y="42" type="line"/>
			<point x="196" y="226"/>
			<point x="209" y="327"/>
			<point x="257" y="395" type="curve"/>
			<point x="77" y="395" type="line"/>
			<point x="125" y="327"/>
			<point x="138" y="226"/>
		</contour>
		<contour>
			<point x="77" y="165" type="curve"/>
			<point x="257" y="165" type="line"/>
			<point x="212" y="229"/>
			<point x="196" y="347"/>
			<point x="196" y="517" type="curve"/>
			<point x="138" y="517" type="line"/>
			<point x="138" y="347"/>
			<point x="122" y="229"/>
		</contour>
	</outline>
</glyph>
<glyph name="ugTo" format="2">
	<unicode hex="1039A"/>
	<advance width="718"/>
	<outline>
		<contour>
			<point x="39" y="192" type="line"/>
			<point x="145" y="253"/>
			<point x="362" y="253"/>
			<point x="691" y="253" type="curve"/>
			<point x="691" y="307" type="line"/>
			<point x="362" y="307"/>
			<point x="145" y="307"/>
			<point x="39" y="368" type="curve"/>
		</contour>
	</outline>
</glyph>
<glyph name="ugI" format="2">
	<unicode hex="1039B"/>
	<advance width="718"/>
	<outline>
		<contour>
			<point x="197" y="-270" type="curve"/>
			<point x="254" y="-270" type="line"/>
			<point x="254" y="-167"/>
			<point x="278" y="-89"/>
			<point x="316" y="-48" type="curve"/>
			<point x="135" y="-48" type="line"/>
			<point x="173" y="-89"/>
			<point x="197" y="-167"/>
		</contour>
		<component base="ugHo"/>
	</outline>
</glyph>
<glyph name="ugU" format="2">
	<unicode hex="1039C"/>
	<advance width="740"/>
	<outline>
		<contour>
			<point x="118" y="223" type="curve"/>
			<point x="175" y="223" type="line"/>
			<point x="175" y="420"/>
			<point x="190" y="544"/>
			<point x="229" y="616" type="curve"/>
			<point x="58" y="616" type="line"/>
			<point x="106" y="543"/>
			<point x="118" y="420"/>
		</contour>
		<contour>
			<point x="329" y="223" type="curve"/>
			<point x="385" y="223" type="line"/>
			<point x="385" y="420"/>
			<point x="400" y="544"/>
			<point x="439" y="616" type="curve"/>
			<point x="275" y="616" type="line"/>
			<point x="314" y="544"/>
			<point x="329" y="420"/>
		</contour>
		<contour>
			<point x="539" y="223" type="curve"/>
			<point x="596" y="223" type="line"/>
			<point x="596" y="420"/>
			<point x="608" y="543"/>
			<point x="657" y="616" type="curve"/>
			<point x="485" y="616" type="line"/>
			<point x="525" y="544"/>
			<point x="539" y="420"/>
		</contour>
		<component base="ugTo" yOffset="-42"/>
	</outline>
</glyph>
<glyph name="ugSsu" format="2">
	<unicode hex="1039D"/>
	<advance width="734"/>
	<outline>
		<contour>
			<point x="78" y="436" type="curve"/>
			<point x="257" y="436" type="line"/>
			<point x="213" y="488"/>
			<point x="188" y="563"/>
			<point x="188" y="615" type="curve"/>
			<point x="146" y="615" type="line"/>
			<point x="146" y="563"/>
			<point x="122" y="488"/>
		</contour>
		<contour>
			<point x="77" y="-57" type="curve"/>
			<point x="257" y="-57" type="line"/>
			<point x="213" y="-5"/>
			<point x="188" y="68"/>
			<point x="188" y="118" type="curve"/>
			<point x="146" y="118" type="line"/>
			<point x="146" y="68"/>
			<point x="121" y="-5"/>
		</contour>
		<contour>
			<point x="78" y="190" type="curve"/>
			<point x="257" y="190" type="line"/>
			<point x="213" y="242"/>
			<point x="188" y="315"/>
			<point x="188" y="364" type="curve"/>
			<point x="146" y="364" type="line"/>
			<point x="146" y="315"/>
			<point x="122" y="242"/>
		</contour>
		<contour>
			<point x="477" y="436" type="curve"/>
			<point x="657" y="436" type="line"/>
			<point x="613" y="488"/>
			<point x="588" y="563"/>
			<point x="588" y="615" type="curve"/>
			<point x="546" y="615" type="line"/>
			<point x="546" y="563"/>
			<point x="521" y="488"/>
		</contour>
		<contour>
			<point x="477" y="-57" type="curve"/>
			<point x="657" y="-57" type="line"/>
			<point x="613" y="-5"/>
			<point x="588" y="68"/>
			<point x="588" y="118" type="curve"/>
			<point x="546" y="118" type="line"/>
			<point x="546" y="68"/>
			<point x="521" y="-5"/>
		</contour>
		<contour>
			<point x="477" y="190" type="curve"/>
			<point x="657" y="190" type="line"/>
			<point x="613" y="242"/>
			<point x="588" y="315"/>
			<point x="588" y="364" type="curve"/>
			<point x="546" y="364" type="line"/>
			<point x="546" y="315"/>
			<point x="521" y="242"/>
		</contour>
		<component base="ugGamla" xOffset="200"/>
	</outline>
</glyph>
<glyph name="aiAleph" format="2">
	<unicode hex="10840"/>
	<advance width="618"/>
	<outline>
		<contour>
			<point x="496" y="-9" type="curve"/>
			<point x="622" y="24" type="line"/>
			<point x="463" y="174"/>
			<point x="275" y="382"/>
			<point x="180" y="566" type="curve"/>
			<point x="57" y="539" type="line"/>
			<point x="168" y="354"/>
			<point x="352" y="127"/>
		</contour>
		<contour>
			<point x="60" y="0" type="line"/>
			<point x="116" y="0" type="line" smooth="yes"/>
			<point x="412" y="0"/>
			<point x="558" y="276"/>
			<point x="558" y="495" type="curve" smooth="yes"/>
			<point x="558" y="517"/>
			<point x="559" y="537"/>
			<point x="556" y="559" type="curve"/>
			<point x="433" y="559" type="line"/>
			<point x="437" y="528"/>
			<point x="440" y="496"/>
			<point x="440" y="437" type="curve" smooth="yes"/>
			<point x="440" y="247"/>
			<point x="355" y="110"/>
			<point x="148" y="110" type="curve" smooth="yes"/>
			<point x="60" y="110" type="line"/>
		</contour>
	</outline>
</glyph>
<glyph name="aiBeth" format="2">
	<unicode hex="10841"/>
	<advance width="495"/>
	<outline>
		<contour>
			<point x="48" y="0" type="line"/>
			<point x="147" y="0" type="line" smooth="yes"/>
			<point x="337" y="0"/>
			<point x="455" y="134"/>
			<point x="455" y="331" type="curve" smooth="yes"/>
			<point x="455" y="493"/>
			<point x="384" y="559"/>
			<point x="242" y="559" type="curve" smooth="yes"/>
			<point x="209" y="559" type="line" smooth="yes"/>
			<point x="159" y="559"/>
			<point x="144" y="574"/>
			<point x="144" y="609" type="curve" smooth="yes"/>
			<point x="144" y="645"/>
			<point x="148" y="680"/>
			<point x="156" y="732" type="curve"/>
			<point x="60" y="724" type="line"/>
			<point x="48" y="668"/>
			<point x="43" y="616"/>
			<point x="43" y="570" type="curve" smooth="yes"/>
			<point x="43" y="488"/>
			<point x="93" y="444"/>
			<point x="171" y="444" type="curve" smooth="yes"/>
			<point x="204" y="444" type="line" smooth="yes"/>
			<point x="306" y="444"/>
			<point x="352" y="406"/>
			<point x="352" y="292" type="curve" smooth="yes"/>
			<point x="352" y="178"/>
			<point x="287" y="111"/>
			<point x="157" y="111" type="curve" smooth="yes"/>
			<point x="48" y="111" type="line"/>
		</contour>
	</outline>
</glyph>
<glyph name="aiGimel" format="2">
	<unicode hex="10842"/>
	<advance width="600"/>
	<outline>
		<contour>
			<point x="0" y="0" type="curve"/>
			<point x="122" y="0" type="line"/>
			<point x="183" y="114"/>
			<point x="270" y="309"/>
			<point x="334" y="492" type="curve"/>
			<point x="250" y="525" type="line"/>
			<point x="182" y="340"/>
			<point x="85" y="147"/>
		</contour>
		<contour>
			<point x="452" y="-9" type="curve"/>
			<point x="574" y="2" type="line"/>
			<point x="532" y="350"/>
			<point x="383" y="514"/>
			<point x="202" y="569" type="curve"/>
			<point x="102" y="511" type="line"/>
			<point x="299" y="439"/>
			<point x="424" y="295"/>
		</contour>
	</outline>
</glyph>
<glyph name="aiZayin" format="2">
	<unicode hex="10846"/>
	<advance width="286"/>
	<outline>
		<contour>
			<point x="102" y="0" type="line"/>
			<point x="202" y="0" type="line"/>
			<point x="202" y="559" type="line"/>
			<point x="102" y="559" type="line"/>
		</contour>
	</outline>
</glyph>
<glyph name="aiHeth" format="2">
	<unicode hex="10847"/>
	<advance width="661"/>
	<outline>
		<contour>
			<point x="477" y="0" type="line"/>
			<point x="577" y="0" type="line"/>
			<point x="577" y="351" type="line" smooth="yes"/>
			<point x="577" y="502"/>
			<point x="499" y="559"/>
			<point x="383" y="559" type="curve" smooth="yes"/>
			<point x="148" y="559" type="line"/>
			<point x="148" y="444" type="line"/>
			<point x="338" y="444" type="line" smooth="yes"/>
			<point x="423" y="444"/>
			<point x="477" y="411"/>
			<point x="477" y="300" type="curve" smooth="yes"/>
		</contour>
		<contour>
			<point x="102" y="0" type="line"/>
			<point x="202" y="0" type="line"/>
			<point x="202" y="728" type="line"/>
			<point x="102" y="728" type="line"/>
		</contour>
	</outline>
</glyph>
<glyph name="aiTeth" format="2">
	<unicode hex="10848"/>
	<advance width="608"/>
	<outline>
		<contour>
			<point x="316" y="-12" type="curve" smooth="yes"/>
			<point x="460" y="-12"/>
			<point x="568" y="134"/>
			<point x="568" y="312" type="curve" smooth="yes"/>
			<point x="568" y="443"/>
			<point x="524" y="495"/>
			<point x="412" y="495" type="curve" smooth="yes"/>
			<point x="348" y="495"/>
			<point x="250" y="477"/>
			<point x="138" y="453" type="curve"/>
			<point x="138" y="338" type="line"/>
			<point x="243" y="363"/>
			<point x="338" y="380"/>
			<point x="393" y="380" type="curve" smooth="yes"/>
			<point x="446" y="380"/>
			<point x="468" y="355"/>
			<point x="468" y="288" type="curve" smooth="yes"/>
			<point x="468" y="188"/>
			<point x="408" y="103"/>
			<point x="327" y="103" type="curve" smooth="yes"/>
			<point x="269" y="103"/>
			<point x="174" y="146"/>
			<point x="174" y="364" type="curve" smooth="yes"/>
			<point x="174" y="458"/>
			<point x="181" y="581"/>
			<point x="206" y="734" type="curve"/>
			<point x="91" y="722" type="line"/>
			<point x="69" y="589"/>
			<point x="58" y="476"/>
			<point x="58" y="380" type="curve" smooth="yes"/>
			<point x="58" y="75"/>
			<point x="207" y="-12"/>
		</contour>
	</outline>
</glyph>
<glyph name="aiLamedh" format="2">
	<unicode hex="1084B"/>
	<advance width="469"/>
	<outline>
		<contour>
			<point x="290" y="-12" type="curve" smooth="yes"/>
			<point x="341" y="-12"/>
			<point x="392" y="-1"/>
			<point x="443" y="6" type="curve"/>
			<point x="443" y="121" type="line"/>
			<point x="396" y="114"/>
			<point x="349" y="103"/>
			<point x="302" y="103" type="curve" smooth="yes"/>
			<point x="203" y="103"/>
			<point x="164" y="142"/>
			<point x="164" y="262" type="curve" smooth="yes"/>
			<point x="164" y="387"/>
			<point x="215" y="598"/>
			<point x="255" y="734" type="curve"/>
			<point x="140" y="722" type="line"/>
			<point x="109" y="598"/>
			<point x="64" y="401"/>
			<point x="64" y="231" type="curve" smooth="yes"/>
			<point x="64" y="67"/>
			<point x="134" y="-12"/>
		</contour>
	</outline>
</glyph>
<glyph name="aiMem" format="2">
	<unicode hex="1084C"/>
	<advance width="541"/>
	<outline>
		<contour>
			<point x="120" y="190" type="line"/>
			<point x="291" y="297"/>
			<point x="342" y="482"/>
			<point x="342" y="628" type="curve" smooth="yes"/>
			<point x="342" y="664"/>
			<point x="341" y="694"/>
			<point x="338" y="732" type="curve"/>
			<point x="236" y="724" type="line"/>
			<point x="242" y="676"/>
			<point x="247" y="632"/>
			<point x="247" y="546" type="curve" smooth="yes"/>
			<point x="247" y="449"/>
			<point x="199" y="356"/>
			<point x="58" y="275" type="curve"/>
		</contour>
		<contour>
			<point x="150" y="-186" type="line"/>
			<point x="378" y="16"/>
			<point x="495" y="226"/>
			<point x="495" y="403" type="curve" smooth="yes"/>
			<point x="495" y="508"/>
			<point x="448" y="559"/>
			<point x="303" y="559" type="curve" smooth="yes"/>
			<point x="197" y="559" type="line" smooth="yes"/>
			<point x="147" y="559"/>
			<point x="132" y="574"/>
			<point x="132" y="609" type="curve" smooth="yes"/>
			<point x="132" y="645"/>
			<point x="136" y="680"/>
			<point x="144" y="732" type="curve"/>
			<point x="48" y="724" type="line"/>
			<point x="36" y="668"/>
			<point x="31" y="616"/>
			<point x="31" y="570" type="curve" smooth="yes"/>
			<point x="31" y="488"/>
			<point x="81" y="444"/>
			<point x="159" y="444" type="curve" smooth="yes"/>
			<point x="291" y="444" type="line" smooth="yes"/>
			<point x="366" y="444"/>
			<point x="395" y="428"/>
			<point x="395" y="367" type="curve" smooth="yes"/>
			<point x="395" y="249"/>
			<point x="298" y="65"/>
			<point x="85" y="-98" type="curve"/>
		</contour>
	</outline>
</glyph>
<glyph name="aiNun" format="2">
	<unicode hex="1084D"/>
	<advance width="327"/>
	<outline>
		<contour>
			<point x="24" y="-186" type="line"/>
			<point x="192" y="-5"/>
			<point x="280" y="198"/>
			<point x="281" y="319" type="curve" smooth="yes"/>
			<point x="283" y="513"/>
			<point x="132" y="481"/>
			<point x="132" y="633" type="curve" smooth="yes"/>
			<point x="132" y="663"/>
			<point x="137" y="692"/>
			<point x="144" y="732" type="curve"/>
			<point x="48" y="724" type="line"/>
			<point x="37" y="677"/>
			<point x="31" y="633"/>
			<point x="31" y="594" type="curve" smooth="yes"/>
			<point x="31" y="438"/>
			<point x="181" y="473"/>
			<point x="181" y="281" type="curve" smooth="yes"/>
			<point x="181" y="179"/>
			<point x="104" y="49"/>
			<point x="-52" y="-104" type="curve"/>
		</contour>
	</outline>
</glyph>
<glyph name="aiSamekh" format="2">
	<unicode hex="1084E"/>
	<advance width="529"/>
	<outline>
		<contour>
			<point x="108" y="190" type="line"/>
			<point x="279" y="297"/>
			<point x="330" y="482"/>
			<point x="330" y="628" type="curve" smooth="yes"/>
			<point x="330" y="664"/>
			<point x="329" y="694"/>
			<point x="326" y="732" type="curve"/>
			<point x="224" y="724" type="line"/>
			<point x="230" y="676"/>
			<point x="235" y="632"/>
			<point x="235" y="546" type="curve" smooth="yes"/>
			<point x="235" y="449"/>
			<point x="187" y="356"/>
			<point x="46" y="275" type="curve"/>
		</contour>
		<contour>
			<point x="138" y="-186" type="line"/>
			<point x="366" y="16"/>
			<point x="483" y="226"/>
			<point x="483" y="403" type="curve" smooth="yes"/>
			<point x="483" y="508"/>
			<point x="436" y="559"/>
			<point x="291" y="559" type="curve" smooth="yes"/>
			<point x="10" y="559" type="line"/>
			<point x="10" y="444" type="line"/>
			<point x="279" y="444" type="line" smooth="yes"/>
			<point x="354" y="444"/>
			<point x="383" y="428"/>
			<point x="383" y="367" type="curve" smooth="yes"/>
			<point x="383" y="249"/>
			<point x="286" y="65"/>
			<point x="73" y="-98" type="curve"/>
		</contour>
	</outline>
</glyph>
<glyph name="aiAyin" format="2">
	<unicode hex="1084F"/>
	<advance width="545"/>
	<outline>
		<contour>
			<point x="274" y="206" type="curve" smooth="yes"/>
			<point x="414" y="206"/>
			<point x="511" y="311"/>
			<point x="512" y="559" type="curve"/>
			<point x="412" y="559" type="line"/>
			<point x="412" y="385"/>
			<point x="364" y="320"/>
			<point x="284" y="320" type="curve" smooth="yes"/>
			<point x="206" y="320"/>
			<point x="160" y="382"/>
			<point x="160" y="566" type="curve"/>
			<point x="40" y="554" type="line"/>
			<point x="41" y="298"/>
			<point x="138" y="206"/>
		</contour>
	</outline>
</glyph>
<glyph name="aiPe" format="2">
	<unicode hex="10850"/>
	<advance width="527"/>
	<outline>
		<contour>
			<point x="120" y="-186" type="line"/>
			<point x="362" y="2"/>
			<point x="487" y="189"/>
			<point x="487" y="353" type="curve" smooth="yes"/>
			<point x="487" y="477"/>
			<point x="428" y="570"/>
			<point x="293" y="570" type="curve" smooth="yes"/>
			<point x="151" y="570"/>
			<point x="51" y="480"/>
			<point x="52" y="253" type="curve"/>
			<point x="150" y="253" type="line"/>
			<point x="153" y="405"/>
			<point x="199" y="456"/>
			<point x="282" y="456" type="curve" smooth="yes"/>
			<point x="351" y="456"/>
			<point x="387" y="409"/>
			<point x="387" y="335" type="curve" smooth="yes"/>
			<point x="387" y="219"/>
			<point x="284" y="53"/>
			<point x="56" y="-97" type="curve"/>
		</contour>
	</outline>
</glyph>
<glyph name="aiSadhe" format="2">
	<unicode hex="10851"/>
	<advance width="543"/>
	<outline>
		<contour>
			<point x="322" y="88" type="line"/>
			<point x="442" y="198"/>
			<point x="497" y="299"/>
			<point x="497" y="403" type="curve" smooth="yes"/>
			<point x="497" y="508"/>
			<point x="450" y="559"/>
			<point x="305" y="559" type="curve" smooth="yes"/>
			<point x="155" y="559" type="line"/>
			<point x="129" y="444" type="line"/>
			<point x="293" y="444" type="line" smooth="yes"/>
			<point x="367" y="444"/>
			<point x="397" y="428"/>
			<point x="397" y="367" type="curve" smooth="yes"/>
			<point x="397" y="300"/>
			<point x="352" y="232"/>
			<point x="252" y="155" type="curve"/>
		</contour>
		<contour>
			<point x="102" y="-174" type="line"/>
			<point x="202" y="-174" type="line"/>
			<point x="202" y="728" type="line"/>
			<point x="102" y="728" type="line"/>
		</contour>
	</outline>
</glyph>
<glyph name="aiQoph" format="2">
	<unicode hex="10852"/>
	<advance width="572"/>
	<outline>
		<contour>
			<point x="351" y="88" type="line"/>
			<point x="471" y="198"/>
			<point x="526" y="299"/>
			<point x="526" y="403" type="curve" smooth="yes"/>
			<point x="526" y="508"/>
			<point x="479" y="559"/>
			<point x="334" y="559" type="curve" smooth="yes"/>
			<point x="185" y="559" type="line" smooth="yes"/>
			<point x="135" y="559"/>
			<point x="120" y="574"/>
			<point x="120" y="609" type="curve" smooth="yes"/>
			<point x="120" y="644"/>
			<point x="124" y="678"/>
			<point x="132" y="728" type="curve"/>
			<point x="36" y="726" type="line"/>
			<point x="24" y="670"/>
			<point x="19" y="617"/>
			<point x="19" y="570" type="curve" smooth="yes"/>
			<point x="19" y="488"/>
			<point x="69" y="444"/>
			<point x="147" y="444" type="curve" smooth="yes"/>
			<point x="322" y="444" type="line" smooth="yes"/>
			<point x="396" y="444"/>
			<point x="426" y="428"/>
			<point x="426" y="367" type="curve" smooth="yes"/>
			<point x="426" y="300"/>
			<point x="381" y="232"/>
			<point x="281" y="155" type="curve"/>
		</contour>
		<contour>
			<point x="132" y="-174" type="line"/>
			<point x="232" y="-174" type="line"/>
			<point x="232" y="558" type="line"/>
			<point x="149" y="558" type="line"/>
			<point x="138" y="521"/>
			<point x="132" y="482"/>
			<point x="132" y="432" type="curve" smooth="yes"/>
		</contour>
	</outline>
</glyph>
<glyph name="aiShin" format="2">
	<unicode hex="10854"/>
	<advance width="721"/>
	<outline>
		<contour>
			<point x="346" y="-12" type="curve" smooth="yes"/>
			<point x="531" y="-12"/>
			<point x="678" y="182"/>
			<point x="696" y="559" type="curve"/>
			<point x="590" y="559" type="line"/>
			<point x="582" y="242"/>
			<point x="486" y="102"/>
			<point x="359" y="102" type="curve" smooth="yes"/>
			<point x="243" y="102"/>
			<point x="161" y="204"/>
			<point x="162" y="566" type="curve"/>
			<point x="40" y="554" type="line"/>
			<point x="48" y="135"/>
			<point x="170" y="-12"/>
		</contour>
		<contour>
			<point x="218" y="135" type="line"/>
			<point x="378" y="267"/>
			<point x="437" y="346"/>
			<point x="449" y="564" type="curve"/>
			<point x="342" y="556" type="line"/>
			<point x="330" y="379"/>
			<point x="292" y="307"/>
			<point x="182" y="200" type="curve"/>
		</contour>
	</outline>
</glyph>
<glyph name="pmAleph" format="2">
	<unicode hex="10860"/>
	<advance width="622"/>
	<outline>
		<contour>
			<point x="205" y="0" type="curve" smooth="yes"/>
			<point x="282" y="0" type="line"/>
			<point x="282" y="115" type="line"/>
			<point x="249" y="115" type="line" smooth="yes"/>
			<point x="183" y="115"/>
			<point x="158" y="131"/>
			<point x="158" y="170" type="curve" smooth="yes"/>
			<point x="158" y="211"/>
			<point x="188" y="264"/>
			<point x="244" y="321" type="curve"/>
			<point x="196" y="378" type="line"/>
			<point x="102" y="287"/>
			<point x="58" y="215"/>
			<point x="58" y="126" type="curve" smooth="yes"/>
			<point x="58" y="36"/>
			<point x="104" y="0"/>
		</contour>
		<contour>
			<point x="472" y="173" type="line"/>
			<point x="531" y="256"/>
			<point x="570" y="369"/>
			<point x="570" y="507" type="curve" smooth="yes"/>
			<point x="570" y="525"/>
			<point x="570" y="541"/>
			<point x="568" y="559" type="curve"/>
			<point x="445" y="559" type="line"/>
			<point x="449" y="528"/>
			<point x="452" y="496"/>
			<point x="452" y="467" type="curve" smooth="yes"/>
			<point x="452" y="366"/>
			<point x="441" y="284"/>
			<point x="404" y="196" type="curve"/>
		</contour>
		<contour>
			<point x="508" y="-9" type="curve"/>
			<point x="634" y="24" type="line"/>
			<point x="475" y="174"/>
			<point x="287" y="382"/>
			<point x="192" y="566" type="curve"/>
			<point x="69" y="539" type="line"/>
			<point x="180" y="354"/>
			<point x="364" y="127"/>
		</contour>
	</outline>
</glyph>
<glyph name="pmGimel" format="2">
	<unicode hex="10862"/>
	<advance width="406"/>
	<outline>
		<contour>
			<point x="250" y="0" type="line"/>
			<point x="350" y="0" type="line"/>
			<point x="315" y="401" type="line" smooth="yes"/>
			<point x="306" y="504"/>
			<point x="260" y="559"/>
			<point x="152" y="559" type="curve" smooth="yes"/>
			<point x="80" y="559" type="line"/>
			<point x="80" y="444" type="line"/>
			<point x="131" y="444" type="line" smooth="yes"/>
			<point x="188" y="444"/>
			<point x="219" y="416"/>
			<point x="224" y="348" type="curve" smooth="yes"/>
		</contour>
		<contour>
			<point x="48" y="-8" type="line"/>
			<point x="158" y="-3"/>
			<point x="247" y="82"/>
			<point x="253" y="158" type="curve"/>
			<point x="237" y="238" type="line"/>
			<point x="224" y="162"/>
			<point x="143" y="116"/>
			<point x="48" y="110" type="curve"/>
		</contour>
	</outline>
</glyph>
<glyph name="pmDaleth" format="2">
	<unicode hex="10863"/>
	<advance width="511"/>
	<outline>
		<contour>
			<point x="10" y="444" type="line"/>
			<point x="473" y="444" type="line"/>
			<point x="473" y="559" type="line"/>
			<point x="10" y="559" type="line"/>
		</contour>
		<contour>
			<point x="280" y="0" type="line"/>
			<point x="380" y="0" type="line"/>
			<point x="380" y="444" type="line"/>
			<point x="297" y="444" type="line"/>
			<point x="286" y="407"/>
			<point x="280" y="368"/>
			<point x="280" y="318" type="curve" smooth="yes"/>
		</contour>
	</outline>
</glyph>
<glyph name="pmHe" format="2">
	<unicode hex="10864"/>
	<advance width="652"/>
	<outline>
		<contour>
			<point x="468" y="0" type="line"/>
			<point x="568" y="0" type="line"/>
			<point x="568" y="351" type="line" smooth="yes"/>
			<point x="568" y="502"/>
			<point x="490" y="559"/>
			<point x="374" y="559" type="curve" smooth="yes"/>
			<point x="76" y="559" type="line"/>
			<point x="76" y="444" type="line"/>
			<point x="328" y="444" type="line" smooth="yes"/>
			<point x="414" y="444"/>
			<point x="468" y="411"/>
			<point x="468" y="300" type="curve" smooth="yes"/>
		</contour>
		<contour>
			<point x="62" y="12" type="curve"/>
			<point x="186" y="-6" type="line"/>
			<point x="243" y="112"/>
			<point x="299" y="321"/>
			<point x="326" y="518" type="curve"/>
			<point x="240" y="541" type="line"/>
			<point x="216" y="357"/>
			<point x="138" y="152"/>
		</contour>
	</outline>
</glyph>
<glyph name="pmWaw" format="2">
	<unicode hex="10865"/>
	<advance width="324"/>
	<outline>
		<contour>
			<point x="140" y="0" type="line"/>
			<point x="240" y="0" type="line"/>
			<point x="240" y="379" type="line" smooth="yes"/>
			<point x="240" y="514"/>
			<point x="177" y="559"/>
			<point x="74" y="559" type="curve" smooth="yes"/>
			<point x="10" y="559" type="line"/>
			<point x="10" y="444" type="line"/>
			<point x="28" y="444" type="line" smooth="yes"/>
			<point x="100" y="444"/>
			<point x="140" y="421"/>
			<point x="140" y="328" type="curve" smooth="yes"/>
		</contour>
	</outline>
</glyph>
<glyph name="pmYodh" format="2">
	<unicode hex="10869"/>
	<advance width="581"/>
	<outline>
		<contour>
			<point x="40" y="216" type="curve"/>
			<point x="150" y="218" type="line"/>
			<point x="150" y="392"/>
			<point x="196" y="456"/>
			<point x="275" y="456" type="curve" smooth="yes"/>
			<point x="352" y="456"/>
			<point x="398" y="395"/>
			<point x="398" y="211" type="curve"/>
			<point x="519" y="222" type="line"/>
			<point x="518" y="479"/>
			<point x="421" y="571"/>
			<point x="286" y="571" type="curve" smooth="yes"/>
			<point x="141" y="571"/>
			<point x="41" y="466"/>
		</contour>
	</outline>
</glyph>
<glyph name="pmLamedh" format="2">
	<unicode hex="1086B"/>
	<advance width="434"/>
	<outline>
		<contour>
			<point x="234" y="179" type="curve" smooth="yes"/>
			<point x="380" y="179" type="line"/>
			<point x="391" y="294" type="line"/>
			<point x="246" y="294" type="line" smooth="yes"/>
			<point x="171" y="294"/>
			<point x="142" y="311"/>
			<point x="142" y="372" type="curve" smooth="yes"/>
			<point x="142" y="456"/>
			<point x="223" y="570"/>
			<point x="374" y="663" type="curve"/>
			<point x="322" y="745" type="line"/>
			<point x="136" y="627"/>
			<point x="42" y="480"/>
			<point x="42" y="329" type="curve" smooth="yes"/>
			<point x="42" y="225"/>
			<point x="89" y="179"/>
		</contour>
	</outline>
</glyph>
<glyph name="pmNun" format="2">
	<unicode hex="1086E"/>
	<advance width="428"/>
	<outline>
		<contour>
			<point x="48" y="0" type="line"/>
			<point x="344" y="0" type="line"/>
			<point x="344" y="375" type="line" smooth="yes"/>
			<point x="344" y="513"/>
			<point x="277" y="559"/>
			<point x="168" y="559" type="curve" smooth="yes"/>
			<point x="80" y="559" type="line"/>
			<point x="80" y="444" type="line"/>
			<point x="128" y="444" type="line" smooth="yes"/>
			<point x="204" y="444"/>
			<point x="244" y="421"/>
			<point x="244" y="324" type="curve" smooth="yes"/>
			<point x="244" y="110" type="line"/>
			<point x="48" y="110" type="line"/>
		</contour>
	</outline>
</glyph>
<glyph name="pmSamekh" format="2">
	<unicode hex="1086F"/>
	<advance width="605"/>
	<outline>
		<contour>
			<point x="317" y="-12" type="curve" smooth="yes"/>
			<point x="460" y="-12"/>
			<point x="565" y="150"/>
			<point x="565" y="374" type="curve" smooth="yes"/>
			<point x="565" y="507"/>
			<point x="519" y="559"/>
			<point x="398" y="559" type="curve" smooth="yes"/>
			<point x="4" y="559" type="line"/>
			<point x="4" y="444" type="line"/>
			<point x="378" y="444" type="line" smooth="yes"/>
			<point x="441" y="444"/>
			<point x="466" y="418"/>
			<point x="466" y="350" type="curve" smooth="yes"/>
			<point x="466" y="206"/>
			<point x="406" y="103"/>
			<point x="328" y="103" type="curve" smooth="yes"/>
			<point x="227" y="103"/>
			<point x="176" y="174"/>
			<point x="173" y="496" type="curve"/>
			<point x="74" y="464" type="line"/>
			<point x="76" y="110"/>
			<point x="161" y="-12"/>
		</contour>
	</outline>
</glyph>
<glyph name="pmPe" format="2">
	<unicode hex="10871"/>
	<advance width="594"/>
	<outline>
		<contour>
			<point x="48" y="-7" type="line"/>
			<point x="497" y="-7" type="line"/>
			<point x="509" y="98"/>
			<point x="518" y="193"/>
			<point x="518" y="309" type="curve" smooth="yes"/>
			<point x="518" y="507"/>
			<point x="436" y="571"/>
			<point x="276" y="571" type="curve" smooth="yes"/>
			<point x="158" y="571"/>
			<point x="60" y="497"/>
			<point x="60" y="370" type="curve" smooth="yes"/>
			<point x="60" y="268"/>
			<point x="117" y="216"/>
			<point x="222" y="216" type="curve" smooth="yes"/>
			<point x="266" y="216" type="line"/>
			<point x="266" y="320" type="line"/>
			<point x="238" y="320" type="line" smooth="yes"/>
			<point x="189" y="320"/>
			<point x="160" y="335"/>
			<point x="160" y="380" type="curve" smooth="yes"/>
			<point x="160" y="428"/>
			<point x="197" y="456"/>
			<point x="252" y="456" type="curve" smooth="yes"/>
			<point x="371" y="456"/>
			<point x="418" y="406"/>
			<point x="418" y="258" type="curve" smooth="yes"/>
			<point x="418" y="204"/>
			<point x="414" y="150"/>
			<point x="409" y="102" type="curve"/>
			<point x="48" y="102" type="line"/>
		</contour>
	</outline>
</glyph>
<glyph name="pmSadhe" format="2">
	<unicode hex="10872"/>
	<advance width="552"/>
	<outline>
		<contour>
			<point x="48" y="0" type="line"/>
			<point x="499" y="0" type="line"/>
			<point x="519" y="110" type="line"/>
			<point x="48" y="110" type="line"/>
		</contour>
		<contour>
			<point x="444" y="63" type="curve"/>
			<point x="519" y="110" type="line"/>
			<point x="329" y="217"/>
			<point x="193" y="370"/>
			<point x="131" y="566" type="curve"/>
			<point x="10" y="545" type="line"/>
			<point x="86" y="313"/>
			<point x="238" y="171"/>
		</contour>
		<contour>
			<point x="356" y="196" type="line"/>
			<point x="463" y="281"/>
			<point x="512" y="363"/>
			<point x="512" y="434" type="curve" smooth="yes"/>
			<point x="512" y="521"/>
			<point x="470" y="559"/>
			<point x="366" y="559" type="curve" smooth="yes"/>
			<point x="298" y="559" type="line"/>
			<point x="298" y="444" type="line"/>
			<point x="322" y="444" type="line" smooth="yes"/>
			<point x="393" y="444"/>
			<point x="412" y="426"/>
			<point x="412" y="389" type="curve" smooth="yes"/>
			<point x="412" y="352"/>
			<point x="377" y="306"/>
			<point x="306" y="253" type="curve"/>
		</contour>
	</outline>
</glyph>
<glyph name="pmResh" format="2">
	<unicode hex="10874"/>
	<advance width="489"/>
	<outline>
		<contour>
			<point x="305" y="0" type="line"/>
			<point x="405" y="0" type="line"/>
			<point x="405" y="351" type="line" smooth="yes"/>
			<point x="405" y="502"/>
			<point x="327" y="559"/>
			<point x="211" y="559" type="curve" smooth="yes"/>
			<point x="10" y="559" type="line"/>
			<point x="10" y="444" type="line"/>
			<point x="165" y="444" type="line" smooth="yes"/>
			<point x="251" y="444"/>
			<point x="305" y="411"/>
			<point x="305" y="300" type="curve" smooth="yes"/>
		</contour>
	</outline>
</glyph>
<glyph name="hrAleph" format="2">
	<unicode hex="108E0"/>
	<advance width="652"/>
	<outline>
		<contour>
			<point x="76" y="0" type="line"/>
			<point x="374" y="0" type="line" smooth="yes"/>
			<point x="490" y="0"/>
			<point x="568" y="57"/>
			<point x="568" y="208" type="curve" smooth="yes"/>
			<point x="568" y="559" type="line"/>
			<point x="468" y="559" type="line"/>
			<point x="468" y="260" type="line" smooth="yes"/>
			<point x="468" y="148"/>
			<point x="414" y="115"/>
			<point x="328" y="115" type="curve" smooth="yes"/>
			<point x="76" y="115" type="line"/>
		</contour>
		<contour>
			<point x="239" y="21" type="curve"/>
			<point x="325" y="43" type="line"/>
			<point x="300" y="239"/>
			<point x="242" y="449"/>
			<point x="185" y="566" type="curve"/>
			<point x="63" y="545" type="line"/>
			<point x="136" y="406"/>
			<point x="215" y="203"/>
		</contour>
	</outline>
</glyph>
<glyph name="hrGimel" format="2">
	<unicode hex="108E2"/>
	<advance width="552"/>
	<outline>
		<contour>
			<point x="48" y="0" type="line"/>
			<point x="499" y="0" type="line"/>
			<point x="517" y="96" type="line"/>
			<point x="327" y="210"/>
			<point x="193" y="364"/>
			<point x="131" y="566" type="curve"/>
			<point x="10" y="548" type="line"/>
			<point x="74" y="347"/>
			<point x="185" y="214"/>
			<point x="353" y="94" type="curve"/>
			<point x="372" y="110" type="line"/>
			<point x="48" y="110" type="line"/>
		</contour>
	</outline>
	<anchor name="aboveHE" x="264" y="590"/>
	<anchor name="belowPrimaryHE" x="270" y="-25"/>
	<anchor name="centerHE" x="100" y="208"/>
	<anchor name="aboveLeftHE" x="0" y="590"/>
</glyph>
<glyph name="hrHe" format="2">
	<unicode hex="108E4"/>
	<advance width="618"/>
	<outline>
		<contour>
			<point x="74" y="0" type="curve"/>
			<point x="192" y="0" type="line"/>
			<point x="188" y="32"/>
			<point x="185" y="63"/>
			<point x="185" y="92" type="curve" smooth="yes"/>
			<point x="185" y="194"/>
			<point x="197" y="275"/>
			<point x="234" y="363" type="curve"/>
			<point x="169" y="386" type="line"/>
			<point x="112" y="303"/>
			<point x="72" y="190"/>
			<point x="72" y="52" type="curve" smooth="yes"/>
			<point x="72" y="34"/>
			<point x="72" y="18"/>
		</contour>
		<contour>
			<point x="484" y="-9" type="curve"/>
			<point x="610" y="20" type="line"/>
			<point x="451" y="175"/>
			<point x="263" y="381"/>
			<point x="168" y="566" type="curve"/>
			<point x="45" y="542" type="line"/>
			<point x="157" y="352"/>
			<point x="339" y="127"/>
		</contour>
		<component base="aiZayin" xOffset="396"/>
	</outline>
	<anchor name="aboveHE" x="322" y="590"/>
	<anchor name="belowPrimaryHE" x="314" y="-25"/>
	<anchor name="aboveLeftHE" x="28" y="590"/>
	<anchor name="centerHE" x="266" y="102"/>
</glyph>
<glyph name="hrWaw" format="2">
	<unicode hex="108E5"/>
	<advance width="478"/>
	<outline>
		<contour>
			<point x="226" y="-12" type="line"/>
			<point x="375" y="83"/>
			<point x="419" y="198"/>
			<point x="419" y="310" type="curve" smooth="yes"/>
			<point x="419" y="451"/>
			<point x="316" y="553"/>
			<point x="175" y="569" type="curve"/>
			<point x="148" y="454" type="line"/>
			<point x="236" y="439"/>
			<point x="319" y="389"/>
			<point x="319" y="285" type="curve" smooth="yes"/>
			<point x="319" y="219"/>
			<point x="285" y="151"/>
			<point x="164" y="78" type="curve"/>
		</contour>
	</outline>
</glyph>
<glyph name="hrTeth" format="2">
	<unicode hex="108E8"/>
	<advance width="594"/>
	<outline>
		<contour>
			<point x="318" y="-12" type="curve" smooth="yes"/>
			<point x="436" y="-12"/>
			<point x="535" y="62"/>
			<point x="535" y="189" type="curve" smooth="yes"/>
			<point x="535" y="291"/>
			<point x="478" y="343"/>
			<point x="372" y="343" type="curve" smooth="yes"/>
			<point x="329" y="343" type="line"/>
			<point x="329" y="239" type="line"/>
			<point x="356" y="239" type="line" smooth="yes"/>
			<point x="406" y="239"/>
			<point x="435" y="224"/>
			<point x="435" y="179" type="curve" smooth="yes"/>
			<point x="435" y="131"/>
			<point x="398" y="103"/>
			<point x="342" y="103" type="curve" smooth="yes"/>
			<point x="254" y="103"/>
			<point x="212" y="145"/>
			<point x="212" y="238" type="curve" smooth="yes"/>
			<point x="212" y="352"/>
			<point x="285" y="477"/>
			<point x="555" y="571" type="curve"/>
			<point x="497" y="660" type="line"/>
			<point x="208" y="536"/>
			<point x="112" y="382"/>
			<point x="112" y="216" type="curve" smooth="yes"/>
			<point x="112" y="72"/>
			<point x="176" y="-12"/>
		</contour>
	</outline>
</glyph>
<glyph name="hrYodh" format="2">
	<unicode hex="108E9"/>
	<advance width="482"/>
	<outline>
		<contour>
			<point x="400" y="-12" type="curve"/>
			<point x="411" y="82" type="line"/>
			<point x="277" y="82"/>
			<point x="159" y="183"/>
			<point x="159" y="307" type="curve" smooth="yes"/>
			<point x="159" y="408"/>
			<point x="220" y="475"/>
			<point x="305" y="475" type="curve" smooth="yes"/>
			<point x="343" y="475"/>
			<point x="372" y="463"/>
			<point x="396" y="442" type="curve"/>
			<point x="451" y="514" type="line"/>
			<point x="415" y="547"/>
			<point x="365" y="569"/>
			<point x="299" y="569" type="curve" smooth="yes"/>
			<point x="161" y="569"/>
			<point x="41" y="473"/>
			<point x="41" y="307" type="curve" smooth="yes"/>
			<point x="41" y="117"/>
			<point x="208" y="-12"/>
		</contour>
	</outline>
</glyph>
<glyph name="hrLamedh" format="2">
	<unicode hex="108EB"/>
	<advance width="395"/>
	<outline>
		<contour>
			<point x="114" y="-12" type="line"/>
			<point x="302" y="131"/>
			<point x="355" y="252"/>
			<point x="355" y="391" type="curve" smooth="yes"/>
			<point x="355" y="607"/>
			<point x="84" y="785"/>
			<point x="-265" y="796" type="curve"/>
			<point x="-292" y="680" type="line"/>
			<point x="-22" y="669"/>
			<point x="255" y="566"/>
			<point x="255" y="367" type="curve" smooth="yes"/>
			<point x="255" y="274"/>
			<point x="214" y="198"/>
			<point x="52" y="78" type="curve"/>
		</contour>
	</outline>
</glyph>
<glyph name="hrNun" format="2">
	<unicode hex="108ED"/>
	<advance width="311"/>
	<outline>
		<contour>
			<point x="-8" y="-194" type="line"/>
			<point x="52" y="-194" type="line" smooth="yes"/>
			<point x="161" y="-194"/>
			<point x="228" y="-148"/>
			<point x="228" y="-10" type="curve" smooth="yes"/>
			<point x="228" y="559" type="line"/>
			<point x="128" y="559" type="line"/>
			<point x="128" y="42" type="line" smooth="yes"/>
			<point x="128" y="-55"/>
			<point x="87" y="-78"/>
			<point x="12" y="-78" type="curve" smooth="yes"/>
			<point x="-8" y="-78" type="line"/>
		</contour>
	</outline>
</glyph>
<glyph name="hrAyn" format="2">
	<unicode hex="108EF"/>
	<advance width="599"/>
	<outline>
		<contour>
			<point x="298" y="168" type="curve" smooth="yes"/>
			<point x="451" y="168"/>
			<point x="554" y="263"/>
			<point x="559" y="566" type="curve"/>
			<point x="437" y="545" type="line"/>
			<point x="437" y="328"/>
			<point x="389" y="283"/>
			<point x="308" y="283" type="curve" smooth="yes"/>
			<point x="227" y="283"/>
			<point x="180" y="331"/>
			<point x="180" y="566" type="curve"/>
			<point x="58" y="545" type="line"/>
			<point x="63" y="258"/>
			<point x="158" y="168"/>
		</contour>
	</outline>
</glyph>
<glyph name="pnDelt" format="2">
	<unicode hex="10903"/>
	<advance width="556"/>
	<outline>
		<contour>
			<point x="312" y="0" type="curve" smooth="yes"/>
			<point x="473" y="0" type="line"/>
			<point x="473" y="560" type="line"/>
			<point x="318" y="560" type="line" smooth="yes"/>
			<point x="158" y="560"/>
			<point x="54" y="476"/>
			<point x="54" y="282" type="curve" smooth="yes"/>
			<point x="54" y="88"/>
			<point x="158" y="0"/>
		</contour>
		<contour>
			<point x="313" y="115" type="line" smooth="yes"/>
			<point x="208" y="115"/>
			<point x="155" y="170"/>
			<point x="155" y="282" type="curve" smooth="yes"/>
			<point x="155" y="390"/>
			<point x="208" y="444"/>
			<point x="313" y="444" type="curve" smooth="yes"/>
			<point x="373" y="444" type="line"/>
			<point x="373" y="115" type="line"/>
		</contour>
		<contour>
			<point x="373" y="-120" type="line"/>
			<point x="473" y="-120" type="line"/>
			<point x="473" y="281" type="line"/>
			<point x="373" y="178" type="line"/>
		</contour>
	</outline>
</glyph>
<glyph name="pnHe" format="2">
	<unicode hex="10904"/>
	<advance width="493"/>
	<outline>
		<contour>
			<point x="296" y="-174" type="line"/>
			<point x="410" y="-174" type="line"/>
			<point x="410" y="523" type="line"/>
			<point x="61" y="523" type="line"/>
			<point x="61" y="422" type="line"/>
			<point x="296" y="422" type="line"/>
			<point x="296" y="314" type="line"/>
			<point x="102" y="314" type="line"/>
			<point x="102" y="226" type="line"/>
			<point x="296" y="226" type="line"/>
			<point x="296" y="101" type="line"/>
			<point x="57" y="101" type="line"/>
			<point x="57" y="0" type="line"/>
			<point x="296" y="0" type="line"/>
		</contour>
	</outline>
</glyph>
<glyph name="pnHet" format="2">
	<unicode hex="10907"/>
	<advance width="580"/>
	<outline>
		<contour>
			<point x="400" y="-120" type="line"/>
			<point x="500" y="-120" type="line"/>
			<point x="500" y="559" type="line"/>
			<point x="183" y="559" type="line"/>
			<point x="183" y="677" type="line"/>
			<point x="83" y="677" type="line"/>
			<point x="83" y="0" type="line"/>
			<point x="400" y="0" type="line"/>
		</contour>
		<contour>
			<point x="183" y="332" type="line"/>
			<point x="183" y="444" type="line"/>
			<point x="400" y="444" type="line"/>
			<point x="400" y="332" type="line"/>
		</contour>
		<contour>
			<point x="183" y="115" type="line"/>
			<point x="183" y="241" type="line"/>
			<point x="400" y="241" type="line"/>
			<point x="400" y="115" type="line"/>
		</contour>
	</outline>
</glyph>
<glyph name="pnKaf" format="2">
	<unicode hex="1090A"/>
	<advance width="504"/>
	<outline>
		<contour>
			<point x="296" y="-174" type="line"/>
			<point x="396" y="-174" type="line"/>
			<point x="396" y="523" type="line"/>
			<point x="296" y="523" type="line"/>
			<point x="296" y="433" type="line"/>
			<point x="315" y="441" type="line"/>
			<point x="273" y="506"/>
			<point x="185" y="535"/>
			<point x="57" y="535" type="curve"/>
			<point x="57" y="421" type="line"/>
			<point x="248" y="421"/>
			<point x="296" y="391"/>
			<point x="296" y="339" type="curve" smooth="yes"/>
			<point x="296" y="279"/>
			<point x="248" y="248"/>
			<point x="57" y="248" type="curve"/>
			<point x="57" y="134" type="line"/>
			<point x="195" y="134"/>
			<point x="274" y="163"/>
			<point x="316" y="221" type="curve"/>
			<point x="296" y="225" type="line"/>
		</contour>
	</outline>
</glyph>
<glyph name="pnLamd" format="2">
	<unicode hex="1090B"/>
	<advance width="469"/>
	<outline>
		<contour>
			<point x="95" y="0" type="line"/>
			<point x="434" y="0" type="line"/>
			<point x="434" y="115" type="line"/>
			<point x="195" y="115" type="line"/>
			<point x="195" y="692" type="line"/>
			<point x="95" y="692" type="line"/>
		</contour>
	</outline>
</glyph>
<glyph name="pnNun" format="2">
	<unicode hex="1090D"/>
	<advance width="580"/>
	<outline>
		<contour>
			<point x="396" y="-174" type="line"/>
			<point x="497" y="-174" type="line"/>
			<point x="497" y="523" type="line"/>
			<point x="402" y="523" type="line"/>
			<point x="400" y="364"/>
			<point x="340" y="249"/>
			<point x="260" y="249" type="curve" smooth="yes"/>
			<point x="190" y="249"/>
			<point x="148" y="301"/>
			<point x="148" y="530" type="curve"/>
			<point x="40" y="518" type="line"/>
			<point x="41" y="219"/>
			<point x="126" y="134"/>
			<point x="243" y="134" type="curve" smooth="yes"/>
			<point x="309" y="134"/>
			<point x="372" y="178"/>
			<point x="414" y="251" type="curve"/>
			<point x="411" y="268" type="line"/>
			<point x="398" y="177"/>
			<point x="396" y="125"/>
			<point x="396" y="74" type="curve" smooth="yes"/>
		</contour>
	</outline>
</glyph>
<glyph name="pnSemk" format="2">
	<unicode hex="1090E"/>
	<advance width="610"/>
	<outline>
		<contour>
			<point x="255" y="-120" type="line"/>
			<point x="355" y="-120" type="line"/>
			<point x="355" y="70" type="line"/>
			<point x="565" y="70" type="line"/>
			<point x="565" y="186" type="line"/>
			<point x="355" y="186" type="line"/>
			<point x="355" y="265" type="line"/>
			<point x="528" y="265" type="line"/>
			<point x="528" y="368" type="line"/>
			<point x="355" y="368" type="line"/>
			<point x="355" y="444" type="line"/>
			<point x="565" y="444" type="line"/>
			<point x="565" y="559" type="line"/>
			<point x="44" y="559" type="line"/>
			<point x="44" y="444" type="line"/>
			<point x="255" y="444" type="line"/>
			<point x="255" y="368" type="line"/>
			<point x="81" y="368" type="line"/>
			<point x="81" y="265" type="line"/>
			<point x="255" y="265" type="line"/>
			<point x="255" y="186" type="line"/>
			<point x="44" y="186" type="line"/>
			<point x="44" y="70" type="line"/>
			<point x="255" y="70" type="line"/>
		</contour>
	</outline>
</glyph>
<glyph name="pnPe" format="2">
	<unicode hex="10910"/>
	<advance width="576"/>
	<outline>
		<contour>
			<point x="392" y="-174" type="line"/>
			<point x="492" y="-174" type="line"/>
			<point x="492" y="293" type="line" smooth="yes"/>
			<point x="492" y="478"/>
			<point x="401" y="535"/>
			<point x="267" y="535" type="curve" smooth="yes"/>
			<point x="149" y="535"/>
			<point x="48" y="452"/>
			<point x="48" y="313" type="curve" smooth="yes"/>
			<point x="48" y="201"/>
			<point x="110" y="134"/>
			<point x="215" y="134" type="curve" smooth="yes"/>
			<point x="245" y="134" type="line"/>
			<point x="245" y="248" type="line"/>
			<point x="231" y="248" type="line" smooth="yes"/>
			<point x="182" y="248"/>
			<point x="148" y="274"/>
			<point x="148" y="326" type="curve" smooth="yes"/>
			<point x="148" y="380"/>
			<point x="193" y="420"/>
			<point x="251" y="420" type="curve" smooth="yes"/>
			<point x="340" y="420"/>
			<point x="392" y="392"/>
			<point x="392" y="254" type="curve" smooth="yes"/>
		</contour>
	</outline>
</glyph>
<glyph name="pnRosh" format="2">
	<unicode hex="10913"/>
	<advance width="544"/>
	<outline>
		<contour>
			<point x="361" y="-174" type="line"/>
			<point x="461" y="-174" type="line"/>
			<point x="461" y="523" type="line"/>
			<point x="296" y="523" type="line" smooth="yes"/>
			<point x="155" y="523"/>
			<point x="51" y="469"/>
			<point x="51" y="330" type="curve" smooth="yes"/>
			<point x="51" y="186"/>
			<point x="158" y="134"/>
			<point x="291" y="134" type="curve" smooth="yes"/>
			<point x="361" y="134" type="line"/>
		</contour>
		<contour>
			<point x="288" y="248" type="line" smooth="yes"/>
			<point x="204" y="248"/>
			<point x="151" y="271"/>
			<point x="151" y="330" type="curve" smooth="yes"/>
			<point x="151" y="386"/>
			<point x="203" y="409"/>
			<point x="287" y="409" type="curve" smooth="yes"/>
			<point x="361" y="409" type="line"/>
			<point x="361" y="248" type="line"/>
		</contour>
	</outline>
</glyph>
<glyph name="pnShin" format="2">
	<unicode hex="10914"/>
	<advance width="770"/>
	<outline>
		<contour>
			<point x="220" y="134" type="curve" smooth="yes"/>
			<point x="290" y="134"/>
			<point x="356" y="186"/>
			<point x="390" y="300" type="curve"/>
			<point x="372" y="300" type="line"/>
			<point x="394" y="184"/>
			<point x="445" y="134"/>
			<point x="514" y="134" type="curve" smooth="yes"/>
			<point x="643" y="134"/>
			<point x="739" y="292"/>
			<point x="742" y="523" type="curve"/>
			<point x="646" y="523" type="line"/>
			<point x="645" y="368"/>
			<point x="598" y="249"/>
			<point x="531" y="249" type="curve" smooth="yes"/>
			<point x="479" y="249"/>
			<point x="447" y="305"/>
			<point x="447" y="528" type="curve"/>
			<point x="346" y="517" type="line"/>
			<point x="344" y="362"/>
			<point x="301" y="249"/>
			<point x="237" y="249" type="curve" smooth="yes"/>
			<point x="181" y="249"/>
			<point x="148" y="301"/>
			<point x="148" y="530" type="curve"/>
			<point x="40" y="518" type="line"/>
			<point x="41" y="219"/>
			<point x="117" y="134"/>
		</contour>
	</outline>
</glyph>
<glyph name="pnTau" format="2">
	<unicode hex="10915"/>
	<advance width="532"/>
	<outline>
		<contour>
			<point x="216" y="0" type="line"/>
			<point x="316" y="0" type="line"/>
			<point x="316" y="226" type="line"/>
			<point x="500" y="226" type="line"/>
			<point x="500" y="341" type="line"/>
			<point x="316" y="341" type="line"/>
			<point x="316" y="559" type="line"/>
			<point x="216" y="559" type="line"/>
			<point x="216" y="341" type="line"/>
			<point x="32" y="341" type="line"/>
			<point x="32" y="226" type="line"/>
			<point x="216" y="226" type="line"/>
		</contour>
	</outline>
</glyph>
<glyph name="acutecmb.cap" format="2">
	<outline>
		<contour>
			<point x="-14" y="688" type="line"/>
			<point x="154" y="805" type="line"/>
			<point x="92" y="881" type="line"/>
			<point x="-65" y="746" type="line"/>
		</contour>
	</outline>
	<anchor name="_aboveUC" x="0" y="674"/>
</glyph>
<glyph name="ampersand.S" format="2">
	<advance width="622"/>
	<outline>
		<contour>
			<point x="577" y="-12" type="curve"/>
			<point x="606" y="82" type="line"/>
			<point x="570" y="92"/>
			<point x="512" y="115"/>
			<point x="458" y="152" type="curve" smooth="yes"/>
			<point x="336" y="237"/>
			<point x="193" y="348"/>
			<point x="193" y="444" type="curve" smooth="yes"/>
			<point x="193" y="486"/>
			<point x="227" y="515"/>
			<point x="276" y="515" type="curve" smooth="yes"/>
			<point x="321" y="515"/>
			<point x="350" y="505"/>
			<point x="398" y="473" type="curve"/>
			<point x="440" y="554" type="line"/>
			<point x="385" y="595"/>
			<point x="344" y="611"/>
			<point x="275" y="611" type="curve" smooth="yes"/>
			<point x="169" y="611"/>
			<point x="101" y="538"/>
			<point x="101" y="448" type="curve" smooth="yes"/>
			<point x="101" y="331"/>
			<point x="244" y="181"/>
			<point x="389" y="78" type="curve" smooth="yes"/>
			<point x="453" y="32"/>
			<point x="518" y="2"/>
		</contour>
		<contour>
			<point x="239" y="-12" type="curve" smooth="yes"/>
			<point x="337" y="-12"/>
			<point x="402" y="33"/>
			<point x="457" y="96" type="curve" smooth="yes"/>
			<point x="522" y="171"/>
			<point x="566" y="260"/>
			<point x="594" y="353" type="curve"/>
			<point x="488" y="353" type="line"/>
			<point x="464" y="270"/>
			<point x="427" y="200"/>
			<point x="378" y="149" type="curve" smooth="yes"/>
			<point x="339" y="110"/>
			<point x="293" y="84"/>
			<point x="247" y="84" type="curve" smooth="yes"/>
			<point x="176" y="84"/>
			<point x="124" y="118"/>
			<point x="124" y="180" type="curve" smooth="yes"/>
			<point x="124" y="229"/>
			<point x="159" y="263"/>
			<point x="215" y="299" type="curve"/>
			<point x="174" y="368" type="line"/>
			<point x="97" y="323"/>
			<point x="28" y="263"/>
			<point x="28" y="168" type="curve" smooth="yes"/>
			<point x="28" y="59"/>
			<point x="112" y="-12"/>
		</contour>
	</outline>
</glyph>
<glyph name="cedi.S" format="2">
	<advance width="513"/>
	<outline>
		<contour>
			<point x="321" y="-12" type="curve" smooth="yes"/>
			<point x="387" y="-12"/>
			<point x="440" y="14"/>
			<point x="487" y="63" type="curve"/>
			<point x="439" y="142" type="line"/>
			<point x="404" y="107"/>
			<point x="368" y="91"/>
			<point x="325" y="91" type="curve" smooth="yes"/>
			<point x="222" y="91"/>
			<point x="157" y="165"/>
			<point x="157" y="281" type="curve" smooth="yes"/>
			<point x="157" y="396"/>
			<point x="221" y="468"/>
			<point x="324" y="468" type="curve" smooth="yes"/>
			<point x="364" y="468"/>
			<point x="397" y="455"/>
			<point x="430" y="426" type="curve"/>
			<point x="478" y="505" type="line"/>
			<point x="438" y="548"/>
			<point x="382" y="571"/>
			<point x="320" y="571" type="curve" smooth="yes"/>
			<point x="165" y="571"/>
			<point x="60" y="460"/>
			<point x="60" y="277" type="curve" smooth="yes"/>
			<point x="60" y="98"/>
			<point x="165" y="-12"/>
		</contour>
		<contour>
			<point x="277" y="-110" type="line"/>
			<point x="343" y="-110" type="line"/>
			<point x="343" y="662" type="line"/>
			<point x="277" y="662" type="line"/>
		</contour>
	</outline>
</glyph>
<glyph name="dong.S" format="2">
	<advance width="513"/>
	<outline>
		<contour>
			<point x="225" y="113" type="curve" smooth="yes"/>
			<point x="270" y="113"/>
			<point x="308" y="133"/>
			<point x="336" y="163" type="curve"/>
			<point x="338" y="163" type="line"/>
			<point x="346" y="123" type="line"/>
			<point x="424" y="123" type="line"/>
			<point x="424" y="668" type="line"/>
			<point x="329" y="668" type="line"/>
			<point x="329" y="533" type="line"/>
			<point x="333" y="446" type="line"/>
			<point x="303" y="474"/>
			<point x="277" y="489"/>
			<point x="231" y="489" type="curve" smooth="yes"/>
			<point x="149" y="489"/>
			<point x="67" y="425"/>
			<point x="67" y="306" type="curve" smooth="yes"/>
			<point x="67" y="177"/>
			<point x="129" y="113"/>
		</contour>
		<contour>
			<point x="248" y="203" type="curve" smooth="yes"/>
			<point x="196" y="203"/>
			<point x="165" y="239"/>
			<point x="165" y="303" type="curve" smooth="yes"/>
			<point x="165" y="361"/>
			<point x="206" y="398"/>
			<point x="252" y="398" type="curve" smooth="yes"/>
			<point x="282" y="398"/>
			<point x="303" y="389"/>
			<point x="329" y="366" type="curve"/>
			<point x="329" y="246" type="line"/>
			<point x="303" y="215"/>
			<point x="278" y="203"/>
		</contour>
		<contour>
			<point x="184" y="553" type="line"/>
			<point x="424" y="553" type="line"/>
			<point x="500" y="558" type="line"/>
			<point x="500" y="614" type="line"/>
			<point x="184" y="614" type="line"/>
		</contour>
		<contour>
			<point x="79" y="0" type="line"/>
			<point x="458" y="0" type="line"/>
			<point x="458" y="62" type="line"/>
			<point x="79" y="62" type="line"/>
		</contour>
	</outline>
</glyph>
<glyph name="eight.Dnom" format="2">
	<advance width="372"/>
	<outline>
		<contour>
			<point x="185" y="-12" type="curve" smooth="yes"/>
			<point x="267" y="-12"/>
			<point x="324" y="33"/>
			<point x="324" y="95" type="curve" smooth="yes"/>
			<point x="324" y="141"/>
			<point x="302" y="168"/>
			<point x="256" y="189" type="curve"/>
			<point x="256" y="193" type="line"/>
			<point x="292" y="213"/>
			<point x="311" y="242"/>
			<point x="311" y="278" type="curve" smooth="yes"/>
			<point x="311" y="337"/>
			<point x="256" y="374"/>
			<point x="185" y="374" type="curve" smooth="yes"/>
			<point x="117" y="374"/>
			<point x="61" y="335"/>
			<point x="61" y="277" type="curve" smooth="yes"/>
			<point x="61" y="238"/>
			<point x="80" y="212"/>
			<point x="115" y="193" type="curve"/>
			<point x="115" y="189" type="line"/>
			<point x="75" y="172"/>
			<point x="47" y="139"/>
			<point x="47" y="91" type="curve" smooth="yes"/>
			<point x="47" y="33"/>
			<point x="101" y="-12"/>
		</contour>
		<contour>
			<point x="208" y="213" type="curve"/>
			<point x="165" y="228"/>
			<point x="130" y="242"/>
			<point x="130" y="271" type="curve" smooth="yes"/>
			<point x="130" y="294"/>
			<point x="152" y="309"/>
			<point x="183" y="309" type="curve" smooth="yes"/>
			<point x="217" y="309"/>
			<point x="242" y="292"/>
			<point x="242" y="267" type="curve" smooth="yes"/>
			<point x="242" y="247"/>
			<point x="232" y="231"/>
		</contour>
		<contour>
			<point x="189" y="53" type="curve" smooth="yes"/>
			<point x="144" y="53"/>
			<point x="117" y="75"/>
			<point x="117" y="101" type="curve" smooth="yes"/>
			<point x="117" y="128"/>
			<point x="132" y="146"/>
			<point x="161" y="161" type="curve"/>
			<point x="210" y="140"/>
			<point x="254" y="132"/>
			<point x="254" y="96" type="curve" smooth="yes"/>
			<point x="254" y="72"/>
			<point x="227" y="53"/>
		</contour>
	</outline>
</glyph>
<glyph name="five.Dnom" format="2">
	<advance width="372"/>
	<outline>
		<contour>
			<point x="185" y="-12" type="curve" smooth="yes"/>
			<point x="265" y="-12"/>
			<point x="324" y="41"/>
			<point x="324" y="117" type="curve" smooth="yes"/>
			<point x="324" y="194"/>
			<point x="273" y="235"/>
			<point x="190" y="235" type="curve" smooth="yes"/>
			<point x="173" y="235"/>
			<point x="159" y="230"/>
			<point x="148" y="225" type="curve"/>
			<point x="155" y="284" type="line"/>
			<point x="307" y="284" type="line"/>
			<point x="307" y="362" type="line"/>
			<point x="86" y="362" type="line"/>
			<point x="70" y="182" type="line"/>
			<point x="109" y="160" type="line"/>
			<point x="130" y="170"/>
			<point x="149" y="179"/>
			<point x="178" y="179" type="curve" smooth="yes"/>
			<point x="221" y="179"/>
			<point x="250" y="160"/>
			<point x="250" y="122" type="curve" smooth="yes"/>
			<point x="250" y="88"/>
			<point x="222" y="62"/>
			<point x="180" y="62" type="curve" smooth="yes"/>
			<point x="140" y="62"/>
			<point x="112" y="72"/>
			<point x="84" y="97" type="curve"/>
			<point x="41" y="40" type="line"/>
			<point x="77" y="6"/>
			<point x="119" y="-12"/>
		</contour>
	</outline>
</glyph>
<glyph name="five.he" format="2">
	<advance width="513"/>
	<outline>
		<contour>
			<point x="241" y="-89" type="curve" smooth="yes"/>
			<point x="358" y="-89"/>
			<point x="465" y="-10"/>
			<point x="465" y="130" type="curve" smooth="yes"/>
			<point x="465" y="266"/>
			<point x="374" y="328"/>
			<point x="265" y="328" type="curve" smooth="yes"/>
			<point x="232" y="328"/>
			<point x="208" y="321"/>
			<point x="181" y="308" type="curve"/>
			<point x="194" y="462" type="line"/>
			<point x="434" y="462" type="line"/>
			<point x="434" y="559" type="line"/>
			<point x="94" y="559" type="line"/>
			<point x="75" y="245" type="line"/>
			<point x="130" y="210" type="line"/>
			<point x="168" y="235"/>
			<point x="191" y="246"/>
			<point x="232" y="246" type="curve" smooth="yes"/>
			<point x="302" y="246"/>
			<point x="349" y="202"/>
			<point x="349" y="127" type="curve" smooth="yes"/>
			<point x="349" y="50"/>
			<point x="297" y="5"/>
			<point x="226" y="5" type="curve" smooth="yes"/>
			<point x="162" y="5"/>
			<point x="115" y="36"/>
			<point x="77" y="73" type="curve"/>
			<point x="24" y="-1" type="line"/>
			<point x="71" y="-48"/>
			<point x="138" y="-89"/>
		</contour>
	</outline>
</glyph>
<glyph name="four.Dnom" format="2">
	<advance width="372"/>
	<outline>
		<contour>
			<point x="213" y="0" type="line"/>
			<point x="288" y="0" type="line"/>
			<point x="288" y="390" type="line"/>
			<point x="184" y="390" type="line"/>
			<point x="32" y="152" type="line"/>
			<point x="32" y="90" type="line"/>
			<point x="346" y="90" type="line"/>
			<point x="346" y="166" type="line"/>
			<point x="116" y="166" type="line"/>
			<point x="165" y="243" type="line"/>
			<point x="214" y="326" type="line"/>
			<point x="218" y="326" type="line"/>
			<point x="213" y="213" type="line"/>
		</contour>
	</outline>
</glyph>
<glyph name="four.ph" format="2">
	<advance width="513"/>
	<outline>
		<contour>
			<point x="299" y="-77" type="line"/>
			<point x="407" y="-77" type="line"/>
			<point x="407" y="559" type="line"/>
			<point x="270" y="559" type="line"/>
			<point x="18" y="165" type="line"/>
			<point x="18" y="86" type="line"/>
			<point x="487" y="86" type="line"/>
			<point x="487" y="176" type="line"/>
			<point x="132" y="176" type="line"/>
			<point x="248" y="353" type="line"/>
			<point x="266" y="387"/>
			<point x="284" y="419"/>
			<point x="300" y="452" type="curve"/>
			<point x="304" y="452" type="line"/>
			<point x="302" y="415"/>
			<point x="299" y="357"/>
			<point x="299" y="320" type="curve" smooth="yes"/>
		</contour>
	</outline>
</glyph>
<glyph name="franc.S" format="2">
	<advance width="513"/>
	<outline>
		<contour>
			<point x="126" y="0" type="line"/>
			<point x="234" y="0" type="line"/>
			<point x="234" y="235" type="line"/>
			<point x="436" y="235" type="line"/>
			<point x="436" y="333" type="line"/>
			<point x="234" y="333" type="line"/>
			<point x="234" y="457" type="line"/>
			<point x="481" y="457" type="line"/>
			<point x="481" y="559" type="line"/>
			<point x="126" y="559" type="line"/>
		</contour>
		<contour>
			<point x="49" y="84" type="line"/>
			<point x="379" y="84" type="line"/>
			<point x="379" y="158" type="line"/>
			<point x="128" y="158" type="line"/>
			<point x="49" y="153" type="line"/>
		</contour>
	</outline>
</glyph>
<glyph name="guarani.S" format="2">
	<advance width="513"/>
	<outline>
		<contour>
			<point x="302" y="-12" type="curve" smooth="yes"/>
			<point x="367" y="-12"/>
			<point x="426" y="8"/>
			<point x="470" y="48" type="curve"/>
			<point x="470" y="321" type="line"/>
			<point x="284" y="321" type="line"/>
			<point x="284" y="222" type="line"/>
			<point x="376" y="222" type="line"/>
			<point x="376" y="112" type="line"/>
			<point x="362" y="100"/>
			<point x="336" y="90"/>
			<point x="306" y="90" type="curve" smooth="yes"/>
			<point x="214" y="90"/>
			<point x="147" y="154"/>
			<point x="147" y="281" type="curve" smooth="yes"/>
			<point x="147" y="407"/>
			<point x="219" y="469"/>
			<point x="308" y="469" type="curve" smooth="yes"/>
			<point x="346" y="469"/>
			<point x="374" y="458"/>
			<point x="410" y="434" type="curve"/>
			<point x="458" y="516" type="line"/>
			<point x="413" y="553"/>
			<point x="364" y="571"/>
			<point x="305" y="571" type="curve" smooth="yes"/>
			<point x="161" y="571"/>
			<point x="50" y="472"/>
			<point x="50" y="277" type="curve" smooth="yes"/>
			<point x="50" y="86"/>
			<point x="156" y="-12"/>
		</contour>
		<contour>
			<point x="255" y="-110" type="line"/>
			<point x="334" y="-110" type="line"/>
			<point x="334" y="36" type="line"/>
			<point x="255" y="36" type="line"/>
		</contour>
		<contour>
			<point x="255" y="535" type="line"/>
			<point x="334" y="535" type="line"/>
			<point x="334" y="669" type="line"/>
			<point x="255" y="669" type="line"/>
		</contour>
	</outline>
</glyph>
<glyph name="guillemotleft.lat" format="2">
	<advance width="455"/>
	<outline>
		<contour>
			<point x="182" y="61" type="line"/>
			<point x="228" y="97" type="line"/>
			<point x="113" y="252" type="line"/>
			<point x="228" y="406" type="line"/>
			<point x="182" y="443" type="line"/>
			<point x="47" y="294" type="line"/>
			<point x="47" y="210" type="line"/>
		</contour>
		<contour>
			<point x="356" y="61" type="line"/>
			<point x="401" y="97" type="line"/>
			<point x="287" y="252" type="line"/>
			<point x="401" y="406" type="line"/>
			<point x="356" y="443" type="line"/>
			<point x="220" y="294" type="line"/>
			<point x="220" y="210" type="line"/>
		</contour>
	</outline>
</glyph>
<glyph name="guillemotright.lat" format="2">
	<advance width="455"/>
	<outline>
		<contour>
			<point x="99" y="61" type="line"/>
			<point x="235" y="210" type="line"/>
			<point x="235" y="294" type="line"/>
			<point x="99" y="443" type="line"/>
			<point x="54" y="406" type="line"/>
			<point x="168" y="252" type="line"/>
			<point x="54" y="97" type="line"/>
		</contour>
		<contour>
			<point x="273" y="61" type="line"/>
			<point x="408" y="210" type="line"/>
			<point x="408" y="294" type="line"/>
			<point x="273" y="443" type="line"/>
			<point x="228" y="406" type="line"/>
			<point x="342" y="252" type="line"/>
			<point x="228" y="97" type="line"/>
		</contour>
	</outline>
</glyph>
<glyph name="heAyin.1" format="2">
	<advance width="573"/>
	<outline>
		<contour>
			<point x="48" y="0" type="line"/>
			<point x="104" y="0" type="line" smooth="yes"/>
			<point x="390" y="0"/>
			<point x="533" y="247"/>
			<point x="533" y="410" type="curve" smooth="yes"/>
			<point x="533" y="517"/>
			<point x="488" y="559"/>
			<point x="366" y="559" type="curve" smooth="yes"/>
			<point x="301" y="559" type="line"/>
			<point x="301" y="444" type="line"/>
			<point x="338" y="444" type="line" smooth="yes"/>
			<point x="407" y="444"/>
			<point x="433" y="422"/>
			<point x="433" y="368" type="curve" smooth="yes"/>
			<point x="433" y="269"/>
			<point x="332" y="110"/>
			<point x="136" y="110" type="curve" smooth="yes"/>
			<point x="48" y="110" type="line"/>
		</contour>
		<contour>
			<point x="185" y="104" type="curve"/>
			<point x="277" y="126" type="line"/>
			<point x="254" y="241"/>
			<point x="235" y="321"/>
			<point x="210" y="407" type="curve" smooth="yes"/>
			<point x="175" y="530"/>
			<point x="146" y="559"/>
			<point x="51" y="559" type="curve" smooth="yes"/>
			<point x="18" y="559" type="line"/>
			<point x="18" y="444" type="line"/>
			<point x="31" y="444" type="line" smooth="yes"/>
			<point x="81" y="444"/>
			<point x="90" y="429"/>
			<point x="122" y="333" type="curve" smooth="yes"/>
			<point x="143" y="268"/>
			<point x="163" y="198"/>
		</contour>
	</outline>
	<anchor name="aboveHE" x="250" y="554"/>
	<anchor name="belowPrimaryHE" x="296" y="-30"/>
	<anchor name="aboveLeftHE" x="-16" y="554"/>
</glyph>
<glyph name="heAyin.2" format="2">
	<advance width="573"/>
	<outline>
		<contour>
			<point x="48" y="0" type="line"/>
			<point x="104" y="0" type="line" smooth="yes"/>
			<point x="390" y="0"/>
			<point x="533" y="247"/>
			<point x="533" y="410" type="curve" smooth="yes"/>
			<point x="533" y="517"/>
			<point x="488" y="559"/>
			<point x="366" y="559" type="curve" smooth="yes"/>
			<point x="301" y="559" type="line"/>
			<point x="301" y="444" type="line"/>
			<point x="338" y="444" type="line" smooth="yes"/>
			<point x="407" y="444"/>
			<point x="433" y="422"/>
			<point x="433" y="368" type="curve" smooth="yes"/>
			<point x="433" y="269"/>
			<point x="332" y="110"/>
			<point x="136" y="110" type="curve" smooth="yes"/>
			<point x="48" y="110" type="line"/>
		</contour>
		<contour>
			<point x="185" y="104" type="curve"/>
			<point x="277" y="126" type="line"/>
			<point x="256" y="229"/>
			<point x="233" y="300"/>
			<point x="210" y="377" type="curve" smooth="yes"/>
			<point x="185" y="466"/>
			<point x="146" y="482"/>
			<point x="51" y="482" type="curve" smooth="yes"/>
			<point x="18" y="482" type="line"/>
			<point x="18" y="444" type="line"/>
			<point x="31" y="444" type="line" smooth="yes"/>
			<point x="81" y="444"/>
			<point x="90" y="429"/>
			<point x="122" y="333" type="curve" smooth="yes"/>
			<point x="143" y="268"/>
			<point x="163" y="198"/>
		</contour>
		<contour>
			<point x="18" y="444" type="line"/>
			<point x="232" y="444" type="line"/>
			<point x="232" y="559" type="line"/>
			<point x="18" y="559" type="line"/>
		</contour>
	</outline>
	<anchor name="aboveHE" x="250" y="554"/>
	<anchor name="belowPrimaryHE" x="296" y="-30"/>
	<anchor name="aboveLeftHE" x="-16" y="554"/>
</glyph>
<glyph name="heDagesh.shin" format="2">
	<outline>
		<contour>
			<point x="0" y="304" type="curve" smooth="yes"/>
			<point x="-22" y="304"/>
			<point x="-40" y="288"/>
			<point x="-40" y="264" type="curve" smooth="yes"/>
			<point x="-40" y="240"/>
			<point x="-22" y="224"/>
			<point x="0" y="224" type="curve" smooth="yes"/>
			<point x="22" y="224"/>
			<point x="40" y="239"/>
			<point x="40" y="264" type="curve" smooth="yes"/>
			<point x="40" y="288"/>
			<point x="22" y="304"/>
		</contour>
	</outline>
	<anchor name="_centerHE" x="0" y="264"/>
	<guideline y="285" identifier="0UuHlBomrk"/>
</glyph>
<glyph name="heHatafQamatsQatan" format="2">
	<outline>
		<contour>
			<point x="-83" y="-300" type="line"/>
			<point x="-33" y="-300" type="line"/>
			<point x="-37" y="-130" type="line"/>
			<point x="20" y="-130" type="line"/>
			<point x="20" y="-84" type="line"/>
			<point x="-138" y="-84" type="line"/>
			<point x="-138" y="-130" type="line"/>
			<point x="-79" y="-130" type="line"/>
		</contour>
		<contour>
			<point x="108" y="-159" type="curve" smooth="yes"/>
			<point x="129" y="-159"/>
			<point x="148" y="-143"/>
			<point x="148" y="-118" type="curve" smooth="yes"/>
			<point x="148" y="-95"/>
			<point x="129" y="-78"/>
			<point x="108" y="-78" type="curve" smooth="yes"/>
			<point x="86" y="-78"/>
			<point x="67" y="-95"/>
			<point x="67" y="-118" type="curve" smooth="yes"/>
			<point x="67" y="-142"/>
			<point x="86" y="-159"/>
		</contour>
		<contour>
			<point x="108" y="-283" type="curve" smooth="yes"/>
			<point x="129" y="-283"/>
			<point x="148" y="-267"/>
			<point x="148" y="-242" type="curve" smooth="yes"/>
			<point x="148" y="-219"/>
			<point x="129" y="-202"/>
			<point x="108" y="-202" type="curve" smooth="yes"/>
			<point x="86" y="-202"/>
			<point x="67" y="-219"/>
			<point x="67" y="-242" type="curve" smooth="yes"/>
			<point x="67" y="-266"/>
			<point x="86" y="-283"/>
		</contour>
	</outline>
	<anchor name="_belowPrimaryHE" x="0" y="-30"/>
	<anchor name="_belowLeftHE" x="-136" y="-30"/>
	<anchor name="belowPrimaryHE" x="-202" y="-30"/>
	<anchor name="_belowSecondaryHE" x="31" y="-30"/>
	<guideline x="-140" identifier="U6xRWkmqEO"/>
</glyph>
<glyph name="hePatah.short" format="2">
	<outline>
		<contour>
			<point x="82" y="-84" type="line"/>
			<point x="-82" y="-84" type="line"/>
			<point x="-82" y="-130" type="line"/>
			<point x="82" y="-130" type="line"/>
		</contour>
	</outline>
	<anchor name="_belowPrimaryHE" x="0" y="-30"/>
	<anchor name="_belowLeftHE" x="-81" y="-30"/>
	<anchor name="_belowRightHE" x="81" y="-30"/>
	<anchor name="belowPrimaryHE" x="-147" y="-30"/>
	<anchor name="_belowSecondaryHE" x="14" y="-30"/>
</glyph>
<glyph name="heQamats.kaf" format="2">
	<outline>
		<contour>
			<point x="81" y="-84" type="line"/>
			<point x="-83" y="-84" type="line"/>
			<point x="-83" y="-130" type="line"/>
			<point x="-20" y="-130" type="line"/>
			<point x="-28" y="-226" type="line"/>
			<point x="28" y="-226" type="line"/>
			<point x="20" y="-130" type="line"/>
			<point x="81" y="-130" type="line"/>
		</contour>
	</outline>
	<anchor name="_centerSecondaryHE" x="0" y="-30"/>
</glyph>
<glyph name="heQamats.short" format="2">
	<outline>
		<contour>
			<point x="-26" y="-241" type="line"/>
			<point x="26" y="-241" type="line"/>
			<point x="26" y="-141" type="line"/>
			<point x="84" y="-141" type="line"/>
			<point x="84" y="-89" type="line"/>
			<point x="-84" y="-89" type="line"/>
			<point x="-84" y="-141" type="line"/>
			<point x="-26" y="-141" type="line"/>
		</contour>
	</outline>
	<anchor name="_belowPrimaryHE" x="0" y="-25"/>
	<anchor name="_belowLeftHE" x="-81" y="-25"/>
	<anchor name="_belowRightHE" x="81" y="-25"/>
	<anchor name="belowPrimaryHE" x="-147" y="-25"/>
	<anchor name="_belowSecondaryHE" x="0" y="-25"/>
</glyph>
<glyph name="heSamekh.5" format="2">
	<advance width="624"/>
	<outline>
		<contour>
			<point x="318" y="-12" type="curve" smooth="yes"/>
			<point x="467" y="-12"/>
			<point x="578" y="124"/>
			<point x="578" y="374" type="curve" smooth="yes"/>
			<point x="578" y="506"/>
			<point x="537" y="559"/>
			<point x="427" y="559" type="curve" smooth="yes"/>
			<point x="24" y="559" type="line"/>
			<point x="24" y="444" type="line"/>
			<point x="399" y="444" type="line" smooth="yes"/>
			<point x="456" y="444"/>
			<point x="478" y="419"/>
			<point x="478" y="350" type="curve" smooth="yes"/>
			<point x="478" y="186"/>
			<point x="408" y="103"/>
			<point x="328" y="103" type="curve" smooth="yes"/>
			<point x="250" y="103"/>
			<point x="199" y="149"/>
			<point x="199" y="273" type="curve" smooth="yes"/>
			<point x="199" y="444" type="line"/>
			<point x="116" y="444" type="line"/>
			<point x="106" y="410"/>
			<point x="100" y="377"/>
			<point x="100" y="332" type="curve" smooth="yes"/>
			<point x="100" y="235" type="line" smooth="yes"/>
			<point x="100" y="64"/>
			<point x="190" y="-12"/>
		</contour>
	</outline>
	<anchor name="aboveHE" x="312" y="554"/>
	<anchor name="belowPrimaryHE" x="322" y="-30"/>
	<anchor name="centerHE" x="312" y="276"/>
	<anchor name="aboveLeftHE" x="9" y="554"/>
</glyph>
<glyph name="heSheva.kaf" format="2">
	<outline>
		<contour>
			<point x="0" y="-78" type="curve" smooth="yes"/>
			<point x="-22" y="-78"/>
			<point x="-40" y="-95"/>
			<point x="-40" y="-118" type="curve" smooth="yes"/>
			<point x="-40" y="-142"/>
			<point x="-22" y="-159"/>
			<point x="0" y="-159" type="curve" smooth="yes"/>
			<point x="22" y="-159"/>
			<point x="40" y="-143"/>
			<point x="40" y="-118" type="curve" smooth="yes"/>
			<point x="40" y="-95"/>
			<point x="22" y="-78"/>
		</contour>
		<contour>
			<point x="0" y="-202" type="curve" smooth="yes"/>
			<point x="-22" y="-202"/>
			<point x="-40" y="-219"/>
			<point x="-40" y="-242" type="curve" smooth="yes"/>
			<point x="-40" y="-266"/>
			<point x="-22" y="-283"/>
			<point x="0" y="-283" type="curve" smooth="yes"/>
			<point x="22" y="-283"/>
			<point x="40" y="-267"/>
			<point x="40" y="-242" type="curve" smooth="yes"/>
			<point x="40" y="-219"/>
			<point x="22" y="-202"/>
		</contour>
	</outline>
	<anchor name="_centerSecondaryHE" x="0" y="-30"/>
</glyph>
<glyph name="heShin.1" format="2">
	<advance width="737"/>
	<outline>
		<contour>
			<point x="352" y="-12" type="curve" smooth="yes"/>
			<point x="541" y="-12"/>
			<point x="691" y="172"/>
			<point x="691" y="395" type="curve" smooth="yes"/>
			<point x="691" y="525"/>
			<point x="649" y="559"/>
			<point x="540" y="559" type="curve" smooth="yes"/>
			<point x="501" y="559" type="line"/>
			<point x="501" y="444" type="line"/>
			<point x="524" y="444" type="line" smooth="yes"/>
			<point x="574" y="444"/>
			<point x="594" y="421"/>
			<point x="594" y="350" type="curve" smooth="yes"/>
			<point x="594" y="223"/>
			<point x="490" y="98"/>
			<point x="374" y="98" type="curve" smooth="yes"/>
			<point x="252" y="98"/>
			<point x="209" y="130"/>
			<point x="191" y="323" type="curve" smooth="yes"/>
			<point x="172" y="527"/>
			<point x="148" y="559"/>
			<point x="43" y="559" type="curve" smooth="yes"/>
			<point x="10" y="559" type="line"/>
			<point x="10" y="444" type="line"/>
			<point x="17" y="444" type="line" smooth="yes"/>
			<point x="73" y="444"/>
			<point x="80" y="421"/>
			<point x="91" y="284" type="curve" smooth="yes"/>
			<point x="110" y="60"/>
			<point x="202" y="-12"/>
		</contour>
		<contour>
			<point x="325" y="84" type="line"/>
			<point x="412" y="213"/>
			<point x="453" y="336"/>
			<point x="453" y="410" type="curve" smooth="yes"/>
			<point x="453" y="523"/>
			<point x="417" y="559"/>
			<point x="317" y="559" type="curve" smooth="yes"/>
			<point x="278" y="559" type="line"/>
			<point x="278" y="444" type="line"/>
			<point x="291" y="444" type="line" smooth="yes"/>
			<point x="344" y="444"/>
			<point x="356" y="421"/>
			<point x="356" y="371" type="curve" smooth="yes"/>
			<point x="356" y="314"/>
			<point x="322" y="222"/>
			<point x="250" y="120" type="curve"/>
		</contour>
	</outline>
	<anchor name="aboveHE" x="331" y="554"/>
	<anchor name="belowPrimaryHE" x="357" y="-30"/>
	<anchor name="sinHE" x="80" y="524"/>
	<anchor name="centerHE" x="422" y="258"/>
	<anchor name="shinHE" x="517" y="524"/>
	<anchor name="aboveLeftHE" x="-20" y="554"/>
</glyph>
<glyph name="heShin.4" format="2">
	<advance width="737"/>
	<outline>
		<contour>
			<point x="352" y="-12" type="curve" smooth="yes"/>
			<point x="541" y="-12"/>
			<point x="691" y="172"/>
			<point x="691" y="395" type="curve" smooth="yes"/>
			<point x="691" y="525"/>
			<point x="649" y="559"/>
			<point x="540" y="559" type="curve" smooth="yes"/>
			<point x="501" y="559" type="line"/>
			<point x="501" y="444" type="line"/>
			<point x="524" y="444" type="line" smooth="yes"/>
			<point x="574" y="444"/>
			<point x="594" y="421"/>
			<point x="594" y="350" type="curve" smooth="yes"/>
			<point x="594" y="223"/>
			<point x="490" y="98"/>
			<point x="374" y="98" type="curve" smooth="yes"/>
			<point x="254" y="98"/>
			<point x="188" y="145"/>
			<point x="187" y="297" type="curve" smooth="yes"/>
			<point x="187" y="368" type="line" smooth="yes"/>
			<point x="187" y="451"/>
			<point x="151" y="482"/>
			<point x="51" y="482" type="curve" smooth="yes"/>
			<point x="18" y="482" type="line"/>
			<point x="18" y="444" type="line"/>
			<point x="25" y="444" type="line" smooth="yes"/>
			<point x="75" y="444"/>
			<point x="87" y="424"/>
			<point x="87" y="377" type="curve" smooth="yes"/>
			<point x="87" y="259" type="line" smooth="yes"/>
			<point x="88" y="64"/>
			<point x="198" y="-12"/>
		</contour>
		<contour>
			<point x="324" y="84" type="line"/>
			<point x="412" y="212"/>
			<point x="453" y="336"/>
			<point x="453" y="410" type="curve" smooth="yes"/>
			<point x="453" y="523"/>
			<point x="417" y="559"/>
			<point x="317" y="559" type="curve" smooth="yes"/>
			<point x="284" y="559" type="line"/>
			<point x="284" y="444" type="line"/>
			<point x="297" y="444" type="line" smooth="yes"/>
			<point x="345" y="444"/>
			<point x="356" y="421"/>
			<point x="356" y="371" type="curve" smooth="yes"/>
			<point x="356" y="314"/>
			<point x="322" y="222"/>
			<point x="250" y="120" type="curve"/>
		</contour>
		<contour>
			<point x="18" y="444" type="line"/>
			<point x="220" y="444" type="line"/>
			<point x="220" y="559" type="line"/>
			<point x="18" y="559" type="line"/>
		</contour>
	</outline>
	<anchor name="aboveHE" x="331" y="554"/>
	<anchor name="belowPrimaryHE" x="357" y="-30"/>
	<anchor name="sinHE" x="80" y="524"/>
	<anchor name="centerHE" x="422" y="258"/>
	<anchor name="shinHE" x="517" y="524"/>
	<anchor name="aboveLeftHE" x="-20" y="554"/>
</glyph>
<glyph name="heTet.1" format="2">
	<advance width="621"/>
	<outline>
		<contour>
			<point x="312" y="-12" type="curve" smooth="yes"/>
			<point x="464" y="-12"/>
			<point x="575" y="142"/>
			<point x="575" y="374" type="curve" smooth="yes"/>
			<point x="575" y="506"/>
			<point x="534" y="559"/>
			<point x="424" y="559" type="curve" smooth="yes"/>
			<point x="305" y="559" type="line"/>
			<point x="305" y="444" type="line"/>
			<point x="396" y="444" type="line" smooth="yes"/>
			<point x="453" y="444"/>
			<point x="476" y="418"/>
			<point x="476" y="350" type="curve" smooth="yes"/>
			<point x="476" y="198"/>
			<point x="410" y="103"/>
			<point x="322" y="103" type="curve" smooth="yes"/>
			<point x="258" y="103"/>
			<point x="209" y="134"/>
			<point x="192" y="323" type="curve" smooth="yes"/>
			<point x="174" y="527"/>
			<point x="149" y="559"/>
			<point x="43" y="559" type="curve" smooth="yes"/>
			<point x="10" y="559" type="line"/>
			<point x="10" y="444" type="line"/>
			<point x="17" y="444" type="line" smooth="yes"/>
			<point x="73" y="444"/>
			<point x="80" y="421"/>
			<point x="91" y="284" type="curve" smooth="yes"/>
			<point x="110" y="61"/>
			<point x="205" y="-12"/>
		</contour>
	</outline>
	<anchor name="aboveHE" x="312" y="554"/>
	<anchor name="belowPrimaryHE" x="322" y="-30"/>
	<anchor name="centerHE" x="312" y="276"/>
	<anchor name="aboveLeftHE" x="9" y="554"/>
</glyph>
<glyph name="heTet.2" format="2">
	<advance width="621"/>
	<outline>
		<contour>
			<point x="312" y="-12" type="curve" smooth="yes"/>
			<point x="464" y="-12"/>
			<point x="575" y="142"/>
			<point x="575" y="374" type="curve" smooth="yes"/>
			<point x="575" y="506"/>
			<point x="534" y="559"/>
			<point x="424" y="559" type="curve" smooth="yes"/>
			<point x="305" y="559" type="line"/>
			<point x="305" y="444" type="line"/>
			<point x="396" y="444" type="line" smooth="yes"/>
			<point x="453" y="444"/>
			<point x="476" y="418"/>
			<point x="476" y="350" type="curve" smooth="yes"/>
			<point x="476" y="198"/>
			<point x="410" y="103"/>
			<point x="322" y="103" type="curve" smooth="yes"/>
			<point x="259" y="103"/>
			<point x="211" y="135"/>
			<point x="194" y="299" type="curve" smooth="yes"/>
			<point x="179" y="450"/>
			<point x="151" y="482"/>
			<point x="43" y="482" type="curve" smooth="yes"/>
			<point x="10" y="482" type="line"/>
			<point x="10" y="444" type="line"/>
			<point x="17" y="444" type="line" smooth="yes"/>
			<point x="73" y="444"/>
			<point x="80" y="421"/>
			<point x="91" y="284" type="curve" smooth="yes"/>
			<point x="110" y="61"/>
			<point x="205" y="-12"/>
		</contour>
		<contour>
			<point x="10" y="444" type="line"/>
			<point x="232" y="444" type="line"/>
			<point x="232" y="559" type="line"/>
			<point x="10" y="559" type="line"/>
		</contour>
	</outline>
	<anchor name="aboveHE" x="312" y="554"/>
	<anchor name="belowPrimaryHE" x="322" y="-30"/>
	<anchor name="centerHE" x="312" y="276"/>
	<anchor name="aboveLeftHE" x="9" y="554"/>
</glyph>
<glyph name="heTet.3" format="2">
	<advance width="621"/>
	<outline>
		<contour>
			<point x="312" y="-12" type="curve" smooth="yes"/>
			<point x="464" y="-12"/>
			<point x="575" y="142"/>
			<point x="575" y="374" type="curve" smooth="yes"/>
			<point x="575" y="506"/>
			<point x="534" y="559"/>
			<point x="424" y="559" type="curve" smooth="yes"/>
			<point x="305" y="559" type="line"/>
			<point x="305" y="444" type="line"/>
			<point x="396" y="444" type="line" smooth="yes"/>
			<point x="453" y="444"/>
			<point x="476" y="418"/>
			<point x="476" y="350" type="curve" smooth="yes"/>
			<point x="476" y="198"/>
			<point x="410" y="103"/>
			<point x="322" y="103" type="curve" smooth="yes"/>
			<point x="239" y="103"/>
			<point x="189" y="149"/>
			<point x="189" y="273" type="curve" smooth="yes"/>
			<point x="189" y="410" type="line" smooth="yes"/>
			<point x="189" y="523"/>
			<point x="153" y="559"/>
			<point x="51" y="559" type="curve" smooth="yes"/>
			<point x="18" y="559" type="line"/>
			<point x="18" y="444" type="line"/>
			<point x="25" y="444" type="line" smooth="yes"/>
			<point x="75" y="444"/>
			<point x="87" y="424"/>
			<point x="87" y="377" type="curve" smooth="yes"/>
			<point x="87" y="235" type="line" smooth="yes"/>
			<point x="87" y="64"/>
			<point x="186" y="-12"/>
		</contour>
	</outline>
	<anchor name="aboveHE" x="312" y="554"/>
	<anchor name="belowPrimaryHE" x="322" y="-30"/>
	<anchor name="centerHE" x="312" y="276"/>
	<anchor name="aboveLeftHE" x="9" y="554"/>
</glyph>
